<?xml version="1.0" standalone="no"?>
<!DOCTYPE svg PUBLIC "-//W3C//DTD SVG 1.1//EN" "http://www.w3.org/Graphics/SVG/1.1/DTD/svg11.dtd" >
<svg xmlns="http://www.w3.org/2000/svg">
<metadata></metadata>
<defs>
<font id="turkeyfaceregular" horiz-adv-x="2418" >
<font-face units-per-em="2048" ascent="1638" descent="-410" />
<missing-glyph horiz-adv-x="976" />
<glyph horiz-adv-x="0" />
<glyph horiz-adv-x="682" />
<glyph unicode=" "  horiz-adv-x="976" />
<glyph unicode="&#x09;" horiz-adv-x="976" />
<glyph unicode="&#xa0;" horiz-adv-x="976" />
<glyph unicode="!" horiz-adv-x="593" d="M147 -55q6 19 15 53t15 53.5t16.5 49t23.5 59.5q7 11 34 6.5t55.5 -20.5t25.5 -27q-26 -65 -66 -207q-8 -12 -35.5 -9.5t-57 16t-26.5 26.5zM217 764q3 30 13 117t17 153.5t21.5 235t32.5 401.5q44 609 64 836q11 128 33 394.5t34 403.5q3 20 64 15.5t61 -23.5 q-11 -133 -35.5 -400t-36.5 -400q-24 -286 -63 -836q-18 -234 -32.5 -404.5t-21 -235t-17 -156t-13.5 -115.5q-2 -12 -33 -13.5t-60.5 6.5t-27.5 21z" />
<glyph unicode="&#x22;" horiz-adv-x="579" d="M53 2644q-3 10 18 18q39 15 80 9q18 -3 19 -11q13 -113 23 -262q7 -71 26 -346q0 -19 -59 -22t-62 14q-14 265 -20 344q-4 51 -14 146.5t-11 109.5zM305 2644q-2 8 9.5 14.5t28.5 9.5t35 4t30.5 -2t13.5 -10q1 -8 24 -262q6 -73 25 -346q0 -19 -59 -22t-62 14 q-2 59 -18 344q-12 134 -27 256z" />
<glyph unicode="#" horiz-adv-x="1527" d="M55 1357.5q2 30.5 15 31.5q199 -40 323 -62q25 162 45 285q-257 38 -323 47q-11 1 -12.5 29.5t6 55.5t18.5 25q277 -44 328 -53q6 33 25 156t34 213q1 7 13.5 9t29.5 0t33.5 -6t27.5 -10.5t9 -13.5q-14 -81 -35 -199t-29 -165q179 -27 334 -55q27 201 53 440 q2 11 30.5 11.5t55.5 -8t25 -20.5q-13 -99 -31.5 -244.5t-25.5 -197.5q319 -65 428 -86q7 -2 9 -14t-0.5 -28.5t-7 -32t-11 -25.5t-13.5 -8q-204 45 -420 86q-21 -183 -35 -293q156 -28 514 -99q16 -4 7 -55q-9 -49 -25 -51q-2 -1 -4 0q-182 35 -502 100 q-8 -73 -24.5 -247.5t-22.5 -233.5q-36 -348 -45 -463q-2 -12 -32 -13.5t-59 6.5t-28 21q25 190 53 459q49 447 54 492q-255 40 -355 59q-7 -40 -22 -139t-25 -160q-8 -73 -67 -471q-1 -8 -14 -11.5t-30 -2t-34 5t-28 10.5t-9 14q15 89 76 472q9 72 26 180t19 121 q-26 4 -127.5 21.5t-167.5 27.5q-13 -1 -21 29t-6 60.5zM502 1307q157 -28 350 -62q4 44 16 141.5t17 153.5q-134 24 -338 55q-33 -181 -45 -288z" />
<glyph unicode="$" horiz-adv-x="1042" d="M56 40q2 31 14 32q18 1 37 1.5t35 2t42 6.5q10 74 101 766q-178 25 -219 147q-11 39 0.5 108t31.5 114q67 148 279 409q43 392 78 799q2 11 31 13t57 -5.5t26 -19.5l-67 -639q22 26 65 71t56 60l28 393q3 17 59 12t56 -22q-21 -221 -23 -256l119 118q8 8 30.5 -10.5 t39 -43t8.5 -32.5q-108 -105 -213 -213q-37 -480 -65 -897q104 -13 180 -44.5t119 -100.5q24 -37 31.5 -92.5t-3.5 -98.5q-14 -73 -51.5 -142t-94.5 -129t-111.5 -105t-125.5 -95q-5 -63 -13 -188.5t-13 -187.5q-1 -35 -6.5 -108t-6.5 -112q-2 -11 -31 -13.5t-57 4.5t-26 20 q1 35 16 215q7 128 18 299q-78 -48 -198 -88q-16 -115 -48 -326t-40 -264q-3 -19 -57 -12q-51 6 -58 23q-1 2 0 5q22 138 82 547q-17 -3 -46.5 -6t-39.5 -4q-13 -2 -20.5 28t-5.5 61zM177 1077.5q-5 -33.5 0.5 -52t26.5 -30t38 -15.5t49 -8q5 -1 8 -1q30 244 51 438 q-102 -141 -147 -250q-21 -48 -26 -81.5zM305 119q81 31 187 90q8 8 10 8q9 149 45 625q-22 2 -44.5 2t-54 -1t-55.5 -1q-14 -120 -43.5 -360.5t-44.5 -360.5v-2zM406 963q98 0 147 -2q47 596 57 763q-120 -136 -131 -151q-9 -72 -33.5 -283t-39.5 -327zM616 301 q109 84 178 176t85 207q-1 5 -4.5 22t-6.5 25q-39 85 -217 105q-5 -82 -17 -261t-18 -274z" />
<glyph unicode="%" horiz-adv-x="1830" d="M61 94q46 35 107 103q60 68 171.5 191t202 225t167.5 194q99 117 205.5 248.5t240 299t201.5 251.5q364 428 606 665q9 8 33.5 -11t41 -44t7.5 -33q-100 -94 -216 -217t-184.5 -201t-201.5 -231q-474 -597 -645 -801q-105 -123 -305 -348t-236 -266q-60 -70 -119 -115 q-9 -8 -31 11.5t-37.5 45t-7.5 33.5zM410 1649q0 70 36 137q34 66 99 125q-8 26 -7.5 51.5t9.5 26.5q43 7 108 14q27 18 78 48t70 42q17 9 42 -39.5t16 -63.5q-2 -3 -5 -3q-1 0 -14 -9q49 -10 86 -34q61 -40 73 -107t-24 -129q-34 -61 -78.5 -108t-88.5 -73t-91.5 -42.5 t-87 -16t-74.5 6.5q-64 15 -104 62t-43 112zM529 1653q-1 -31 25 -50t75 -14q85 7 148 54.5t97 125.5q15 34 -3 58t-56 34.5t-68.5 14.5t-54.5 4q-99 -65 -147 -160q-15 -36 -16 -67zM1110 305q13 60 70 141q-22 13 -44.5 51t-11.5 48q138 90 256 88q23 10 111 39 q18 -6 6 -70q71 -30 111.5 -91t42.5 -130q0 -88 -57 -160t-142 -112q-64 -33 -120 -42t-96 3.5t-67.5 34.5t-44.5 53q-34 66 -14 147zM1223 266q-9 -48 18.5 -68t72 -12.5t91.5 33.5q170 89 115 207q-32 70 -107 82q-169 -120 -190 -242z" />
<glyph unicode="&#x26;" horiz-adv-x="1634" d="M98 170q19 74 60.5 155.5t75 131.5t101.5 142t91 126q31 41 153 199t185 245q-145 432 -125 752q8 111 31.5 196t54 135t74 85t80 50t84.5 26q73 -7 124.5 -28t87.5 -59.5t59 -86.5t44 -121q7 -45 7.5 -90.5t-6.5 -90.5t-16 -85.5t-26.5 -86.5t-32.5 -82t-39 -83.5 t-40.5 -78.5t-43.5 -79q-67 -116 -190 -291q4 -14 36 -94t50 -117q115 -266 264 -524q72 65 145 135q8 8 30.5 -10.5t39 -43t8.5 -32.5q-24 -22 -73.5 -67t-90.5 -81q83 -137 269 -411q8 -9 -12.5 -30.5t-47 -35t-34.5 -4.5q-154 236 -258 410q-92 -74 -196 -142.5 t-227 -135t-248 -103t-224 -29.5q-137 8 -200.5 96.5t-23.5 237.5zM209 131q-29 -120 30.5 -157.5t192.5 -12.5q168 30 361 137.5t364 245.5q-175 302 -283 547q-35 75 -61 151q-49 -66 -147.5 -196t-147.5 -195q-20 -29 -85.5 -117t-96.5 -134t-70.5 -123t-56.5 -146z M758 1917q-26 -279 88 -629q100 151 133 209q38 67 61.5 111t53 111t45 120t23.5 118.5t1 127.5q-31 121 -94 170t-125 33q-47 -12 -83 -52t-56.5 -96t-32 -111.5t-14.5 -111.5z" />
<glyph unicode="'" horiz-adv-x="323" d="M39 2644q-2 8 9.5 14.5t29 9.5t35 4t31 -2t14.5 -10q10 -91 22 -262q15 -176 27 -346q0 -19 -59.5 -22t-61.5 14q-14 265 -20 344q-5 71 -27 256z" />
<glyph unicode="(" horiz-adv-x="862" d="M55 1284q16 202 76 378t174 413q190 390 410 612q7 9 31.5 -8t42.5 -41.5t10 -32.5q-198 -201 -385 -580q-107 -215 -165.5 -386t-74.5 -361q-25 -245 39 -584q89 -415 240 -727q195 -405 317 -602q8 -9 -14.5 -29.5t-51 -32.5t-36.5 -3q-175 310 -320 618 q-162 339 -250 750q-64 339 -43 616z" />
<glyph unicode=")" horiz-adv-x="862" d="M61 -635q203 200 388 580q107 215 165 385.5t74 361.5q24 234 -39 582q-87 410 -239 729q-184 380 -318 602q-8 9 14.5 29.5t50.5 33t36 3.5q178 -315 321 -619q163 -340 250 -752q65 -336 43 -616q-17 -201 -76.5 -374t-173.5 -414q-191 -392 -410 -613q-7 -9 -32 8 t-43.5 41.5t-10.5 32.5z" />
<glyph unicode="*" horiz-adv-x="897" d="M62 2234q2 27 15.5 56t26.5 26q134 -33 312 -28q-63 86 -110.5 152.5l-87.5 122.5t-60 85q-7 11 16 33t50.5 34.5t33.5 0.5q165 -229 180 -252q5 35 13.5 103.5t13.5 103.5q2 13 33 14.5t60.5 -7t27.5 -20.5q-8 -68 -17 -143.5t-18 -149.5q38 35 69 63.5t44 40t25.5 23.5 t25.5 25q14 12 56.5 -32.5t27.5 -59.5l-154 -137q45 -3 186 -7q20 0 20 -61t-20 -61q-30 0 -89 2t-91 2q34 -47 86 -115q6 -11 -16.5 -33.5t-49 -36t-32.5 -2.5q-47 61 -121 166q0 -4 -13 -85.5t-31 -185.5t-28 -151q-3 -10 -22.5 -11t-41.5 4t-39 14.5t-15 19.5 q6 27 49 281q-125 -116 -193 -156q-12 -7 -31.5 18.5t-28 51.5t0.5 36q63 39 213 189q-160 3 -266 33q-12 7 -10 34z" />
<glyph unicode="+" horiz-adv-x="1470" d="M39 1002.5q0 58.5 20 58.5q295 -3 596 0q2 88 5.5 267.5t5.5 270.5q0 13 29 17.5t57.5 -1t27.5 -16.5q-2 -88 -5 -266.5t-5 -267.5q59 1 165 3t195 4t168 5h115q11 2 16 -26.5t0.5 -58t-16.5 -29.5q-18 0 -56.5 -1t-58.5 -1q-104 0 -295.5 -3t-236.5 -4q0 -71 -1 -209.5 t-1 -207.5q0 -105 2 -183v-22q0 -20 4 -30q2 -6 4 -11q2 -7 -9 -15t-28.5 -14t-35 -9.5t-31 -2.5t-15.5 8q-9 55 -9 161.5t-1 117.5l10 413q-89 -2 -189 -3t-220.5 -1.5t-186.5 -1.5q-20 0 -20 58.5z" />
<glyph unicode="," horiz-adv-x="370" d="M59 -242q84 96 121 242q22 106 4 160q-15 0 -43 14q-35 20 -44 53t12 64q43 61 124 4q48 -37 68 -109q28 -82 -2 -213q-15 -73 -54 -152t-93 -143q-12 -14 -58.5 25.5t-34.5 54.5z" />
<glyph unicode="-" horiz-adv-x="1720" d="M66.5 1007.5q4.5 28.5 15.5 28.5q616 0 1225 6q128 -5 321 13q11 2 18 -27t5 -59t-13 -31q-173 -16 -331 -10q-174 -2 -587 -2.5t-634 -3.5q-13 0 -18.5 28.5t-1 57z" />
<glyph unicode="." horiz-adv-x="274" d="M53 143q-7 12 16.5 33.5t52.5 33t36 -0.5q11 -23 26.5 -55t24.5 -50.5t10 -21.5q8 -9 -12.5 -32.5t-47 -39t-34.5 -6.5q-11 16 -36.5 66t-35.5 73z" />
<glyph unicode="/" horiz-adv-x="1216" d="M39 -498q65 208 183 592.5t159 515.5l383 1278q290 988 295 1006q7 10 34.5 8t57 -15t25.5 -26q-55 -197 -162 -559.5t-133 -450.5l-383 -1278q-54 -173 -166.5 -544t-173.5 -566q-8 -19 -65.5 0t-53.5 39z" />
<glyph unicode="0" horiz-adv-x="1839" d="M103 417q-4 105 15.5 209.5t61.5 215.5q91 241 273 522q235 362 542 711q-219 42 -520 -31q-7 -2 -14.5 9t-12.5 27.5t-8 33.5t-1 30t10 15q115 27 219 38.5t180.5 12t150 -13t119.5 -27t97 -39.5t74.5 -41t60.5 -41q97 -69 171 -146t136 -182t93 -243t26 -303 q-25 -614 -543 -1004q-107 -80 -228.5 -134.5t-248.5 -78.5t-253 0.5t-224 101.5q-84 67 -128 160t-48 198zM223.5 391.5q12.5 -109.5 67.5 -182.5q39 -50 100 -85.5t147 -50.5t182.5 -4t213.5 61t233 138q225 168 355 397.5t139 518.5q4 150 -26 274t-88.5 217 t-122.5 158.5t-150 126.5q-56 43 -160 82q-332 -363 -577 -742q-184 -294 -254 -501q-37 -101 -54.5 -199.5t-5 -208z" />
<glyph unicode="1" horiz-adv-x="557" d="M39 1704q175 218 348 545q6 11 34.5 0.5t53.5 -30t21 -30.5q-12 -23 -25 -45.5t-17 -28t-9 -19.5t-7.5 -26.5t-7.5 -41.5q-33 -172 -24 -861q2 -85 10.5 -269.5t21.5 -452t21 -465.5q0 -12 -30.5 -18t-60.5 -2t-30 17q-8 216 -29.5 648.5t-23.5 541.5q-3 458 6 680 q-40 -58 -154 -219q-12 -13 -59.5 24t-38.5 52z" />
<glyph unicode="2" horiz-adv-x="2027" d="M53 340q-1 82 22.5 151.5t63.5 118t93 84.5t108.5 55t112.5 25q44 4 91.5 -2.5t84 -16.5t91 -34.5t84 -39t93.5 -49t90 -48.5q483 469 596 868q28 104 30.5 189t-24.5 159.5t-98 126.5t-184 76q-81 16 -172 15.5t-174 -12t-177 -35.5t-169 -49t-162 -58q-11 -6 -28.5 20 t-24 51.5t2.5 34.5q84 30 147 50t147.5 44.5t157 38t153 23.5t159.5 7.5t154 -15.5q119 -23 205.5 -75t140.5 -138t61 -205t-34 -275q-50 -185 -197 -414t-405 -487q299 -149 507 -209q203 -59 362 -79t388 -27q13 0 17 -28.5t-2 -57.5t-17 -29q-231 9 -401.5 31t-382.5 82 q-226 64 -559 231q-109 -102 -205 -176.5t-154.5 -111t-114 -59t-74.5 -26t-46 -6.5q-164 -29 -260 40t-97 241zM170 354q-1 -111 54 -154t157 -30q67 10 129.5 36t130.5 75.5t118.5 93.5t135.5 123q-13 7 -57.5 32t-62 34.5t-56.5 29.5t-63 28t-57.5 18.5t-63.5 13.5t-60 1 q-114 -8 -208 -89.5t-97 -211.5z" />
<glyph unicode="3" horiz-adv-x="1949" d="M59 266q-9 8 8.5 32t42.5 41t33 9q65 -73 176.5 -110t236.5 -37.5t262 21.5t257.5 60t218.5 85q431 215 351 446q-18 54 -58.5 97.5t-93 71.5t-116.5 48t-130 27t-133 9t-125 -7q-171 -108 -323 -154q-34 -11 -68 -11t-60.5 12.5t-30.5 41.5t23 78q29 45 179 89t245 54 q156 94 279 197q44 36 95 84.5t109 113t89.5 128.5t17.5 106q-13 38 -59.5 67.5t-85.5 39.5q-72 20 -168.5 24.5t-214.5 -7t-258 -51t-277 -102.5q-7 -11 -35 1.5t-50 33.5t-15 31q157 80 310 130.5t283.5 67t239 13t201.5 -26.5q78 -19 137.5 -61t79.5 -80q24 -47 25.5 -99 t-12 -97t-47 -98t-63.5 -90t-78.5 -84.5t-75.5 -71.5t-70 -60q-21 -16 -65.5 -48.5t-65.5 -49.5q104 -5 197.5 -28t184.5 -76t146 -130q57 -78 67.5 -159.5t-18.5 -152.5t-90.5 -139.5t-140.5 -124.5t-176 -104q-117 -58 -250 -101t-280.5 -65t-283.5 -16.5t-262.5 51.5 t-214.5 131z" />
<glyph unicode="4" horiz-adv-x="1814" d="M65 915.5q0 10.5 3 41t11.5 64.5t25.5 93t42 137q43 132 147 417t152 439q7 9 33.5 3.5t54.5 -22t23 -28.5q-49 -153 -152.5 -438t-146.5 -416q-5 -17 -18 -55.5t-22 -67t-19.5 -66.5t-13 -64t-0.5 -49t16 -32.5t39 -3.5q98 22 189 44.5t164 43t121 34.5t100 30t60 18 q4 114 20 561t28 711q1 13 30 13.5t57.5 -9t28.5 -20.5q-17 -322 -49 -1223q375 107 742 154q13 2 24.5 -28t12 -57t-10.5 -32q-383 -54 -774 -164q-18 -568 -37 -983q-1 -13 -30 -14t-58 8t-29 22q30 557 43 934q-1 0 -64 -19t-162 -47.5t-171 -47.5q-150 -38 -220 -42 q-173 -11 -185 93q-1 10 -3 33.5t-2 34z" />
<glyph unicode="5" horiz-adv-x="1888" d="M70 170q-9 8 6 34t38.5 46t32.5 12l10 -9q10 -9 28.5 -22.5t46 -30.5t67 -33.5t86 -31t108 -22t129 -8t153 11.5t175.5 37q108 29 223.5 92t208.5 146.5t126 175.5t-23 180q-16 23 -41 46.5t-72 50t-101 40t-130.5 5.5t-157.5 -44q-71 -32 -188 -121t-144 -107 q-87 -62 -141 -40t-96 149q-31 92 -58.5 204.5t-42.5 189.5t-39 210q-11 67 -55 283t-59 336q-4 30 -5 54t2.5 51t12 46t25.5 36t42 24.5t63 7.5t87 -10q141 -32 298.5 -89.5t334 -130t291.5 -110.5q9 -7 6 -33t-17.5 -53.5t-27.5 -22.5q-107 36 -285.5 113t-333.5 132.5 t-297 78.5q-6 1 -17 3q-55 8 -63 2q-8 -8 -2 -53q3 -22 5 -36q17 -117 58 -332t52 -278q71 -377 139 -586q3 -11 6.5 -20t6 -15.5t6 -10t5.5 -7t6 -3t5 -0.5t6 2t6 4t7 5.5t8 5.5q37 24 103 73.5t122.5 87.5t112.5 64q185 79 324.5 61.5t265.5 -126.5q81 -68 109 -150 t6 -163t-80.5 -162.5t-145.5 -150.5t-195.5 -125.5t-224.5 -88.5q-94 -27 -205 -39.5t-238 -7t-253.5 49t-220.5 122.5z" />
<glyph unicode="6" horiz-adv-x="1445" d="M59 780q46 39 127 84q36 152 108 330t168.5 360t174.5 316.5t176 292.5q34 56 100 156.5t86 131.5q6 9 31 -4t45 -33t12 -28q-30 -48 -92.5 -141.5t-93.5 -141.5q-435 -694 -584 -1179q97 40 190.5 62t162.5 28t139 -2t109 -17t85 -28.5t55 -25t29 -17.5 q88 -56 141.5 -123.5t72 -151.5t-15.5 -187t-122 -216q-83 -107 -174 -179.5t-175.5 -105t-167 -39.5t-154 13t-131 56t-103.5 87q-34 40 -58.5 88t-38.5 91.5t-21 95.5t-8.5 89.5t1 86t5.5 72t8.5 60t5.5 39.5l-17 -16q-15 -9 -53 37.5t-23 58.5zM247 444q2 -88 29 -165 t80 -136q39 -42 95 -69.5t130.5 -33t153 17t168.5 90t172 176.5q251 330 -59 507q-86 50 -177.5 68.5t-186 5t-182 -43t-187.5 -79.5q-20 -93 -29 -171.5t-7 -166.5z" />
<glyph unicode="7" horiz-adv-x="1583" d="M81.5 1998.5q0.5 28.5 12.5 29.5q494 56 834 75q58 5 106 8t84.5 6t70 3.5t53.5 2t44 0t33.5 -1t29 -2.5t23 -3.5t25 -4t24.5 -4.5q55 -11 89 -31t49 -44t11.5 -58.5t-16.5 -67t-41.5 -77t-56.5 -82t-70 -88.5q-57 -69 -179 -214.5t-193.5 -232t-171.5 -212.5t-180 -234 q-112 -148 -242 -348t-184 -326q33 -47 20 -55q-10 -3 -37.5 -21.5t-44.5 -15.5q-16 4 -27.5 9.5t-19 10.5t-11.5 14.5t-6 14.5t-0.5 17.5t2 16t4 19t3.5 17.5q27 63 63 131.5t64 116.5t80.5 126t75 110t87.5 122t80 111q146 204 295 390t243 292.5t179.5 208.5t128.5 169 q18 26 23.5 40t0 30t-38.5 24.5t-95 12.5q-139 10 -371 -8q-384 -22 -825 -82q-11 0 -19.5 28.5t-8 57z" />
<glyph unicode="8" horiz-adv-x="2091" d="M208 420.5q-22 76.5 2 145t85.5 138.5t141.5 128t181 114q119 63 289 131q-126 41 -216.5 82.5t-160.5 106.5q-186 158 -108 368q41 107 152.5 212t244 176t250.5 96q302 63 438 -58q60 -53 77.5 -143t-3 -187.5t-60 -191t-91.5 -166.5q-115 -165 -213 -258 q186 -53 302 -106t244 -162q83 -71 138.5 -163.5t71.5 -199t-36 -204.5q-34 -63 -90.5 -113.5t-124 -82t-147.5 -53.5t-161.5 -30t-166 -10t-160.5 6q-194 14 -428.5 90t-351.5 186q-77 72 -99 148.5zM354 594q-132 -227 289 -375q502 -179 885 -78q125 33 204.5 88.5 t106.5 119.5t17.5 135.5t-53.5 140t-115 129.5q-67 57 -130.5 97.5t-146.5 73t-139.5 50t-177.5 51.5q-264 -101 -418 -184q-6 -3 -39 -21.5t-42 -23.5t-38.5 -22t-41 -25.5t-36 -25t-37.5 -29t-31 -30t-31.5 -35t-25.5 -36.5zM520.5 1502q9.5 -79 91.5 -148 q20 -18 42.5 -34.5t49.5 -31t47.5 -25.5t54 -23.5t51 -19.5t57 -18.5t52.5 -15t56.5 -15.5t52.5 -14q75 55 129.5 116t128.5 169q33 48 62.5 108t50.5 128.5t27 129.5t-13.5 112t-66.5 75q-58 29 -131 32t-144.5 -15t-148 -51.5t-140 -72t-120.5 -82.5q-99 -77 -148.5 -151 t-40 -153z" />
<glyph unicode="9" horiz-adv-x="1519" d="M66 1626q-15 125 37.5 247t148.5 204q57 49 142.5 92t150.5 59q192 52 391 27.5t379 -119.5l28 49q11 12 36.5 2.5t49.5 -32.5t19 -37q-2 -8 -27 -54l49 -39q7 -9 -13.5 -28t-47.5 -31.5t-37 -5.5q-12 -28 -49 -110.5t-57 -129.5q-355 -779 -523 -1130 q-163 -342 -225 -496q-6 -14 -20 -46.5t-19 -45t-13 -37t-11.5 -47t-5.5 -49.5q-1 -33 -48 -14q-41 16 -61 45q-7 10 -6 18q17 84 80 225q94 219 229 496q198 415 498 1094q-113 -129 -254 -232.5t-293 -161.5q-100 -27 -140 -29q-29 -2 -67 1q-157 16 -250 131 q-25 32 -45.5 87t-25.5 97zM184 1626q15 -113 111.5 -166t267.5 -6q151 59 278 160.5t261 249.5q23 29 71.5 88.5t71.5 89.5q-63 37 -141 61q-130 42 -269 46.5t-272 -31.5q-132 -39 -225.5 -120.5t-131.5 -179t-22 -192.5z" />
<glyph unicode=":" horiz-adv-x="747" d="M119 143q-7 12 16.5 33.5t52 33t35.5 -0.5q11 -24 26.5 -55.5t25 -50.5l10.5 -21q8 -9 -13 -32.5t-47.5 -39t-34.5 -6.5q-11 16 -36 65.5t-35 73.5zM119 1235q-7 11 16.5 31.5t52 32.5t35.5 1q12 -26 27 -56.5t24.5 -49t10.5 -20.5q12 -15 -35.5 -54.5t-59.5 -25.5 q-11 18 -36 68t-35 73z" />
<glyph unicode=";" horiz-adv-x="747" d="M119 1239q-7 11 16.5 32t52 33t35.5 1q11 -25 26.5 -56.5t25 -50.5t10.5 -22q8 -9 -13 -32t-47.5 -39t-34.5 -7q-12 17 -37 67t-34 74zM141 -242q84 96 121 242q22 106 4 160q-15 0 -43 14q-35 20 -44 53t11 64q43 62 125 4q48 -37 68 -109q28 -82 -2 -213 q-34 -159 -148 -295q-12 -14 -58 25.5t-34 54.5z" />
<glyph unicode="&#x3c;" horiz-adv-x="1716" d="M73 970.5q-2 22.5 5.5 38.5t29 32.5t41.5 26.5t52 24q46 20 97 44.5t114 55.5t96 47q283 140 616 281q52 24 215 92.5t250 111.5q11 6 28 -20t23.5 -51.5t-2.5 -34.5q-68 -35 -147 -69t-175.5 -73.5t-148.5 -62.5q-311 -129 -610 -278q-180 -96 -324 -162 q74 -38 297 -137q586 -257 1102 -453q9 -9 3.5 -35.5t-22 -53.5t-28.5 -22q-694 282 -1106 455q-37 21 -180 81.5t-207 113.5q-17 26 -19 48.5z" />
<glyph unicode="=" horiz-adv-x="1724" d="M66.5 708.5q4.5 28.5 15.5 28.5q7 0 1225 6q131 -2 321 15q11 1 18 -28t5 -59t-13 -32q-147 -13 -331 -10q-135 -1 -384 -1t-453 -1t-384 -4q-13 0 -18.5 28.5t-1 57zM66.5 1321q4.5 29 15.5 29q7 0 1225 6q140 -3 321 14q11 1 18 -28t5 -59t-13 -32q-147 -13 -331 -10 q-135 -1 -384 -1t-453 -1t-384 -4q-13 0 -18.5 28.5t-1 57.5z" />
<glyph unicode="&#x3e;" horiz-adv-x="1714" d="M75.5 324.5q-6.5 25.5 2.5 35.5q69 34 148 68t175 73t150 62q328 139 608 283q14 7 141.5 70.5t184.5 87.5q-149 76 -299 139q-593 259 -1104 452q-15 8 8.5 62.5t40.5 50.5q789 -323 1104 -459q46 -23 126.5 -54.5t146 -63t114.5 -72.5q21 -33 22.5 -59t-18.5 -46.5 t-43.5 -34t-64.5 -30.5q-61 -27 -173.5 -81.5t-138.5 -66.5q-213 -112 -616 -282q-30 -14 -202 -87t-261 -120q-11 -5 -28 21t-23.5 51.5z" />
<glyph unicode="?" horiz-adv-x="1615" d="M49 1569q67 152 203 358q124 193 326 361q154 136 383 209q166 47 354 4q82 -29 133.5 -69t91.5 -112q21 -50 21 -101t-13.5 -94t-40.5 -97q-32 -53 -84.5 -109.5t-83.5 -83.5t-104 -88q-226 -176 -371 -326q-168 -168 -291 -417q-39 -79 -86 -228q-6 -17 -63 1.5 t-53 37.5q52 158 92 240q139 278 313 452q164 167 381 334q170 139 242 244q59 105 33 180q-41 81 -144 115q-147 37 -293 0q-199 -66 -340 -185q-181 -154 -301 -333q-125 -196 -190 -342q-9 -9 -36.5 -3t-55.5 23t-23 29zM305 170q0 20 61 26.5t64 -12.5l8 -157 q2 -13 -27.5 -21.5t-60.5 -7t-33 13.5q-3 26 -6 79t-6 79z" />
<glyph unicode="@" horiz-adv-x="2748" d="M192.5 641q-30.5 189 2.5 369.5t114.5 349.5t202.5 305q221 246 505 386t572 161q185 8 347 -35t285 -129t211 -208t134 -271q62 -232 20 -444.5t-156.5 -376t-266.5 -236.5q-106 -49 -206 -58.5t-170 11.5t-116 63q-48 41 -74 95t-30 137q-89 -116 -181.5 -195 t-177 -114t-161 -28.5t-134.5 56.5q-55 50 -75.5 127t-13 152.5t33.5 154.5q63 181 194.5 296.5t329.5 189.5q121 42 278 63t245 13q12 -2 14.5 -33t-5 -60.5t-20.5 -27.5q-14 1 -29.5 1t-34.5 -0.5t-28 -0.5q3 -59 -21.5 -150.5t-54.5 -161.5q-33 -150 -38 -235 q-8 -130 61 -189q45 -35 112 -42t129 6.5t119 40.5q128 63 225.5 206.5t131.5 326.5t-19 380q-84 269 -307.5 420t-544.5 131q-261 -18 -523 -146t-470 -358q-109 -124 -182.5 -277t-104 -314.5t-4 -328.5t114.5 -307q51 -79 125 -148t176.5 -129.5t227 -97.5t277 -52.5 t324.5 5.5q119 13 257.5 62.5t273 122.5t249.5 146.5t226 156.5q9 8 31 -13.5t36 -49t5 -35.5q-118 -88 -239.5 -166t-262.5 -153.5t-287.5 -126t-275.5 -64.5q-145 -19 -276 -12t-242 28t-209.5 60t-177 84t-145 100t-114 108t-83.5 109q-99 161 -129.5 350zM948.5 767 q-7.5 -52 2.5 -109.5t44 -88.5q34 -25 75.5 -27.5t84.5 16t85.5 47t84 68t75.5 76.5t64 76q34 44 75.5 115t70.5 141q33 142 94 262q-121 -15 -171.5 -25.5t-111.5 -33.5q-168 -63 -281 -160.5t-167 -249.5q-17 -55 -24.5 -107z" />
<glyph unicode="A" d="M39 43q362 399 608 686.5t506 626.5q141 181 326 434q38 51 135 189t161.5 222t98.5 109q29 20 54 20q30 0 54 -30q12 -11 20.5 -26t13.5 -27.5t8 -34.5t4 -32t2.5 -35t1.5 -31q11 -167 61 -546.5t119 -752.5q3 -17 19 -107.5t28 -152t29 -148.5t34 -155.5t33 -114.5 q1 -2 1 -4q0 -9 -22 -25q-26 -18 -52.5 -26.5t-36.5 0.5q-15 43 -32 110.5t-30 126.5t-30.5 150.5t-26 137t-24.5 134t-17 95.5q-625 -29 -1288 -105q-287 -335 -639 -721q-2 -8 -16 -10h-8q-10 0 -22 2q-18 4 -35.5 10t-28.5 14.5t-9 16.5zM905 862q594 65 1159 92 q-58 322 -94 619q-19 163 -35.5 315.5t-22.5 223.5l-7 71q-277 -377 -490 -665q-310 -414 -510 -656z" />
<glyph unicode="B" horiz-adv-x="2347" d="M71 114q4 28 19.5 56t28.5 23q35 -4 148 -18.5t175 -20.5q1 37 1 89q0 263 -17 920q-8 475 -27 971q-90 -35 -149 -63q-13 -1 -20.5 29t-5 60.5t15.5 30.5q0 3 74.5 34.5t78.5 31.5q-2 27 -5 81t-5 81q-2 8 9 16.5t28.5 14.5t35.5 10q13 3 23 3q3 -1 7 -1q14 -2 16 -8 q2 -45 10 -154q72 25 144.5 46t110 30t88.5 20.5t52 11.5q85 17 166 26.5t137 13.5q43 3 88 2h26q59 -1 86.5 -3.5t67 -7t42.5 -4.5q80 -8 169 -30t181.5 -58t171 -92.5t117.5 -124.5q41 -67 41 -140q0 -98 -74 -208q-61 -92 -159.5 -167.5t-221 -129t-231.5 -88.5t-240 -66 q266 -20 468 -93.5t372 -209.5q168 -133 168 -299q0 -14 -1 -29q-11 -95 -73 -181.5t-157.5 -152t-219.5 -121.5t-256.5 -95t-270.5 -67t-260.5 -42.5t-228.5 -17.5q-30 -1 -60 -1q-307 0 -679 56q-6 6 -6 21q0 7 1 15zM518 2179q19 -555 23 -858q74 1 231.5 27t259.5 49 q279 56 482 123t380 188q59 39 106.5 97t69.5 126q9 28 9 54q0 38 -19 73q-29 56 -98.5 104t-155 79t-168 50t-153.5 25q-95 10 -157 12q-14 1 -29 0q-59 0 -151 -7q-118 -9 -251 -37q-182 -33 -379 -105zM545 1200q16 -757 16 -1053q116 -3 204 -4q101 0 167 5 q232 14 489 77q68 17 137 38.5t156 54t161 73.5t139.5 89.5t106 109.5t46.5 127v11q0 52 -34 103q-38 57 -95 103q-297 240 -744 274q-156 7 -318 7q-57 -1 -115 -1q-223 -4 -316 -14z" />
<glyph unicode="C" horiz-adv-x="1748" d="M59 1038q3 572 275 1033q110 188 280 251q81 30 173 30q100 0 212 -36q404 -125 574 -313q2 -3 2 -7q0 -16 -37 -48q-35 -29 -50 -29q-6 0 -9 4q-19 21 -42.5 41t-44.5 36t-53 34.5t-52.5 30.5t-58.5 29t-56 25.5t-60.5 25t-56 21.5t-58.5 22t-53 20q-79 24 -147 24h-25 q-78 -6 -144 -40t-109 -74t-66 -80q-123 -220 -196.5 -473.5t-80.5 -499.5q-1 -34 -1 -66q0 -65 3 -123q4 -87 16 -188t38.5 -184.5t66.5 -161.5t103 -137.5t145 -95.5q51 -22 113 -34.5t120 -16.5q23 -2 48 -1q38 0 83 3q74 6 130.5 13.5t138.5 26t132 31.5t133 38.5 t121.5 38t116.5 38.5q13 0 17 -31q2 -14 3 -28q1 -17 -3 -33q-6 -30 -19 -29q-97 -32 -163 -53t-171 -50t-184 -44.5t-179 -28.5q-87 -11 -160 -11h-22q-81 2 -166.5 18.5t-156.5 49.5q-90 43 -160 108.5t-115.5 147.5t-76 171t-45 195t-20.5 202q-4 70 -4 149q0 29 1 59z " />
<glyph unicode="D" horiz-adv-x="2621" d="M82 2257q10 26 32 53.5t29 28.5q42 13 112.5 25t199.5 25q124 13 270 13h11q152 0 358 -14q101 -7 194.5 -19t172 -28.5t144 -32t126.5 -37.5t102 -37t87 -38t66.5 -33.5t55.5 -31t39 -22.5q101 -56 184 -128t132 -135t85.5 -130t51 -109t22.5 -77q22 -109 22 -207 q0 -105 -26 -197q-50 -178 -219 -350q-360 -368 -936 -602q-72 -29 -151.5 -57t-138 -46.5t-134 -40.5t-109 -31t-96 -25.5t-63.5 -16.5q-13 2 -15 33t6 60.5t19 27.5q26 8 33 10q2 254 4 436.5t3 250.5t2 124t1 105q-3 320 -11.5 549.5t-35.5 727.5q-162 -8 -248 -14 q-86 -8 -161 -19t-103.5 -18t-64.5 -11t-42 3q-14 6 -14 20q0 6 4 15zM829 2281q28 -513 36 -720.5t9 -528.5q0 -79 -0.5 -155.5t-2 -279.5t-3.5 -476q309 84 525 178q323 131 505 249t318 261q28 29 53.5 59.5t55.5 73.5t53.5 87.5t43.5 98.5q20 56 30 110q9 50 9 106v12 q-1 64 -16 125q-13 51 -25.5 88.5t-44.5 99.5t-74.5 112.5t-117.5 112.5t-172 115q-229 127 -512 196.5t-670 75.5z" />
<glyph unicode="E" horiz-adv-x="1818" d="M64 911v10q0 26 7 52q8 31 21 31q8 1 22.5 4t22.5 4q28 144 113 424q150 464 301 831q-71 -8 -212 -22.5t-212 -22.5q-12 1 -13 32t8 61t21 28q76 8 228.5 24.5t228.5 24.5l68 158q0 13 31 16q9 1 19 1q22 0 42 -5q30 -7 31 -18l-60 -140q359 36 934 82q95 7 143 10.5 t62 5t64 5.5t134 10q10 -6 10 -31q0 -30 -12 -62q-10 -30 -22 -28q-120 -7 -402 -31q-794 -67 -964 -84q-166 -416 -307 -845q-84 -283 -109 -400q950 194 1294 262q15 -2 15 -37q1 -11 -1 -27q-6 -60 -26 -60q-194 -37 -407.5 -80t-487 -99.5t-407.5 -83.5 q-13 -91 -13 -171q0 -44 4 -85q2 -42 17 -118q16 -70 33 -105q26 -58 63.5 -103t76 -73t96.5 -52t102.5 -37t115.5 -30q119 -16 242 -19q27 -1 55 -1q98 1 205 9q137 10 233 21.5t252 32.5q12 -2 13 -33t-8 -60.5t-21 -27.5q-206 -29 -346 -43q-138 -14 -326 -14q-4 0 -8 -1 q-183 0 -340 26q-15 4 -64.5 14.5t-76.5 19.5q-165 56 -268 162.5t-148 272.5q-1 6 -9.5 54.5t-10.5 76.5q-3 39 -3 82q0 84 11 180l-41 -10q-12 1 -14 32z" />
<glyph unicode="F" horiz-adv-x="1638" d="M66 2142q2 18 5 36q3 16 9 28q6 10 12 10h2q196 5 415 5q454 0 1009 -21q573 -27 895 -27q7 -1 10 -15q2 -10 2 -23v-9q-1 -18 -5 -35t-10.5 -28t-13.5 -9q-224 0 -901 27q-622 20 -1025 20h-71q29 -357 70 -1147q696 37 1018 52q13 -3 15 -34t-6 -60t-21 -27 q-491 -24 -1000 -54q0 -1 6 -98q17 -400 43 -694q2 -10 -15 -19.5t-39 -15.5q-20 -5 -38 -5q-2 1 -4 1q-20 0 -22 10q-30 390 -41 699q-2 20 -4.5 58.5t-4.5 57.5q-35 0 -51 -2q-8 2 -12 15.5t-3.5 31.5t3.5 35.5t9.5 29t14.5 9.5q7 0 17.5 1t15.5 1q-20 427 -67 1155 q-33 0 -101 -2t-104 -2q-6 1 -10 15q-2 9 -3 20q1 5 1 10z" />
<glyph unicode="G" horiz-adv-x="2168" d="M90 896q6 273 86 534q181 576 551 835q83 59 159 91q73 30 153 30h5q172 -8 338 -129q194 -133 338 -275q9 -8 -8.5 -33t-43 -43t-34.5 -10q-137 132 -327 267q-153 104 -283 104h-12q-47 -1 -97.5 -21.5t-81 -40.5t-83.5 -59q-153 -119 -265 -307.5t-184 -408.5 q-53 -161 -77 -330q-16 -118 -16 -241q0 -55 4 -111q10 -183 60 -349q56 -185 177 -295q11 -13 49 -38q59 -42 130 -56q51 -10 96 -10q16 0 30 1q57 5 141 22q135 32 262.5 100.5t274.5 171.5q232 164 419 354q144 133 144 246q0 26 -19 45q-38 32 -129 32q-53 0 -123 -11 q-56 -9 -113.5 -22t-143 -35.5t-113.5 -29.5q-16 2 -16 42q0 10 1 22q5 61 25 61q39 9 116.5 28.5t141 33t121.5 20.5q52 6 87 7q11 1 23 1q28 0 61 -3q49 -3 88.5 -21t68.5 -49q41 -44 47 -103q1 -8 1 -17q0 -69 -37 -133q-41 -72 -112 -151q-214 -239 -518 -436 q-169 -111 -299 -178t-272 -96q-102 -19 -169 -22h-17q-60 0 -127 18q-78 21 -152 73q-4 4 -25.5 22t-30.5 27q-130 117 -200 330q-71 252 -71 503q0 22 1 43z" />
<glyph unicode="H" horiz-adv-x="1802" d="M61 1704q-2 150 -2 250t2 149q0 32 2.5 94.5t2.5 92.5q-4 18 53 38q30 10 47 11q14 0 18 -8q1 -28 1 -57q0 -68 -5 -144q-1 -43 -1 -101q0 -117 5 -296q3 -252 23 -478q13 -219 22 -321q273 10 488 10q240 3 545 23q126 7 299 55q-2 31 -4.5 95t-4.5 95q-9 244 -28 662 q-3 81 -8.5 256t-8.5 268q-3 20 55 36q27 7 42 7q18 0 22 -10q12 -344 16 -524q5 -134 29 -662q2 -52 12 -296.5t17 -375.5q5 -93 15.5 -281.5t15.5 -281.5q2 -55 2 -71q1 -2 1 -4q0 -11 -24 -23q-28 -14 -57 -16h-9q-20 0 -28 10q0 44 -4 71q-5 93 -14.5 282t-14.5 282 q-15 304 -16 360q-182 -47 -318 -55q-260 -20 -551 -23q-208 0 -458 -10q0 -23 2 -37q8 -73 37 -420q9 -92 22 -301q3 -8 -7.5 -16.5t-27 -15t-34 -10.5t-31 -2.5t-15.5 9.5q-5 51 -13 152t-13 150q-4 63 -9.5 131.5t-13.5 157.5t-12 132q-24 274 -37 480q-9 118 -27 481z " />
<glyph unicode="I" horiz-adv-x="2031" d="M56 -60q-1 5 -1 11q0 9 2 19q3 18 8 35.5t12.5 28.5t14.5 9q173 6 488.5 20t431.5 19q-2 39 -2 115q-2 81 -17 573q-6 217 -22 629q-27 495 -31 540q-1 38 -6 114t-6 114q-58 -15 -88 -17q-100 -21 -293 -53q-15 -3 -58.5 -11t-64.5 -12.5t-55 -12.5t-62 -17 q-42 -10 -110 -39q-13 -1 -21 29t-6 60.5t14 31.5q58 23 131 43q21 5 246 49q47 10 145.5 26.5t145.5 26.5q93 15 289 56q108 26 248 53q73 18 147 33q13 -2 15.5 -33t-4.5 -61t-19 -29q-26 -4 -77 -16.5t-75 -16.5q-41 -8 -125 -25.5t-125 -25.5q-14 -3 -42 -8.5t-40 -8.5 q2 -36 7.5 -108.5t7.5 -108.5q7 -103 16 -291.5t12 -248.5q22 -466 27 -633q12 -554 12 -574q4 -45 4 -137l105 6l737 31q7 -1 9 -15q1 -6 1 -12q0 -8 -2 -18q-2 -18 -6.5 -35.5t-12 -29t-15.5 -9.5q-127 -5 -372 -16.5t-362 -16.5q-913 -43 -1146 -49q-8 2 -10 16z" />
<glyph unicode="J" horiz-adv-x="1861" d="M59 340q-3 3 -3 8q0 10 11 27q17 26 41.5 45.5t32.5 11.5q155 -121 232 -158q284 -134 555 -153q32 -2 70 -2q25 0 53 1q69 2 123 15q116 26 180 107q39 55 61.5 134t28 127.5t12.5 149.5q1 17 2 25v57q0 313 -49 690q-20 139 -131 840q-3 0 -3 1t3 1q-120 -28 -371 -88 q-225 -62 -426 -108q-20 0 -20 62t20 62q63 13 133.5 30.5t157.5 40.5t133 34q184 50 525 125q141 33 356 61q13 -1 16 -32q2 -10 2 -21q0 -19 -4 -39q-7 -30 -20 -29q-126 -17 -350 -61q-5 -2 -17 -5t-16 -5q4 -29 57 -362t70 -470q55 -378 55 -762q-5 -73 -6.5 -100 t-9.5 -92.5t-17.5 -103t-27.5 -88t-43 -91.5l-50 -67q-7 -6 -26 -23.5t-23 -21t-18.5 -15.5t-21.5 -16t-22.5 -13.5t-31 -17t-37.5 -18.5q-61 -28 -174 -32q-41 -1 -76 -1q-62 0 -106 4q-283 24 -584 170q-14 6 -28 13.5t-25 14t-26 16t-24.5 15.5t-25.5 17.5t-23 16.5 t-24.5 18.5t-22.5 17.5t-24 19t-23 18z" />
<glyph unicode="K" horiz-adv-x="1339" d="M61 10q14 173 17 371q0 85 2 255t2 255q3 140 3 281t-3 282q0 365 -4 549q-6 415 -6 416q-2 8 9 16.5t28 14.5t35 9.5t31 1.5t15 -10q1 -37 4 -187t3 -232q2 -82 3 -173t1.5 -202t1.5 -172q2 -83 2 -176.5t-1 -208t-1 -176.5q26 48 88 118q31 30 147 160q97 102 185 203 q44 52 123 142.5t102 117.5q159 182 254 297q104 130 229 303q77 104 127 189q0 14 31 16q8 1 15 0q22 0 46 -6q30 -8 29 -19q-27 -58 -127 -204q-147 -202 -233 -304q-68 -88 -248 -303q-25 -29 -106.5 -120t-123.5 -142q-26 -30 -57 -64.5t-68.5 -76t-58.5 -64.5 q-24 -27 -73.5 -80.5t-73.5 -80.5q-49 -46 -99 -117q-15 -28 -15 -55q0 -15 5 -31q9 -17 21 -33t28.5 -33.5t26.5 -27.5t32 -30.5t29 -27.5q155 -128 316 -237q181 -131 344 -260q9 -8 -7 -35t-39 -47.5t-32 -12.5q-185 144 -342 256q-186 131 -322 248q-40 36 -58.5 53 t-48.5 51t-48 66q0 -214 -4 -323q0 -106 -13 -377q1 -11 -30 -21q-31 -12 -59 -12h-3q-25 0 -31 10z" />
<glyph unicode="L" horiz-adv-x="1536" d="M44 61.5q0 25.5 1 42.5q39 172 53 283q27 228 53.5 500t42 459.5t41 508t37.5 467.5q-2 13 28 25t58 13h4q24 0 31 -11q-8 -113 -27 -407.5t-27 -407t-27 -346.5t-35 -374t-41.5 -330t-55.5 -365q92 4 286 11.5t285 13.5t234.5 17t261.5 28.5t240 43.5q15 -2 15 -39 q0 -10 -1 -24q-6 -59 -25 -59h-1q-166 -31 -341 -51t-290.5 -27t-358.5 -18.5t-387 -20.5h-4q-22 0 -36 20q-14 22 -14 47.5z" />
<glyph unicode="M" horiz-adv-x="2084" d="M39 37q73 236 135 422q25 74 72 221t71 221q27 74 132 383q26 76 112 344l88 277q33 97 76 209q21 64 51 110q14 23 29 36t24 13q19 8 27 4q31 -8 41.5 -25t15.5 -52q6 -41 15 -168q4 -36 7 -77t6 -91.5t5 -77.5q15 -162 17 -268q13 -143 16 -263q8 -151 10 -233 q2 -32 6 -122.5t9 -139.5q17 32 47.5 95.5t67 142t48.5 104.5q22 50 66 151.5t67 151.5q107 255 125 299q15 35 105 256q63 158 86 209q49 113 72 158q16 29 31 48t34 31q13 8 28 8q7 0 13 -2q22 -5 45 -26q5 -7 9.5 -16l7.5 -15t6.5 -18t4.5 -17t3.5 -20t3 -17.5t2.5 -19.5 t2 -18q6 -55 16 -252q3 -142 13 -322q7 -190 20 -344q3 -57 8 -174t9 -174q3 -53 9 -160t9 -160q5 -55 9.5 -155t6.5 -131q7 -72 15 -262l10 -236l8 -197q0 -12 2 -33t2 -32q1 -2 1 -3q0 -10 -25 -24q-29 -16 -57 -20q-10 -2 -18 -2q-14 0 -20 6q0 13 -1 36t-1 34 q-10 110 -10 200q-2 38 -5 115.5t-5 116.5q-9 130 -12 262l-21 284q-3 51 -8 159t-8 163q-3 64 -9.5 180.5t-9.5 167.5l-20 344q-2 55 -5 161t-5 161q-4 160 -17 258q-14 -23 -61 -138l-47 -114q-17 -43 -51 -128t-50 -128q-21 -49 -64 -149.5t-65 -149.5q-32 -78 -133 -307 q-118 -252 -131 -279q-5 -10 -19.5 -41t-22.5 -47t-22 -39.5t-28 -40.5q-12 -18 -59 -55q-18 -13 -37 -13q-13 -1 -25 5q-32 14 -43 45q-18 56 -22 153q-2 39 -7 201q-2 34 -7 112t-7 120q-3 131 -12 262q-3 44 -8.5 133t-8.5 133q-9 149 -13.5 193.5t-6.5 74.5 q-3 -10 -16.5 -47.5t-18.5 -56.5q-39 -108 -92 -277q-89 -277 -113 -344q-82 -254 -127 -385q-25 -73 -147 -440q-11 -35 -60.5 -186.5t-74.5 -233.5q2 -12 -28.5 -19t-61.5 -4.5t-31 15.5z" />
<glyph unicode="N" horiz-adv-x="1683" d="M61 2359q-5 17 49 37q31 12 49 12q12 0 17 -6h1q31 0 302 -458q40 -71 142 -255t159 -284q176 -322 252 -471q34 -61 201 -377q1 -2 14.5 -28.5t19 -37t20 -38t23 -42.5t23 -40t24.5 -40t22 -32.5t22.5 -29t19.5 -17.5q42 79 49 366q3 53 25 525q12 261 12 522 q0 3 -6 432q-3 45 -3 89t3 87q-3 15 38 29q32 10 52 10q13 0 21 -4q6 -3 6 -8v-174q8 -285 10 -434q0 -175 -12 -523q-3 -88 -11.5 -263t-11.5 -263q-18 -254 -30 -336q-8 -35 -17 -60t-24.5 -52t-41.5 -42.5t-61 -17.5q-75 7 -141 94q-70 104 -152 258q-161 316 -196 381 q-207 390 -252 471q-263 469 -301 533q-31 53 -93 156t-71 118l39 -323q50 -437 65 -606q46 -499 48 -525q13 -245 32 -456q11 -182 25 -295q5 -11 -23 -27q-27 -15 -55 -20q-10 -2 -18 -2q-13 0 -19 6q-9 60 -17.5 172t-10.5 131q-5 79 -16.5 229.5t-16.5 224.5 q-9 138 -45 525q-31 315 -64 606q-31 258 -76 573z" />
<glyph unicode="O" horiz-adv-x="2156" d="M66 1108q20 239 59 367q69 205 141 337q94 178 197 291q51 57 85 92t87 76.5t106 67.5q132 70 241 70q11 0 22 -1q132 -11 215 -65q5 -4 5 -11q0 -19 -34 -59q26 1 50 1q136 0 235 -33q160 -47 268 -144q130 -120 196 -239q93 -165 129 -314q31 -141 31 -285 q0 -34 -2 -69q-17 -233 -72 -397q-75 -217 -194 -344q-92 -95 -177 -165t-179 -120q-218 -121 -377 -148q-100 -17 -198 -17q-85 0 -169 13q-206 46 -321 123q-147 108 -220 258q-86 176 -108 340q-20 155 -20 277q0 52 4 98zM186 1126q-4 -47 -5 -100q0 -113 20 -252 q15 -140 94 -319q66 -132 192 -226q101 -64 289 -102q59 -8 124 -9q97 0 210 19q161 35 348 148q185 112 285 231.5t162 276.5q54 159 71 374q4 44 4 89q0 117 -26 245t-115 289q-70 122 -180 215q-96 86 -238 129q-83 21 -202 21q-45 0 -95 -3q-152 -3 -293 -75 q-73 -40 -163 -133h-2q-18 0 -36 53q-10 30 -9 46q0 15 8 17q39 35 63.5 55.5t60.5 45.5t72 41q145 56 267 69q-53 16 -125 23q-93 -5 -213 -76q-7 -4 -21 -13t-16 -10q-169 -119 -330 -397q-87 -165 -137 -323q-46 -139 -64 -349z" />
<glyph unicode="P" horiz-adv-x="1759" d="M59 2327q0 90 7 147q-2 8 9.5 15t29.5 10.5t36 4.5h8q13 0 23 -2q13 -4 14 -12q-1 -7 -2.5 -19t-2.5 -21.5t-1 -18.5q110 17 277 18q74 0 159 -4q193 -13 443 -69q183 -39 362 -148q143 -85 238 -250q43 -84 52 -156q3 -22 2 -46q0 -54 -13 -117q-23 -90 -77 -165 t-138 -155q-157 -139 -459 -286q-215 -105 -518 -179q-158 -35 -242 -49q1 -20 2.5 -57t2.5 -67.5t1 -57.5q1 -39 11 -262q6 -220 6 -221q0 -82 -4 -123q3 -15 -38 -29q-32 -10 -52 -10q-13 0 -21 4q-6 3 -6 8v121q0 36 -2 108t-2 109q-2 43 -5 130.5t-5 131.5 q-3 135 -13 312l-20 352q-5 60 -13.5 184t-13.5 187q-3 60 -11 181.5t-11 182.5q-13 225 -13 318zM176 2314q8 -180 14 -270q3 -61 11.5 -182t11.5 -181q5 -62 13.5 -185t13.5 -185q18 -356 18 -377q13 10 16 10q123 24 246 51q318 87 500 179q223 112 350 215 q163 137 209 262q15 56 15 105q0 15 -1 29q-6 61 -41 128q-75 137 -204 221q-164 94 -342 131q-220 51 -428 66q-39 1 -76 1q-195 0 -326 -18z" />
<glyph unicode="Q" horiz-adv-x="2168" d="M70 1130q39 238 120 404q105 229 226 377q175 204 358 317q89 60 172 94q13 7 52.5 22t50.5 15q15 3 27 3q17 0 26 -7q14 -12 3.5 -56t-30.5 -48q-45 -13 -76 -29l-49 -20q-65 -34 -157 -95q-41 -23 -56 -36h4q163 43 298 62q83 12 165 12q52 0 103 -5q24 -5 92 -14 q215 -46 377 -182q195 -189 268 -398q40 -130 53 -232q6 -44 6 -95q0 -65 -10 -142q-56 -277 -180 -454q-183 -254 -410 -381q-12 -8 -57 -33l98 -197q48 -98 111 -215q7 -11 -16 -31.5t-51 -33.5q-17 -8 -27 -8q-6 0 -9 4q-28 53 -114 219q-16 33 -51.5 103.5t-53.5 109.5 q-137 -58 -284 -82q-83 -9 -157 -9q-169 0 -292 46q-221 90 -342 241q-140 195 -176 359q-26 133 -26 250q0 87 14 165zM190 1147q-14 -79 -14 -165q0 -105 21 -222q37 -168 157 -324q113 -140 305 -213q101 -36 233 -36q82 0 177 14q97 16 213 61q-21 40 -41 82 q-107 233 -149 344q-5 13 21.5 31t53 24.5t35.5 -2.5q15 -40 35 -87.5t35 -80.5t39.5 -87t36.5 -80q8 -17 22.5 -48t22.5 -47q45 22 98 54q161 96 301 284q127 173 180 416q11 61 11 126q0 141 -50 304q-60 186 -241 360q-143 119 -342 156q-18 5 -82 10q-37 3 -78 3 q-193 0 -457 -74q-25 -7 -55.5 -18.5t-47 -18.5t-55 -24t-47.5 -21q-113 -130 -217 -344q-85 -171 -121 -377z" />
<glyph unicode="R" horiz-adv-x="1970" d="M62 2368q-1 10 0 18q0 44 16 45q138 52 352 96q181 30 385 30q35 0 70 -1q207 -5 442 -76q186 -63 361 -186q80 -66 125 -130.5t75 -160.5q9 -46 10 -90q0 -51 -12 -97q-22 -88 -80 -190q-139 -215 -413 -393q-188 -122 -531 -229q-160 -45 -262 -64q210 -161 346 -256 q317 -218 574 -393q70 -44 286 -193q4 -3 4 -10q0 -16 -26 -50q-30 -40 -47 -39q-3 0 -6 1l-285 197q-241 157 -574 389q-66 48 -184.5 135.5t-163.5 120.5q-9 6 -29.5 22t-36 26t-32.5 17l-4 -2q9 -120 20 -327q10 -214 21 -408q2 -23 3 -36t1 -16t1 -14t3 -34 q2 -8 -8.5 -17t-27.5 -15.5t-34.5 -11t-31 -3t-15.5 9.5q-3 29 -5 47t-5 57q-12 266 -20 408q-4 101 -16.5 287t-16.5 253q-2 53 -35 639q-23 451 -27 596q-3 20 55 36q27 7 42 7q18 0 22 -10q4 -117 13.5 -331.5t11.5 -264.5q24 -373 37 -639q0 -3 6 -96q258 46 448 104 q320 103 506 228q73 51 117.5 85.5t101 89.5t94.5 113q55 82 81 156q17 48 17 97q0 27 -5 55q-20 80 -59 138t-107 112q-163 115 -336 170q-226 64 -418 67q-265 0 -440 -35q-211 -42 -330 -96q-20 0 -24 62z" />
<glyph unicode="S" horiz-adv-x="2070" d="M68 33q-1 7 -1 15q-1 8 1 16q2 18 7.5 35t13 27.5t15.5 8.5q343 -15 555 -15q64 0 115 1q152 7 243.5 13.5t223.5 23t244.5 47.5t214.5 78q11 7 39 25t36.5 24t29 21t26.5 24t18.5 25t15 30.5t7 35.5t2.5 45.5t-6 53.5q-65 203 -266 328q-186 110 -498 219 q-189 66 -524 176q-71 26 -98 36t-88 36t-95 47t-77 55t-75 72q-5 10 -18.5 31.5t-17.5 34.5q-20 48 -20 97q-1 53 15 97q14 42 45.5 88t59.5 77.5t68 70.5q323 277 759 387q414 101 681 101q81 0 149 -9q10 -2 121 -33q3 -3 3 -8q0 -16 -32 -48.5t-47 -32.5q-4 0 -8 3 q-68 5 -141 5q-317 0 -728 -99q-426 -117 -721 -387q-29 -36 -45.5 -58t-33.5 -55t-20.5 -60.5t3 -62.5t27.5 -73q21 -23 45 -43t53.5 -37.5t52 -30t59.5 -27.5t55.5 -22t61 -22.5t56.5 -20.5q147 -45 528 -176q317 -115 510 -230q218 -130 309 -375q10 -50 12 -94v-17 q0 -34 -6 -64q-6 -37 -22.5 -70t-38 -60t-53 -54.5t-65.5 -50t-79 -48.5q-206 -86 -435.5 -117.5t-530.5 -38.5q-85 -3 -183 -3q-216 0 -497 15q-8 3 -10 17z" />
<glyph unicode="T" horiz-adv-x="1759" d="M-246 1834q1 32 13 34q262 152 735 332q398 138 884 245q367 86 852 156q320 56 809 109q8 -1 11 -14q2 -8 2 -17q0 -6 -1 -14q-2 -18 -6.5 -35.5t-12 -29.5t-15.5 -11q-484 -52 -807 -109q-504 -77 -846 -158q-283 -64 -461 -114q0 -17 2 -23q11 -44 17.5 -98.5 t8.5 -92.5t4 -104t3 -94q28 -494 43 -835q5 -126 13 -379t14 -379q1 -36 2 -57.5t1.5 -27.5t1 -23t1.5 -52q3 -8 -7.5 -16.5t-26.5 -14.5t-34 -10q-12 -2 -23 -2h-9q-14 2 -15 10q-7 66 -10 160q-4 126 -12.5 379t-12.5 379q-34 682 -43 835q-17 276 -26 373q-9 22 -4 27 q4 3 10.5 8.5t9.5 7.5q-203 -62 -317 -102q-439 -168 -721 -334q-11 -1 -19 29q-8 27 -8 56v6zM819 2179q2 0 5 2t5 2q-6 0 -10 -4z" />
<glyph unicode="U" horiz-adv-x="1779" d="M66 1544q7 281 26 459q30 215 55 336q1 13 31 19q21 4 41 5q10 0 19 -1q30 -3 30 -15q-23 -111 -55 -326q-18 -166 -29 -452q-3 -110 -3 -214q0 -139 5 -268q7 -171 43 -419q25 -165 86 -314q43 -107 138 -178q77 -46 168 -46q11 0 22 1q89 12 199 92q38 28 68.5 56 t42.5 42.5t40 49.5q91 117 166 288q63 138 123 367q20 81 84 399q38 235 55 371q8 47 37 256q17 71 17 78q2 14 32 17t59 -9.5t29 -36.5q4 -80 4 -237q0 -151 7 -363q4 -160 16 -436q7 -171 29 -453q37 -363 43 -415q3 -24 11 -74t11 -74q1 -2 1 -3q1 -10 -23 -24 q-28 -16 -56 -20q-10 -2 -17 -2q-13 0 -19 6q-22 147 -23 154q-27 206 -45 418q-16 175 -31 454q-12 276 -16 410q-52 -284 -84 -410q-57 -226 -121 -383q-91 -202 -168 -305q-111 -149 -250 -240q-139 -87 -248 -92q-136 0 -239 70q-120 87 -170 213q-70 178 -92 334 q-37 224 -45 426q-8 151 -8 294q0 99 4 195z" />
<glyph unicode="V" horiz-adv-x="1732" d="M49 2347q-1 2 -1 4q0 10 22 23q26 16 53 21.5t37 -3.5q36 -130 91 -280t97 -251.5t130 -306t132 -309.5q47 -109 151.5 -356.5t185.5 -436.5t130 -298q14 32 35 101t46 166t47.5 189.5t50 211t44 190t37.5 167.5t23 103q24 113 74.5 397.5t89.5 513.5t39 232q-1 13 29 19 q19 4 38 5q12 1 22 -1q30 -4 31 -17q-51 -291 -88 -514.5t-48 -294t-25.5 -145.5t-40.5 -189q-15 -77 -51 -234.5t-70.5 -307.5t-38.5 -166t-28 -109t-39.5 -152t-39 -134t-40.5 -113q-3 -3 -17.5 -20t-17.5 -20t-16 -14.5t-18.5 -12.5t-17.5 -5q-5 -2 -10 -1t-11 3 q-10 4 -23 11t-27 20q-10 12 -19 26t-16 28t-20 42t-23.5 51t-33.5 74t-42 94q-29 72 -192 455.5t-166 386.5q-50 122 -132.5 314t-129.5 302.5t-101.5 260.5t-91.5 280z" />
<glyph unicode="W" horiz-adv-x="1835" d="M59 2206q-1 3 -1 5q0 13 30 24q35 13 61 13q8 0 14 -1q11 -3 7 -9q67 -267 170 -710q17 -64 140 -571t198 -830q6 47 23.5 195t31 264.5t15.5 118.5q8 87 21 283.5t24 334.5q3 30 5 41.5t9 33.5t20.5 34.5t34.5 19.5q13 4 25.5 -1.5t24.5 -22t20 -29t19 -40t14 -35.5 t12 -34q16 -46 41 -131t37 -121q21 -71 36.5 -124.5t26 -87t24.5 -77.5t21 -63.5t27.5 -79.5t32.5 -94q7 -20 36.5 -100t61 -168t51.5 -150q15 122 78.5 552.5t132.5 1036.5q36 332 53 493t23 222q-3 13 27 18q15 2 30.5 2t30.5 -2q31 -5 33 -18q-31 -290 -80 -715 q-75 -672 -133.5 -1080.5t-81.5 -606.5q-2 -11 -5 -37t-5.5 -40.5t-9 -34t-17.5 -33t-27 -21.5q-12 -6 -23 -6q-8 0 -15 4q-17 8 -32.5 28.5t-25.5 41.5t-17 39l-8 18q-90 262 -186 516q-23 66 -45.5 130.5t-29 84l-15 45t-16 52t-18 63.5t-35 120.5t-54.5 184.5 q-7 -88 -13.5 -181t-9 -125.5t-6 -69t-8.5 -70.5q-52 -516 -82 -705q0 -3 -4 -35.5t-6.5 -43t-9.5 -33.5t-18.5 -35.5t-28.5 -20.5q-10 -5 -20 -5q-9 1 -17 5q-17 8 -30 25t-23.5 40t-16.5 43t-10 35l-4 15q-316 1315 -365 1505q-29 124 -86.5 361.5t-83.5 349.5z" />
<glyph unicode="X" horiz-adv-x="1490" d="M61 2304q-2 4 -2 9q1 13 17 27q22 19 48.5 22t43.5 -15q19 -34 35 -74q17 -30 48.5 -93.5t47.5 -94.5q91 -198 258 -524q35 -71 114 -224t120 -235q11 22 68 130t87 167q210 406 271 534q114 242 165 371q0 1 39 92q0 12 31 14h13l49 -6q31 -8 30 -18 q-12 -27 -17.5 -43.5t-19.5 -48.5q-60 -143 -168 -373q-87 -191 -270 -541q-142 -275 -213 -407q44 -90 134 -270.5t134 -270.5q34 -66 94.5 -195.5t92.5 -191.5q12 -34 55 -84q8 -9 -11 -33t-44 -40q-16 -11 -25 -10q-5 0 -8 3q-56 68 -70 103q-37 70 -97.5 202t-88.5 187 l-236 473q-16 -29 -46 -87.5t-46 -86.5q-99 -184 -346 -660q-2 -13 -32 -13q-13 1 -32 3q-61 8 -61 27q5 11 346 659q46 81 152 285q-222 438 -266 524q-44 89 -131.5 263t-130.5 261q-15 33 -45.5 97.5t-45.5 97.5q-21 41 -41 88z" />
<glyph unicode="Y" horiz-adv-x="1759" d="M59 2261q-3 3 -3 8q0 10 10 26q17 25 41.5 43t33.5 9q296 -349 717 -770q150 -152 397 -381q102 323 207 567q143 345 285 602q5 12 31 12q1 0 2 -1q28 0 59 -12t29 -25q-116 -209 -285 -592q-47 -111 -99.5 -255.5t-76 -216t-84.5 -259.5q-95 -310 -180 -676 q-18 -72 -58 -270q1 -13 -29 -18q-16 -2 -31 -2t-31 2q-31 5 -31 18q12 65 57 274q115 471 182 678q13 49 17 63q-1 -3 -6 -3t-7 3q-239 213 -426 400q-418 421 -721 776z" />
<glyph unicode="Z" horiz-adv-x="3215" d="M64 410q20 29 47 32q51 5 95 5q19 0 36 -1q158 24 377 117t434.5 218.5t403 250.5t329.5 236q121 95 253 205t293 247.5t246 208.5q-216 -63 -455 -83q-208 -18 -452 -17h-72q-267 1 -508 13t-349 24l-107 12q-10 7 -7.5 34.5t17 57t27.5 25.5q60 -13 494 -33 q308 -14 520 -14q87 0 159 2q198 6 358 25t257.5 44t170.5 49t134.5 43t111.5 23q5 1 9 1q26 -1 37 -21q12 -24 4 -54q-7 -23 -20.5 -36.5t-33 -23t-70 -41.5t-110.5 -79q-60 -49 -318 -271.5t-473.5 -393t-433.5 -314.5q-198 -130 -458.5 -273.5t-442.5 -213.5 q296 -48 504 -92q117 -26 325.5 -76.5t382.5 -89t328 -64.5q507 -82 1035 -82q7 0 9 -14q1 -5 1 -12q0 -10 -2 -20q-3 -18 -8 -35t-13 -29q-7 -10 -14 -9h-2q-130 0 -247 3t-238.5 14t-202 17.5t-208 28t-181 29t-196 39t-179 39t-204 46.5t-200.5 47q-687 162 -1017 174 q-27 -4 -42.5 -6.5t-44 -5.5t-45.5 -2.5t-35.5 3t-26.5 10.5q-7 7 -7 18q0 29 25 65z" />
<glyph unicode="[" horiz-adv-x="1185" d="M69.5 2442.5q-0.5 27.5 0 38t2 34t6 36.5t11.5 31t18.5 31.5t27.5 24.5q66 38 187 53q182 11 401.5 61.5t374.5 102.5q8 2 16.5 -9t15 -27.5t11 -33.5t3 -30t-8.5 -15q-51 -16 -136 -41.5t-298 -72.5t-369 -58q-33 -5 -52 -7.5t-37.5 -7.5t-27.5 -8t-17 -11t-9.5 -13.5 t-3 -19t0 -23.5t2.5 -31.5t2 -38.5q23 -253 25.5 -478t-7.5 -614t-11 -671q0 -186 2 -518t2 -619q0 -42 1 -51.5t7 -9.5q7 -3 115 -10q138 -15 242.5 -22.5t230.5 -5.5t241 18q11 2 19 -26t7.5 -59t-11.5 -36q16 0 -1 -1q-165 -11 -454 -8q-418 5 -479 52q-21 14 -31 40 t-10.5 47.5t0.5 53.5t0 45v1110q2 247 9.5 548.5t10.5 456t-3 358t-25 400.5q0 7 -0.5 34.5z" />
<glyph unicode="\" horiz-adv-x="1720" d="M39 2900q-5 13 22.5 31t54.5 24.5t36 -2.5q68 -155 211 -481.5t217 -495.5q75 -168 272 -620t307 -697q79 -170 253.5 -539.5t264.5 -565.5q7 -12 -19.5 -30t-53.5 -24.5t-37 2.5q-85 185 -259 554t-259 554q-130 286 -580 1317q-192 441 -430 973z" />
<glyph unicode="]" horiz-adv-x="1185" d="M43.5 -748.5q1.5 13.5 9.5 15.5q51 16 135.5 41.5t298 72t369.5 56.5q42 6 63.5 9.5t41 11.5t25.5 11.5t11 18.5t3.5 24t-3 37t-2.5 48q-23 252 -25 481.5t8 608.5t11 673q0 186 -1 518t-1 619q0 42 -1.5 52.5t-8.5 10.5q-4 1 -115 8q-138 15 -242.5 22.5t-231 5.5 t-241.5 -18q-11 -1 -19 27.5t-6.5 59t13.5 34.5q-17 0 1 1q161 11 450 9q420 -4 483 -51q26 -19 34 -50t6 -81t-1 -57v-1110q-2 -268 -12.5 -671t-7 -621t29.5 -471v-30.5v-33t-1 -30t-3.5 -32t-7.5 -28.5t-11.5 -29t-17 -24t-24.5 -23q-72 -40 -189 -51q-179 -11 -396 -61 t-380 -103q-8 -2 -16.5 8t-15 26.5t-10.5 34t-2.5 31z" />
<glyph unicode="^" horiz-adv-x="1054" d="M53 1835q20 18 55.5 51.5t133.5 141.5t184 221q36 48 67.5 92t57.5 84t46 70.5t38.5 65.5t29.5 54.5t25.5 51.5t19 42t17 41t14.5 35q23 51 30 56q10 8 42 -12q56 -34 66 -40q-1 -18 -12 -68.5t-19.5 -101t-7.5 -152.5t18 -226q9 -65 31.5 -141.5t41.5 -128.5t62 -165 q5 -12 -22.5 -27.5t-55 -20t-36.5 4.5l-30 80t-30.5 82.5t-25.5 75t-25 83.5t-19 80t-17.5 92.5t-9 93t-5.5 108.5q-103 -175 -253 -360t-329 -351q-9 -9 -33.5 9.5t-41 44.5t-7.5 34z" />
<glyph unicode="_" horiz-adv-x="1626" d="M66.5 -57.5q4.5 28.5 15.5 28.5q616 0 1225 6q128 -5 321 13q11 2 18 -27t5 -59t-13 -31q-173 -16 -331 -10q-174 -2 -587 -2.5t-634 -3.5q-13 0 -18.5 28.5t-1 57z" />
<glyph unicode="`" horiz-adv-x="552" d="M53 2339q-9 9 10 32t45.5 38t34.5 6q109 -140 158 -209q106 -147 203 -283q7 -9 -15 -29.5t-49 -34t-34 -4.5q-9 13 -79.5 113.5t-119.5 167.5q-28 39 -154 203z" />
<glyph unicode="a" horiz-adv-x="1015" d="M121 312q4 68 17.5 128.5t35.5 122.5q84 231 289 400q83 78 213 141q46 27 121 55q65 23 88 27h2q14 0 19 -43q1 -15 1 -27q0 -31 -9 -42q-3 -4 -7 -3q-19 -6 -58.5 -21.5t-46.5 -17.5q1 -1 5 -2.5t6 -2.5t5.5 -3t5 -4t3.5 -4.5t3 -5.5t1 -6q5 -64 5 -123 q0 -162 -34 -295q-1 -55 -1 -106q0 -236 30 -378q7 -12 -20 -29.5t-54 -23.5t-36 4q-26 108 -33 246q-48 -78 -76 -109q-79 -103 -176 -145q-40 -17 -85 -17q-15 0 -30 2q-62 8 -102 46q-45 43 -65 105q-17 52 -18 108q0 12 1 23zM241 290q3 -34 10.5 -66.5t30 -54.5 t56.5 -22q26 0 78 23q110 66 211 289q27 76 39 135q5 54 11 188t15 205q-250 -138 -370 -369q-65 -124 -80 -268q-2 -15 -3 -32q1 -13 2 -28z" />
<glyph unicode="b" horiz-adv-x="880" d="M66 1307q2 149 2 598t2 598q-3 12 23 23q34 15 63 15q8 0 15 -1q14 -3 15 -11q-1 -148 -1 -596t-1 -596q0 -66 1 -196.5t1 -194.5q27 58 76 114.5t98 76.5q42 16 92 16q68 0 150 -29q33 -14 62.5 -33t47.5 -36t35 -38t24.5 -33.5t16 -28.5t9.5 -17q27 -66 29 -138v-25 q0 -56 -10 -101q-12 -55 -36 -137q-92 -227 -227 -357q-15 -15 -31.5 -29.5t-37 -31.5t-31.5 -27q-138 -93 -260 -93q-10 0 -19 1q-22 3 -32.5 7.5t-11 6.5t-3.5 13q-26 -20 -38.5 -20.5t-12.5 20.5q0 127 -4 182q0 260 -2 391q0 118 -2 353.5t-2 353.5zM193 125 q153 2 299 143q98 112 167 269q27 79 37 147q5 36 5 72q1 30 -3 60q-8 64 -46 115t-105 85q-51 25 -95 25q-110 0 -169 -160q-54 -135 -80 -369q-10 -109 -10 -328v-59z" />
<glyph unicode="c" horiz-adv-x="989" d="M53 438q5 124 39.5 223.5t75.5 153.5q147 205 352 266q90 28 184 28q101 0 207 -32q10 -9 10 -29v-7q-2 -26 -15.5 -52.5t-26.5 -21.5q-83 26 -164 26q-90 0 -178 -32q-140 -54 -246 -179q-1 -1 -1 -2.5t-1 -3.5q-2 -3 -16 -23.5t-26.5 -44t-28 -59.5t-27.5 -88t-17 -112 q-1 -16 -1 -30q-1 -65 11 -99q14 -42 49 -84q34 -32 80 -48.5t80.5 -20t87.5 -3.5q89 7 171 39t179 86q12 1 25.5 -30t16.5 -58.5t-9 -32.5q-220 -118 -393 -123q-109 3 -181 25.5t-147 93.5q-1 1 -14 19t-20 28t-19.5 35.5t-19 50t-12 62t-5.5 79.5z" />
<glyph unicode="d" horiz-adv-x="1142" d="M39 485q0 37 1 58.5t21 92t60 144.5q148 236 350 262q30 3 60 3q59 -1 115 -13q86 -20 185 -86q30 123 41 197q-10 141 -10 336q-3 144 -3 290.5t3 294.5v144q0 5 1 17t1 16q10 25 38 41q25 14 47 13h6q25 -2 28 -22q15 -79 27 -245q13 -224 13 -403q0 -53 -1 -101 q-12 -248 -33 -381q3 -57 10.5 -176.5t10.5 -180.5q6 -86 51 -550q8 -61 20 -183q3 -12 -25 -27q-30 -15 -56 -19q-8 -1 -14 -1q-14 0 -19 6q-12 73 -23 185q-37 342 -53 553v4q-52 -163 -150 -305q-41 -57 -72 -94.5t-74.5 -82t-93 -74.5t-104.5 -46q-1 0 -10.5 -2.5 t-17.5 -4t-22.5 -3.5t-28.5 -1.5t-31.5 2.5t-35.5 8t-37 14.5t-38.5 23.5t-38.5 34q-47 59 -71 116t-27 146zM160 508v-9q0 -108 69 -194q39 -39 82 -45q11 -2 23 -3q34 0 72 15q48 13 96 59.5t116 143.5q115 147 189 383q-28 -21 -37 -12q-116 83 -245 83q-37 0 -76 -7 q-58 -11 -114.5 -59t-92.5 -105q-69 -107 -82 -250z" />
<glyph unicode="e" horiz-adv-x="1060" d="M73 452q2 76 21 158q54 209 168 353q34 40 53.5 61.5t57.5 56.5t69 53t74 30q35 10 69 11l17 -1q67 -7 109.5 -54.5t42.5 -113.5q0 -74 -33 -141t-92 -148q-17 -16 -50 -50t-49 -51q-75 -71 -166 -133t-171 -90q4 -27 8.5 -47t10 -35.5t7.5 -21.5q40 -75 97.5 -100.5 t158.5 -36.5q13 0 27 -1q171 0 338 72q63 28 139 76q13 1 21 -29q8 -27 8 -54v-7q-1 -31 -13 -33q-12 -6 -34.5 -18t-36.5 -19.5t-37 -17.5t-47 -19q-179 -69 -335 -69q-35 0 -69 4q-111 6 -195 54.5t-130 141.5q-19 39 -29 91q-9 43 -9 104v24zM197 518q109 49 233 154 q86 76 148 167q55 82 56 156q0 8 -1 17q-5 48 -53 48q-18 0 -43 -7q-214 -78 -318 -441q-10 -30 -22 -94z" />
<glyph unicode="f" horiz-adv-x="708" d="M58 1006v7q0 27 8 53q8 30 20 28q24 5 61 15t62 15q-1 41 -4 124.5t-4 127.5q-8 194 -8 317q0 87 4 138q14 165 22 211q22 114 43 158q49 100 135 116q17 3 34 3q43 0 81 -19q42 -22 100 -76q121 -124 267 -350q34 -52 65 -109q2 -3 2 -6q0 -11 -16 -26 q-23 -21 -51.5 -33.5t-36.5 -1.5q-8 16 -30.5 50t-31.5 54q-140 218 -256 334q-34 40 -78 64q-9 2 -19 2.5t-22.5 -9.5t-24 -25t-22.5 -45t-18 -69q-22 -180 -23 -199q-4 -60 -4 -172.5t4 -277.5l11 -254q31 6 69 12.5t62.5 12t54.5 14.5q13 0 16.5 -30t-3 -60.5 t-19.5 -30.5q-101 -24 -174 -37q2 -51 7 -156t7 -159q3 -57 9.5 -172.5t9.5 -173.5q2 -69 8 -198t8 -179q3 -13 -26 -26.5t-57 -15.5q-4 -1 -8 -1q-20 0 -26 10q-14 267 -16 377q-12 182 -21 346q-4 100 -16 322q-105 -28 -141 -33q-13 2 -14 33z" />
<glyph unicode="g" horiz-adv-x="1159" d="M-137 -807q-3 3 -3 9q0 9 9 26q15 28 38 49.5t32 13.5q74 -52 131 -84q205 -112 448 -163q59 -7 82 -10q15 -1 38 -1q14 0 31 1q45 1 85 10q74 16 111.5 45t58.5 69q41 80 53 236q2 59 2 125q0 160 -12 362q-13 226 -13 715v22q-8 -13 -24 -41t-25 -42 q-137 -221 -266 -316q-42 -25 -78 -41.5t-78 -27.5q-37 -10 -75 -10h-10q-43 2 -87 18q-111 40 -174 149l-6 13q-6 13 -9.5 21t-10 26.5t-10 34.5t-8 41.5t-5.5 50t0 56.5t6 66q24 116 76 203q1 1 6.5 9t6.5 10t6.5 9.5t9 11t10 11.5t13 14.5l16 16t21 20.5t24.5 23 q68 62 171 86q48 11 104 11q65 0 140 -15q126 -29 248 -102q2 7 4 18.5t4 18.5v206q0 37 90 58q3 1 5 1q10 0 17 -10q9 -12 13.5 -32t6 -35.5t1.5 -24.5q0 -82 -16 -170v-331q0 -408 14 -709q11 -237 11 -383q0 -64 -2 -111q-14 -201 -35 -262q-32 -82 -84.5 -136.5 t-151.5 -82.5q-87 -26 -189 -26q-30 0 -61 2q-132 11 -284.5 64t-284.5 126q-30 17 -141 88zM208 522q2 -49 10 -81t24 -70q52 -88 129 -105q29 -8 57 -8q33 0 65 12q59 21 123 70q38 32 101 115q120 160 190 352q-128 81 -258 106q-53 10 -100 10q-124 0 -205 -67 q-38 -31 -76 -98q-29 -47 -49 -135q-11 -46 -11 -88v-13z" />
<glyph unicode="h" horiz-adv-x="894" d="M59 999q1 69 17 777q33 839 35 915q-3 19 55 33q26 6 41 5q19 0 22 -9q-5 -151 -16 -458t-16 -464q-15 -378 -21 -770q0 -210 10 -477q39 116 103 268q52 120 121 213q72 91 137 91q11 0 22 -3q53 -11 86 -57t60 -117q62 -204 84 -346q18 -97 57 -387q1 -4 1 -7 q0 -30 -40 -46q-21 -9 -38 -9q-15 0 -26 7q-9 6 -10 16q-30 261 -55 377q-6 27 -23.5 104.5t-30.5 130t-28 103.5q-31 96 -66 96q-39 -1 -103 -125q-11 -21 -23 -47q-66 -137 -119 -305q-60 -166 -82 -307q-13 -65 -13 -118q0 -16 1 -30q0 -26 -50 -44q-30 -11 -48 -11 q-13 0 -20 5q-5 3 -5 9q0 19 -1 56t-1 53q0 50 -1 106t-2.5 124.5t-2.5 107.5q-11 495 -11 540z" />
<glyph unicode="i" horiz-adv-x="397" d="M104 10v256q0 350 15 697q-2 8 9 15.5t28.5 12t36 7t32 0.5t15.5 -9q-14 -318 -17 -694q0 -170 2 -256q2 -8 -9 -16t-28.5 -13.5t-35.5 -8.5q-11 -2 -21 -2q-5 0 -11 1q-14 2 -16 10zM137 1585q2 43 2 65t2 66q-2 7 9.5 14.5t28.5 12.5t35 7q11 2 20 2h10q12 -2 14 -9 q0 -45 -2 -131q2 -7 -9 -14t-29 -12q-16 -5 -34 -8q-12 -2 -22 -2h-10q-14 2 -15 9z" />
<glyph unicode="j" horiz-adv-x="512" d="M-387 -1060q12 56 31 56h2q16 -2 33 -2q149 0 354 125q66 40 130.5 126.5t92.5 187.5q33 107 44 331q8 154 8 288q0 61 -2 118q-5 181 -15 332q-3 50 -7 116.5t-5.5 89.5t-4.5 62.5t-7 72.5t-9.5 79.5t-15.5 121.5q-4 18 48 35q35 11 53 11q10 0 15 -3q4 -2 2 -6 q11 -87 17 -137t10.5 -99.5t6.5 -75.5t7 -100.5t9 -138.5q12 -151 17 -342q2 -62 2 -126q0 -136 -7 -286q-11 -222 -41 -337q-37 -132 -114.5 -240.5t-211.5 -202.5q-152 -102 -436 -120q-11 3 -11 25q0 15 5 39zM197 1558q0 12 26 24q29 14 57 16q4 1 8 1q20 0 27 -10 q7 -72 7 -92q2 -16 -13.5 -24.5t-38.5 -9.5q-16 -1 -29 -1h-12q-17 1 -26 2z" />
<glyph unicode="k" horiz-adv-x="929" d="M55 -33l31 324q3 65 14.5 236t14.5 264q25 593 28 706q5 149 12.5 445.5t12.5 445.5q-2 7 8.5 14.5t27.5 12.5q16 5 34 7q11 2 21 2h11q14 -2 15 -9q-3 -145 -9 -442t-10 -449q-3 -106 -33 -731q27 39 78 107.5t70 94.5q105 140 287 394q2 8 16 10.5t32.5 0.5t36 -6.5 t29 -12t9.5 -15.5q-240 -328 -289 -393q-171 -234 -219 -311q-4 -6 -12 -19t-10 -17t-6.5 -13.5t-3.5 -14t2.5 -13t7 -16t13.5 -18.5q56 -60 124.5 -109.5t164.5 -107.5q121 -70 328 -133q5 -5 5 -16q0 -8 -3 -20q-7 -27 -24.5 -53.5t-28.5 -19.5q-205 58 -348 141 q-64 40 -100.5 64t-88.5 63.5t-90 77.5q-2 -18 -3 -38.5t-1.5 -45.5t-1.5 -39l-31 -325v-29q2 -11 -28 -21q-31 -12 -59 -12h-2q-26 0 -32 11v28z" />
<glyph unicode="l" horiz-adv-x="397" d="M143 -6v426q0 330 4 498q0 405 5 694q0 286 12 1102q-2 7 9.5 14t29 12t35.5 8q11 2 20 2q6 0 12 -1q14 -2 15 -9q-2 -86 -17 -1098q0 -117 -1 -349.5t-1 -346.5q0 -334 -4 -500v-423q2 -10 -15 -19.5t-39 -15.5q-20 -5 -39 -5q-2 1 -3 1q-20 0 -23 10z" />
<glyph unicode="m" horiz-adv-x="1490" d="M66 113q0 23 4 89q4 73 6 93q16 314 61 692q-1 12 29 21t60.5 8.5t31.5 -12.5q-24 -195 -39 -386q11 46 37 123q50 144 121 232q101 138 195 138q7 0 14 -1q61 -5 99.5 -44t72.5 -105q60 -121 78 -312q45 110 98 193q102 179 235 186q9 1 17 1q58 0 105 -36 q53 -41 81 -112q28 -67 42 -148q12 -71 12 -135v-20q-2 -74 -5 -156q-1 -77 -11.5 -222t-12.5 -177q-3 -17 -46 -37q-31 -14 -50 -14q-16 0 -23 10q-5 7 -4 18q1 8 14 169.5t17 229.5q5 55 5 118q0 45 -2 93q-6 118 -36 205q-17 34 -27.5 50t-33.5 30t-54 12 q-54 -3 -102 -82q-81 -116 -144 -311q-61 -183 -92 -338l-28 -131q-9 -22 -53 -41q-25 -11 -42 -11q-19 0 -27 15q-5 9 -3 25q5 41 20 121.5t19 111.5q18 166 18 280q0 35 -2 64q-18 173 -66 285q-42 92 -88 94h-3q-36 -1 -90 -71q-56 -74 -93 -177q-42 -103 -80 -276 q-14 -52 -36 -156.5t-36 -156.5q-1 -3 -7.5 -31t-14.5 -57t-14 -44q0 -3 -12 -13t-29 -19q-17 -10 -35 -14q-6 -1 -11 -1q-10 0 -20 7q-14 10 -16 36q-4 85 -4 97z" />
<glyph unicode="n" horiz-adv-x="829" d="M98 70l11 127q6 343 6 350q3 100 6 300.5t6 299.5q-1 13 28.5 26t57.5 15h9q21 0 28 -8q-8 -78 -8 -230q17 65 43 119q30 48 59 78t66 37q10 2 21 2q21 0 43 -8q33 -12 54 -27.5t52 -42.5q55 -63 89.5 -140t61.5 -175q39 -144 39 -336q0 -75 -6 -156q-15 -177 -59 -330 q2 -13 -28 -21q-22 -6 -45 -5q-8 1 -16 1q-30 2 -30 15q42 151 59 313q6 93 6 174q0 174 -28 289q-18 67 -29.5 102.5t-37 88t-58.5 88.5q-44 51 -67 52t-42 -40q-28 -57 -51 -170q-66 -268 -88 -455q-21 -134 -25 -196q0 -3 -1 -8.5t-1 -8.5q-3 -40 -4 -71.5t-1 -39.5 t-1 -9q0 -18 -30.5 -26t-60.5 -0.5t-28 26.5z" />
<glyph unicode="o" horiz-adv-x="1265" d="M76 381q3 143 67 281q107 229 250 350q118 95 219 134q65 25 103 25q22 0 35 -8q13 -7 0 -33q139 -39 262 -143q90 -85 141 -175q47 -83 48 -179q0 -7 -1 -15q-3 -92 -48.5 -167t-125.5 -152q-85 -85 -227 -156q-188 -80 -334 -90h-27q-76 1 -132 15q-66 18 -130 73 l-14 15q-14 15 -25.5 32t-26 44t-23.5 66t-11 83zM197 403v-15q0 -93 69 -165q45 -37 98 -45q33 -5 75 -5q25 0 53 1q145 17 299 92q111 56 193 144t93 192q2 14 2 28q-1 64 -35 122q-42 70 -116 145q-154 126 -301 131q-71 -28 -156 -90q-105 -92 -205 -283 q-63 -127 -69 -252z" />
<glyph unicode="p" horiz-adv-x="911" d="M33 -1102q-5 72 -5 162q0 130 11 297q14 177 22 324t13 259.5t8 163.5q34 642 39 912q-1 13 30 25.5t58.5 13.5t32.5 -11v-40q32 41 57 51q52 25 118 25q61 0 134 -21q25 -8 48.5 -18.5t42 -21t35.5 -23.5t29.5 -23.5t25 -25t19.5 -23.5t15.5 -22t12 -19t9 -16t5.5 -11 q36 -72 45 -149q6 -41 6 -77q0 -32 -4 -61q-9 -61 -31 -143q-89 -274 -377 -512q-148 -107 -248 -127q-30 -713 -30 -882v-19q3 -18 -30 -24q-11 -2 -22 -2q-30 0 -53 15q-14 10 -16 23zM193 -88q77 21 206 117q2 2 32.5 29t46.5 42.5t49.5 53t56.5 72t51 86.5t49 108 q42 106 42 202q0 84 -32 160q-42 79 -104 126.5t-111 54.5q-23 5 -34.5 6.5t-32 1.5t-32 -5t-28.5 -17t-28 -32t-23.5 -52t-21.5 -74q-29 -185 -50 -443q-4 -48 -12 -136.5t-14 -161.5t-10 -138z" />
<glyph unicode="q" horiz-adv-x="901" d="M66 334q36 148 77 239q10 18 34 62.5t37 69t34.5 60t40.5 64.5q52 69 82.5 107.5t82 93t99.5 90.5q173 136 332 187q13 -1 14.5 -31.5t-7 -61t-20.5 -30.5q-56 -26 -86 -43q-1 -73 -1 -129q0 -41 1 -73v-82v-47q-1 -54 -6 -95v-169q0 -520 -16 -851q-5 -107 -27 -438 q-1 -23 -4 -62.5t-5 -72t-3 -60.5q17 43 84 223.5t82 212.5q0 13 31 16.5t61.5 -3t28.5 -19.5q-27 -66 -68.5 -181.5t-80.5 -213t-83 -184.5q-11 -22 -18.5 -35t-18.5 -29.5t-21 -25t-23 -15.5q-11 -6 -24 -6h-4q-15 1 -32 8q-9 4 -16 10.5t-11.5 17t-7 18t-3.5 22.5 t-1 20.5v22v18.5q0 44 2.5 91.5t7 112.5t6.5 93q16 225 27 436q19 413 19 660q-40 -71 -108 -140t-138 -104q-78 -37 -150 -37q-25 0 -49 4q-100 22 -139 101q-22 46 -22 101q0 37 10 77zM186 340q-11 -41 -11 -72q0 -88 87 -98h10q73 0 134 43q84 57 129.5 124.5 t82.5 190.5q21 59 41 183v4q0 84 1.5 171.5t3.5 133.5l2 45q-43 -28 -82 -61q-69 -63 -174 -197q-63 -92 -142 -246q-45 -81 -82 -221z" />
<glyph unicode="r" horiz-adv-x="649" d="M61 1307q-3 20 57 33q23 5 39 5q23 0 27 -12q-3 -105 -3 -210t3 -210q42 52 99 76q73 40 304 89q20 5 31 7q14 -2 20 -32q4 -19 4 -37q0 -11 -2 -22q-4 -29 -17 -27q-73 -16 -110.5 -24.5t-86.5 -21.5t-73 -24t-53 -27t-45.5 -35t-33.5 -44t-31 -58q0 -339 66 -727v-2 q-6 -17 -18.5 -32.5t-27.5 -23.5t-30 -10q-2 0 -4 -1q-12 0 -22 10q-12 11 -17 33q-4 16 -7 35t-6 42t-5 35q-26 207 -43 488q-15 382 -15 662v65z" />
<glyph unicode="s" horiz-adv-x="825" d="M64 156q3 28 17.5 60.5t27.5 29.5q37 -2 67 -2q61 0 98 8q117 33 191 80q75 41 131 100q43 45 43 72q0 9 -4 16q-15 39 -111 64q-68 18 -196 34q-70 14 -120 32t-87 55q-33 35 -33 77q0 77 113 174q152 139 323 201q2 1 3 1q8 0 12 -16q7 -21 7 -46q0 -21 -5 -44 q-5 -22 -13 -26q-46 -16 -129 -68t-143 -105q-45 -40 -45 -57q0 -6 6 -10q48 -31 154 -43q18 -3 62 -10t75 -13t61 -15q125 -35 162 -99q19 -34 23 -66q1 -10 1 -20q-1 -20 -7 -42q-10 -30 -24.5 -56t-39.5 -57q-79 -99 -179 -154t-237 -86q-51 -13 -105 -13q-45 0 -91 9 q-9 6 -9 24q0 5 1 11z" />
<glyph unicode="t" horiz-adv-x="792" d="M-75 1259v6q0 29 8 57q9 30 22 28q157 24 319 65q1 35 6 304t9 362q-4 20 54 32q23 5 38 5q22 0 25 -11q0 -79 -4.5 -332t-4.5 -329q248 54 451 90q137 26 332 47q11 -6 11 -37q1 -28 -9 -56q-10 -30 -23 -28q-166 -15 -323 -47q-284 -52 -443 -92q2 -36 6 -326t7 -370 q3 -43 8.5 -139t10.5 -161t11 -114q8 -76 39 -209q3 -27 -23 -45q-25 -17 -52 -17h-2q-28 1 -33 21q-22 84 -43 207q-9 74 -14.5 138t-11 159.5t-7.5 126.5q-2 62 -6.5 358.5t-8.5 341.5q-38 -8 -155 -33t-180 -36q-13 2 -14 34z" />
<glyph unicode="u" horiz-adv-x="890" d="M119 350q0 168 18 334q28 213 86 518q0 18 61 24q14 1 25 1q37 0 39 -15q-48 -222 -90 -512q-15 -129 -22 -323q0 -2 6 -191q6 -29 12 -34t20 8q47 50 82 102q48 64 107 170q26 55 45 125v38q0 185 43 404q2 10 20.5 22t40.5 19.5t41.5 3t22.5 -23.5q5 -46 6 -84v-10 q0 -34 -5 -84q-6 -56 -12 -93.5t-13.5 -80t-8.5 -52.5q-2 -10 -7 -31.5t-7 -31.5q1 -17 22 -154q36 -152 115 -231q21 -21 33 -31q3 -2 15 -8.5t17 -9.5q4 -3 4 -10q-1 -9 -9 -25q-14 -28 -35.5 -50t-30.5 -14q-9 5 -25 15.5t-20 13.5q-19 13 -39 37q-85 87 -135 254 q-51 -85 -62 -100q-87 -127 -164 -197q-27 -23 -47 -33q-18 -10 -41 -9h-5q-26 1 -48 22q-39 35 -47 129q-8 88 -8 198z" />
<glyph unicode="v" horiz-adv-x="921" d="M59 995q-2 3 -2 6q1 11 21 26q26 21 52 29q13 4 22 4q10 0 16 -5q31 -81 90.5 -234t85.5 -221q89 -231 98 -260q20 -55 33 -98q14 38 47 133t51 145q75 227 181 486q0 13 30 17t60 -1.5t30 -17.5q0 -1 -24 -65t-70 -187t-86 -232q-20 -53 -56.5 -159.5t-41.5 -120.5 q-12 -41 -51 -129q-11 -17 -32 -34t-34 -18h-10q-33 -1 -51 17q-22 20 -37 65q-5 17 -14.5 46.5t-17.5 53.5t-15 44q-17 50 -52 140.5t-46 119.5z" />
<glyph unicode="w" horiz-adv-x="1208" d="M59 1022q-1 2 -1 3q0 10 24 25q28 17 55.5 23t36.5 -4q51 -221 141 -557q23 -90 95 -342q4 18 32 236q19 157 37 253q8 35 14 53t25 38.5t51 31.5q8 0 11.5 2t11.5 -2.5t10.5 -5t10 -7t9 -8l7.5 -7.5l6 -6q18 -26 32.5 -58.5t29.5 -73t24 -59.5q30 -84 98 -213 q6 -8 21.5 -34.5t23.5 -37.5q28 92 86 471q64 346 82 437q0 20 61 25q12 1 22 1q40 0 42 -16q-43 -183 -82 -430q-9 -51 -24.5 -138.5t-28.5 -161t-27 -138.5q-4 -26 -7 -40.5t-10 -42.5t-16.5 -45t-22.5 -35t-32.5 -26.5t-42.5 -7.5q-59 2 -143 149q-63 109 -109 224 l-28 80q-15 -81 -21 -156q-5 -37 -13 -111t-13 -110q-13 -81 -50 -142q-11 -9 -22 -19.5t-16.5 -16t-14 -12t-12.5 -7.5q-6 0 -16 -2q-4 -1 -6 -1q-7 0 -13 3q-56 7 -82 90q-37 125 -102 369q-107 407 -144 559z" />
<glyph unicode="x" horiz-adv-x="1044" d="M70 928q-3 3 -3 7q1 9 13 25q18 24 44 41.5t34 8.5q50 -55 280 -305q14 26 40 77t47 91t42 77q26 53 56 103q3 13 33 13h3q29 0 57 -9q30 -9 27 -21q-8 -17 -27.5 -49.5t-27.5 -48.5q-39 -71 -164 -320q132 -137 160 -165l303 -301q3 -3 3 -8q0 -17 -34.5 -51.5 t-50.5 -34.5q-5 0 -8 3q-180 188 -301 306q-88 88 -131 135q-176 -367 -232 -479q-2 -16 -42 -16q-9 0 -21 1q-60 5 -61 25q77 154 272 557q-161 166 -311 338z" />
<glyph unicode="y" horiz-adv-x="907" d="M59 1028q-2 3 -2 6q0 17 46 42q37 20 54 20q8 0 11 -4q147 -348 238 -551q11 -25 41.5 -95.5t54.5 -118.5t51 -91q0 -3 4 -3q12 62 102 435q23 96 43.5 176.5t29.5 112.5l9 32q1 11 50 13h5q57 0 62 -22v-3.5v-3.5q-1 -25 -6 -47t-37 -162q-57 -264 -172 -703 q-37 -132 -217 -831q-62 -241 -88 -315q0 -19 -60.5 -19t-60.5 19q23 65 88 305q140 565 225 868q-12 6 -23.5 15.5t-18 17t-18.5 21.5t-15 18q-23 36 -46 80.5t-37 75.5t-38 86t-35 79q-156 351 -240 547z" />
<glyph unicode="z" horiz-adv-x="954" d="M59 203q-1 5 -1 10q0 23 18 53q22 37 47 61.5t69 63.5t50 45q100 94 303 269q171 148 176 153q-117 -12 -504 -82q-13 2 -15 33t6 60.5t21 27.5q347 66 498 82q18 2 34 2q27 0 49 -6q34 -9 46.5 -25.5t15 -36t-2.5 -35.5t-13 -26q-27 -36 -64.5 -75t-66 -64.5t-77 -67 t-70.5 -61.5q-192 -162 -304 -267q-13 -12 -26 -23.5t-16.5 -15l-8.5 -8.5t-7.5 -8.5t-8.5 -11.5q50 3 114.5 11t153 21t121.5 17q73 9 268 45q13 -2 15 -33v-12q0 -25 -6 -49q-8 -30 -21 -27q-189 -34 -272 -47q-299 -40 -367 -45h-8q-30 0 -46.5 1.5t-41 7.5t-39 21.5 t-19.5 41.5z" />
<glyph unicode="{" horiz-adv-x="946" d="M43 1894q2 94 36 180.5t138 198.5q109 106 233 190.5t396 219.5q11 5 27 -21.5t21 -52t-5 -33.5q-2 0 -38 -16.5t-100 -51t-137 -79t-160 -109t-159 -131.5q-131 -148 -131 -299q4 -52 32 -109t74.5 -113t85.5 -96t90 -87q11 -10 38 -35.5t36.5 -35t31.5 -32t30 -33 t24.5 -32t23 -35.5t16 -36t13 -42t6 -44.5t1.5 -51.5q-17 -127 -162 -268q103 -39 159.5 -104.5t84.5 -174.5q9 -62 -2.5 -119.5t-42 -111t-63.5 -98t-81 -102.5l-45 -54q-51 -66 -71 -93t-55 -79t-51 -88t-34 -88.5t-29 -110.5q-5 -58 9 -98t57 -72q48 -31 108.5 -45.5 t116.5 -13t117 5.5q13 2 20.5 -27t5 -59.5t-13.5 -32.5q-141 -11 -240.5 3t-191.5 77q-1 1 -10 8.5t-13.5 11.5t-15 14.5t-16.5 19t-15.5 23.5t-15 29.5t-11.5 34.5t-8 41t-2 47.5t3 55.5q27 149 83.5 251.5t178.5 260.5q124 156 126 158q77 103 84 179q2 22 -1 46 q-18 81 -65.5 128t-147.5 74q-62 24 -70 67t37 87q54 45 101 105t61 118q3 38 -5.5 70t-30.5 61.5t-41.5 49.5t-54.5 51.5t-53 50.5q-63 61 -108 109t-96.5 115t-80 136t-32.5 137z" />
<glyph unicode="|" horiz-adv-x="321" d="M53 -1321q-8 173 29 1747q18 730 31 1128t18.5 478.5t12.5 198t14 315.5q2 20 61.5 17t59.5 -23q-53 -744 -70 -1727l-1 -69q-2 -70 -4.5 -185.5t-6 -268.5t-6.5 -321t-6.5 -342t-6 -331.5t-4 -290t-2 -216.5t1.5 -112q-3 -20 -62 -18t-59 20z" />
<glyph unicode="}" horiz-adv-x="1011" d="M52 -693.5q2 13.5 9 15.5q55 13 197 62q91 38 155.5 69t125.5 69t98.5 75.5t65.5 85t36 102t1.5 121t-31.5 147.5q-22 52 -61 112.5t-78.5 111.5t-81.5 106.5t-74 107.5t-52 104t-19 105t28 103q8 13 16.5 24t18 21.5t17 18t19 16t17.5 13.5t18.5 12.5t17 10t18 10.5 t15.5 9q-67 32 -112.5 90t-48.5 123q-5 79 26.5 172t74.5 164.5t90.5 158.5t64.5 144q29 114 30.5 209t-35 188.5t-114.5 167.5q-173 156 -416 250q-9 9 -4 35.5t20.5 53.5t26.5 22q0 4 69.5 -27.5t182.5 -99t201 -144.5q94 -93 141 -203t47.5 -228.5t-31.5 -254.5 q-17 -58 -64 -145.5t-89.5 -158.5t-74 -154t-26.5 -142q0 -26 12.5 -46.5t38.5 -37.5t44.5 -26t52.5 -23q62 -18 74 -59.5t-41 -87.5q-25 -16 -75.5 -42.5t-77.5 -47.5t-40 -48q-12 -35 -8 -67t27 -77t52.5 -85.5t68.5 -93.5t74 -100.5t71 -107t59 -112.5q33 -98 43 -181 t0.5 -150.5t-42 -127t-77.5 -107.5t-115.5 -94t-146 -83.5t-176.5 -79.5q-162 -58 -213 -72q-8 -2 -16 9t-13.5 28.5t-9 35t-1.5 31z" />
<glyph unicode="~" horiz-adv-x="1759" d="M66 979q60 58 159 115q86 48 195 73q78 14 203 0q88 -20 176 -73q31 -15 83 -49t64 -41q62 -39 139 -64q62 -20 154 -10q32 5 68.5 19t53 22.5t60.5 32.5q103 64 185 143q9 9 33.5 -9.5t41 -44t7.5 -34.5q-97 -94 -207 -162q-133 -72 -226 -88q-129 -11 -211 16 q-98 36 -163 76q-98 63 -140 88q-87 46 -139 55q-91 18 -156 5q-74 -16 -161 -60q-76 -42 -138 -98q-8 -9 -32 9.5t-41 44.5t-8 34z" />
<glyph unicode="&#xa1;" horiz-adv-x="481" d="M37 -1180q12 137 36.5 404.5t35.5 394.5q32 394 61 836q45 574 86 911q1 13 32 15t61 -6t28 -21q-2 -16 -9.5 -78t-10.5 -87.5t-10.5 -101t-14.5 -150.5t-17.5 -203t-23.5 -288q-25 -381 -62 -835q-8 -92 -21.5 -252.5t-25 -295.5t-22.5 -253q-1 -13 -31.5 -15.5t-61 5 t-30.5 20.5zM262 1999q26 65 66 207q2 8 15 9.5t31 -2t35 -9.5t28 -14.5t9 -16.5q-8 -26 -19.5 -68t-22 -76.5t-27.5 -72.5q-7 -11 -34 -6t-55.5 21.5t-25.5 27.5z" />
<glyph unicode="&#xa2;" horiz-adv-x="1110" d="M49 688q-8 50 5.5 133.5t47.5 157.5q134 275 433 489q35 308 45 426q3 18 58.5 11t55.5 -27q-5 -49 -19 -160.5t-20 -171.5q164 100 357 178q12 4 27 -23t19 -53.5t-5 -35.5q-230 -87 -414 -209q-40 -326 -92 -905q129 -15 332 0q13 0 19 -29t2 -58.5t-15 -29.5 q-8 0 -42 -2t-53.5 -3t-56.5 -2t-65 -1t-64 2t-67 6q-34 -435 -45 -698q0 -13 -29 -17t-57.5 2t-28.5 17q20 396 53 712q-72 14 -129 33.5t-111.5 52.5t-91 85t-49.5 120zM168 692q35 -132 270 -178q2 17 80 801q-216 -180 -315 -397q-21 -49 -33.5 -113t-1.5 -113z" />
<glyph unicode="&#xa3;" horiz-adv-x="1851" d="M55.5 958q1.5 30 14.5 31q408 37 471 43q-1 33 -6.5 175t-6.5 218q0 20 -0.5 80t-0.5 89.5t2.5 88t7 93.5t14 86t23.5 87t35.5 74.5t49.5 67.5q35 39 95.5 70t113.5 41q154 23 322.5 -35t322.5 -162q25 -15 48.5 -32.5t61 -48.5t44.5 -36q8 -8 -10 -31.5t-42 -41 t-32 -9.5q-8 6 -60 48t-81 59q-134 90 -287.5 142.5t-282.5 25.5q-33 -5 -74 -28t-65 -54q-21 -27 -37.5 -63t-25.5 -82.5t-15 -84t-8 -95.5t-2.5 -87.5t0 -89t0.5 -72.5q2 -63 7 -188t7 -188q327 36 740 98q11 2 19.5 -25.5t8 -56t-11.5 -29.5q-189 -28 -756 -102 q0 -213 -8 -322q-12 -233 -94 -469q141 70 387 113q101 14 208 15t219 -10.5t204 -26t211 -37.5q12 -6 12 -32.5t-10.5 -55.5t-22.5 -27q-96 18 -160.5 29t-156 23t-163.5 16t-157.5 2.5t-164.5 -11.5q-72 -14 -101.5 -20.5t-93 -23.5t-101 -33.5t-85 -44.5t-84.5 -62 q-34 -31 -96 -29q-50 2 -53 26q-1 8 5 17q19 31 39 74.5t52.5 128t55.5 201.5t29 243q11 187 11 304q-33 -4 -201 -23.5t-258 -26.5q-11 -2 -19.5 27t-7 59z" />
<glyph unicode="&#xa4;" horiz-adv-x="1058" d="M70 610q137 111 143 121q-58 107 -29 230q24 88 41 133l-2 4q-5 4 -26.5 20.5t-32 24.5t-28.5 21t-32.5 22t-27.5 16q-9 11 -0.5 37t28 51.5t31.5 20.5q40 -24 148 -109q57 82 180 158q-43 10 -76 12q-20 3 -12 64t28 59q103 -16 200.5 -56t166.5 -102q19 12 141 115 q9 8 32 -12t39 -46t7 -34q-14 -11 -67.5 -55.5t-73.5 -59.5q40 -64 49 -141q6 -139 -74 -279q12 -10 42 -36.5t55.5 -48.5t29.5 -25q9 -8 -7 -34t-39 -46t-32 -12q-5 4 -23.5 20t-46 40.5t-52.5 43.5q-131 -141 -275 -149q-106 10 -180 61l-148 -121q-9 -9 -32.5 10.5 t-38.5 46.5t-6 35zM301 930q-24 -101 31 -164q56 -65 153 -68q105 15 199 142q100 126 92 258q-9 67 -56 120.5t-110 81.5q-154 -73 -221 -157q-23 -26 -41 -67.5t-25 -65t-22 -80.5z" />
<glyph unicode="&#xa5;" horiz-adv-x="1748" d="M59 2245q-7 11 18.5 30.5t52.5 28.5t38 0q0 -2 144 -369.5t289 -734t147 -364.5q6 6 423 682t418 677q2 13 33 14.5t60.5 -7t27.5 -19.5q-848 -1384 -854 -1390h73h51h33.5h22t13.5 0.5t11 0.5t13.5 1t20.5 2q13 1 21.5 -29t7 -60.5t-14.5 -31.5l-20 -2.5t-15 -1.5 t-10.5 -0.5t-14.5 -0.5h-18.5t-30 0.5t-42.5 0.5h-63.5h-84.5q6 -61 6 -185q308 -23 299 -28q13 0 15.5 -30t-5 -60t-20.5 -29q-20 9 -289 27q-4 -240 -24 -390q2 -20 -59 -28t-64 12q23 176 30 410h-348q-20 0 -20 60.5t20 60.5h348q0 15 -6 180q-256 0 -299 -6 q-13 -2 -22 27.5t-8 60t14 32.5q0 7 256 7q-6 9 -149 370.5t-284 721.5z" />
<glyph unicode="&#xa6;" horiz-adv-x="372" d="M67.5 -167.5q2.5 82.5 12.5 230.5t14 326q0 13 30.5 17.5t61.5 -1t31 -18.5q-31 -479 -30 -742t38 -962q0 -20 -59 -23t-62 17q-24 523 -31.5 798t-5 357.5zM115 782q-6 141 43.5 932t50.5 819q3 20 63 16.5t60 -22.5q-25 -313 -64.5 -949t-31.5 -787q2 -13 -27.5 -20 t-60.5 -4t-33 15z" />
<glyph unicode="&#xa7;" horiz-adv-x="1642" d="M87 475.5q-6 55.5 7 120.5q40 135 126 260.5t210 261.5q-104 41 -174 111q-63 65 -82.5 141t2.5 155.5t63 153.5t105 156q340 391 836 596q15 5 26.5 -11.5t16.5 -40t9 -43.5l3 -20q-479 -199 -797 -567q-44 -59 -71.5 -102.5t-51 -97.5t-25 -97t18.5 -89t68 -85 q43 -31 98.5 -52.5t96 -31t106.5 -20.5q94 -16 225.5 -31.5t199 -25.5t157.5 -42t170 -86q35 -29 60.5 -61t38.5 -63t20.5 -57.5t7.5 -56t-1 -46t-5.5 -40t-4.5 -26.5q-35 -139 -130 -286t-210 -271q128 -61 193 -154t49 -219q-21 -99 -81.5 -201.5t-144.5 -191t-174.5 -162 t-185.5 -131.5q-263 -159 -456 -229q-34 -12 -50 119q188 66 435 219q81 51 162.5 117t162 146.5t138 174t73.5 178.5q4 51 -15 93t-52.5 72t-88 55t-108.5 40.5t-128 30t-131.5 23t-134.5 20.5t-124 20q-67 14 -123 31t-108 40.5t-90 52.5t-69.5 66.5t-46.5 82.5t-21 100.5 zM207 479.5q-3 -39.5 15.5 -77t54.5 -69.5t106 -60.5t170 -49.5q59 -10 170 -25.5t192.5 -31t159.5 -39.5q121 126 216.5 266.5t133.5 274.5q9 54 10 84.5t-15 67.5t-54 71q-72 51 -168 79.5t-181.5 37t-215.5 25t-234 42.5q-114 -114 -212.5 -251t-137.5 -261 q-7 -44 -10 -83.5z" />
<glyph unicode="&#xa8;" horiz-adv-x="700" d="M49 2370q-2 10 15 19.5t39 15t42 4.5t23 -11l35 -125q5 -12 -23 -27.5t-55.5 -19t-36.5 7.5q-35 125 -39 136zM481 2363q-5 12 23 28t55.5 20t36.5 -7q9 -20 11.5 -34.5t9 -32t28.5 -56.5q7 -12 -18.5 -31t-52 -27t-37.5 1q-13 27 -16 27l-13 35q-15 41 -27 77z" />
<glyph unicode="&#xa9;" horiz-adv-x="2588" d="M149.5 959.5q0.5 71.5 15.5 141t48.5 158.5t85.5 183q2 3 18 32.5t24 43t28 48t36.5 59.5t42.5 64.5t54 76.5t62 82t75 94t86 100q-178 -49 -289 -88q-11 -4 -25 22.5t-17.5 51.5t5.5 32q274 90 489.5 146t426.5 78q139 12 267 15t249.5 -21.5t225 -72t193.5 -138.5 t154 -220q137 -267 115 -579q0 -3 -1.5 -37t-3 -52.5t-6.5 -62.5t-12 -76.5t-20.5 -84.5t-30.5 -95t-43.5 -100t-58 -108t-74.5 -110.5t-94 -115.5q-167 -184 -345.5 -289t-414.5 -131q-333 -30 -586 70q-98 37 -174 77.5t-152.5 98t-139.5 136.5t-113 179q-23 47 -36.5 78 t-32.5 88.5t-25.5 106t-6 120zM265 928q-2 -36 8 -84.5t15 -71t23 -64t22.5 -51t22.5 -45.5q47 -90 105.5 -160t127.5 -120t135.5 -84t149.5 -64q238 -92 531 -59q119 13 223 49t189 93.5t146 112t128 128.5q307 341 313 756v14q16 290 -106 528q-49 93 -113 162.5 t-140.5 111.5t-157 67t-178 32t-187 4.5t-199.5 -14.5q-32 -3 -68.5 -8t-62.5 -9t-70 -13t-62.5 -13t-70.5 -15t-65 -14q-358 -385 -527 -715q-37 -68 -63 -134t-42 -118.5t-20.5 -109t-6.5 -92.5zM922 967q-19 131 30.5 258t145.5 233q136 152 283.5 222t334.5 51 q8 -2 9.5 -15t-2.5 -30t-10 -33.5t-14.5 -27.5t-15.5 -9q-285 16 -499 -240q-80 -91 -122.5 -195.5t-23.5 -209.5q10 -65 43.5 -111t85 -69t110 -33.5t132.5 -7t137 12t137 23.5q8 2 15.5 -8.5t12 -27t7 -33.5t0 -30t-9.5 -15q-731 -143 -786 295z" />
<glyph unicode="&#xaa;" horiz-adv-x="1232" d="M81.5 1386.5q-3.5 30.5 2.5 60.5t18 28q379 -19 727 4q23 3 84.5 6t108 12t80.5 31q9 6 28.5 -19t29 -51t-0.5 -37q-20 -11 -41 -20t-48 -15t-42.5 -10t-50.5 -7t-44 -4t-51.5 -3t-45.5 -2q-344 -17 -738 -4q-13 0 -16.5 30.5zM82.5 1685.5q-5.5 36.5 6.5 76t26 67.5 t37 67q5 7 30.5 41.5t42.5 51.5q147 163 391 315q14 9 42.5 27t46.5 28.5t44 23t50 19.5q0 20 9 22.5t38 -9.5l108 20q9 -7 -1.5 -29.5t-28.5 -42.5q-1 -11 2.5 -52.5t8 -88t5.5 -53.5q4 -21 15 -83.5t17.5 -92.5t17.5 -79.5t24.5 -89t29.5 -77.5q7 -11 -19.5 -28 t-52.5 -23.5t-34 2.5q-55 129 -98 356q-110 -238 -262 -366q-99 -72 -183.5 -109t-177.5 -23q-5 2 -16.5 5.5t-15.5 5t-13 5t-13.5 6t-11.5 6.5t-12 8.5t-11.5 10.5t-12.5 13q-23 33 -28.5 69.5zM201 1708q0 -14 6 -25q1 -5 22 -8t23 -4q34 0 66.5 8.5t72 30t56 32 t61.5 40.5q126 112 233 338q23 69 39 145q-51 -28 -108 -63q-241 -151 -367 -295q-10 -13 -29.5 -41t-29.5 -41l-11 -19q-11 -18 -14 -24t-10.5 -23t-8.5 -27t-1 -24z" />
<glyph unicode="&#xab;" horiz-adv-x="1081" d="M123 1002q15 91 128 230q17 22 38 46q46 55 101 116t122.5 133.5t105.5 114.5q8 8 32 -10t41.5 -42.5t8.5 -33.5q-221 -229 -323 -354q-39 -46 -61.5 -75t-42 -60.5t-26.5 -52.5t-9 -48t5.5 -50t22.5 -56t35.5 -68t50.5 -84q33 -54 51 -85q8 -13 79 -140.5t120 -183.5 q8 -9 -11.5 -32.5t-45 -40t-33.5 -7.5q-38 46 -73 102.5t-75.5 130t-62.5 109.5q-115 198 -136 241q-56 117 -42 200zM588 1002q15 91 128 230q17 22 38 46q47 56 99.5 114t126.5 137t105 113q8 8 32 -10t41 -42.5t9 -33.5q-213 -217 -325 -354q-39 -46 -61.5 -75t-42 -60.5 t-26.5 -52.5t-9 -48t5.5 -50t22.5 -56t35.5 -68t50.5 -84q33 -54 51 -85q15 -23 84 -146t117 -178q12 -15 -34 -54.5t-58 -25.5q-38 46 -73 102.5t-75.5 130t-62.5 109.5q-115 198 -136 241q-56 117 -42 200z" />
<glyph unicode="&#xac;" horiz-adv-x="1857" d="M36.5 1225.5q4.5 29.5 16.5 29.5q549 -7 832.5 -6t478.5 3.5t229 2.5q38 0 65.5 -8t43 -19t23.5 -30.5t10 -35t-2 -40.5t-8 -38.5t-11.5 -37.5t-9.5 -30q-67 -239 -86 -649q0 -13 -29 -16t-58.5 3.5t-29.5 18.5q7 162 38.5 425t70.5 339q-8 4 -1544 0h-11q-13 0 -18 29.5 t-0.5 59z" />
<glyph unicode="&#xad;" horiz-adv-x="1720" d="M66.5 1007.5q4.5 28.5 15.5 28.5q616 0 1225 6q128 -5 321 13q11 2 18 -27t5 -59t-13 -31q-173 -16 -331 -10q-174 -2 -587 -2.5t-634 -3.5q-13 0 -18.5 28.5t-1 57z" />
<glyph unicode="&#xae;" horiz-adv-x="2435" d="M53 760q1 275 106 526.5t296 466.5q144 159 255.5 257.5t245.5 197.5q-174 -39 -411 -137q-12 -5 -28.5 21t-22 52t3.5 35q200 82 376 129t345 47q602 -17 901 -465q312 -489 180 -1018q-80 -292 -252 -494t-453 -317q-198 -75 -392.5 -98.5t-353.5 -1.5t-298 82 q-241 114 -365 285.5t-133 431.5zM170 760q7 -219 114.5 -364t315.5 -244q125 -55 271 -74.5t323 3.5t358 93q485 189 633 731q60 218 19.5 457t-185.5 463q-262 397 -800 413q-167 -98 -343 -243t-331 -320q-178 -199 -276.5 -431.5t-98.5 -483.5zM864 1573q66 27 74 29 q0 20 51 20q210 69 361 76q144 7 234.5 -39t152.5 -139q32 -64 35 -125t-19 -112t-66 -97.5t-101 -83t-128 -66.5q-116 -49 -282 -69q13 -8 57.5 -36.5t57 -35.5t48 -28.5t54 -30.5t50 -25t61.5 -28t65 -25q10 -9 5.5 -36t-20 -54.5t-26.5 -22.5q-62 23 -135.5 59t-135.5 72 t-113 67.5t-84 52.5l-32 22q-4 -101 -7 -186.5t-4 -119.5t-2.5 -62.5t-2.5 -51.5q-1 -11 -31 -14t-59 3t-27 17q29 495 39 966q-2 0 -5.5 -1t-6.5 -1q-9 -7 -27 17t-29 53t-2 35zM1036 1069q3 1 71.5 9t150.5 25t155 44q46 19 85 41.5t75 52t55.5 62t25.5 71.5t-16 80 q-82 132 -278 125q-130 -2 -307 -61q-2 -91 -17 -449z" />
<glyph unicode="&#xaf;" horiz-adv-x="1075" d="M61 2343q-4 29 1 57.5t16 28.5q157 -5 271.5 -7.5t179.5 -3.5t199.5 -2t260.5 -3q17 -3 17 -59t-19 -56q-153 3 -314.5 6.5t-280.5 5.5t-316 4q-11 0 -15 29z" />
<glyph unicode="&#xb0;" horiz-adv-x="917" d="M55 1862q-3 64 27 141q42 105 130 188t210 158q10 4 22.5 -14t24.5 -47q102 9 199 -43q40 -24 69 -47t53.5 -51.5t35.5 -58.5t11 -68t-14 -81q-33 -108 -172 -219q-194 -120 -377 -82q-99 31 -155.5 82t-63.5 142zM174 1896q-3 -67 28.5 -95t104.5 -48q131 -26 279 70 q116 94 131 192q0 12 -3 23t-6.5 19.5t-11.5 18t-13.5 15t-17.5 14t-17.5 12t-19 12t-18.5 11.5q-80 35 -137 27.5t-129 -53.5q-6 -5 -14 -11t-10.5 -8t-7 -5.5t-5.5 -4.5t-4 -3.5t-4 -4t-4.5 -5t-6 -6.5t-8.5 -9t-12 -13q-5 -5 -26 4q-16 -22 -28 -43.5t-19 -39 t-10.5 -29.5t-6.5 -24.5t-4 -15.5z" />
<glyph unicode="&#xb1;" horiz-adv-x="1900" d="M39 1284q0 59 20 59q295 -6 596 0q2 86 5.5 266t5.5 271q0 13 29 17.5t57.5 -0.5t27.5 -17q-2 -88 -5 -265.5t-5 -266.5q261 3 528 12h115q11 2 16 -27t0.5 -58.5t-16.5 -29.5q-18 0 -56.5 -2t-58.5 -2q-265 0 -532 -6q0 -71 -1 -209.5t-1 -206.5q0 -104 2 -184v-40 t8 -22q2 -8 -9 -16t-28.5 -13.5t-35 -9t-31 -2t-15.5 8.5q-9 55 -9 160.5t-1 117.5l10 414q-100 -2 -298.5 -4t-297.5 -4q-20 0 -20 59zM86 346q-4 29 1.5 57.5t16.5 28.5q259 -7 743.5 -11t571.5 -5q18 -2 17 -58.5t-21 -56.5q-545 12 -1313 16q-12 0 -16 29z" />
<glyph unicode="&#xb2;" horiz-adv-x="894" d="M60 1514q1 33 16 75q33 57 79 91t113 53q93 16 219 -45q148 174 158 364q-5 88 -56.5 163.5t-129.5 78.5q-69 -4 -130 -35.5t-136 -89.5q-9 -8 -31 13t-37 48t-6 35q128 89 184.5 115t145.5 35q118 3 209 -95t106 -260q0 -108 -45.5 -221t-122.5 -211q115 -69 227 -94 q7 -2 9 -15t-1 -30t-8 -33.5t-12 -27.5t-14 -9q-133 30 -283 117q-60 -60 -108 -94q-29 -21 -56 -36t-47 -23.5t-41 -12t-33 -5t-29 2t-22.5 5t-19.5 7.5t-15 6q-45 26 -64.5 60.5t-18.5 67.5zM186 1544q-16 -21 7 -47q64 -42 210 98q-63 30 -117.5 19.5t-99.5 -70.5z" />
<glyph unicode="&#xb3;" horiz-adv-x="905" d="M71 1433q8 26 26.5 51.5t29.5 18.5q65 -34 147 -28q81 9 153.5 43.5t116.5 75t69.5 73.5t29.5 49q3 20 -10.5 34t-39 22t-55 12t-65 4.5t-61.5 0t-52 -2.5q-55 -20 -119 -24.5t-67 3.5q-20 19 -6 68t39 55q104 14 131 17q114 44 216 139t130 197q1 7 1 13t-0.5 11 t-3.5 8.5t-5 6.5t-7 5t-8 3.5t-10 3t-10.5 2t-12 2t-12.5 2.5q-35 -1 -74 -7.5t-65 -12t-73 -21.5t-62.5 -21.5t-71.5 -27.5t-63 -25q-13 -5 -30 21.5t-22.5 53t3.5 36.5q38 14 123 45.5t115 41t89.5 21t124.5 13.5q101 -1 143 -44.5t54 -121.5q-11 -94 -78.5 -186 t-155.5 -158q43 -9 77 -27t40.5 -24.5l24.5 -24.5q53 -65 34 -139.5t-79.5 -141.5t-145.5 -117t-164 -67q-156 -33 -288 33q-9 10 -1 36z" />
<glyph unicode="&#xb4;" horiz-adv-x="665" d="M55 2021q9 7 62 51t101.5 83.5t64.5 52.5q81 70 245 223q8 8 32 -10.5t41 -43.5t9 -34q1 0 -39 -37.5t-102.5 -93.5t-108.5 -94q-196 -167 -235 -197q-11 -7 -32 16t-34 50.5t-4 33.5z" />
<glyph unicode="&#xb5;" horiz-adv-x="815" d="M61 -743q14 129 17 284q10 156 10 373q6 190 0 377v371q0 125 4 184q-4 6 -4 16q-6 165 -6 166v7q-1 7 -1 14v15t1.5 14t3.5 7q19 6 48 15q42 16 56 12.5t17 -37.5q2 -47 2 -137v-74q5 -76 16 -192q16 -120 27 -191q27 -159 31 -176q9 -69 32 -131q3 -9 13 -25.5 t16 -13.5q43 23 78 74q25 40 59 135q30 79 54 193q7 33 26 180v102q-7 101 2 191q0 98 27 131q4 5 50 1t52 -12q5 -7 9 -35t4 -40q0 -26 -3.5 -78t-3.5 -64q-3 -33 -8 -101.5t-8 -102.5q0 -61 6 -125q4 -70 29 -236q32 -149 43 -196q8 -25 14 -41q3 -11 -25.5 -25.5 t-55 -18.5t-34.5 5q-12 38 -14 53q-35 144 -43 199q-37 -116 -82 -181q-40 -63 -94 -100q-91 -51 -160 -4q-29 21 -59 80v-207l-10 -375q-1 -24 -6.5 -131t-6.5 -164q-2 -11 -33 -12.5t-61 6.5t-29 21z" />
<glyph unicode="&#xb6;" horiz-adv-x="3371" d="M88 1661q68 195 289 358q135 94 271 146.5t341 107.5q424 104 780 123q497 22 832 -26q383 -53 704 -148q12 -9 9.5 -36.5t-16.5 -56.5t-27 -26q-278 87 -686 146q-332 43 -811 22q-129 -6 -240 -20q0 -92 -4 -137q0 -146 -12 -420q-8 -178 -43 -639q-22 -257 -45 -699 q-6 -95 -37 -647q-6 -91 -19.5 -270t-19.5 -264q-3 -50 -5.5 -74.5t-5.5 -71.5q0 -12 -30 -15t-60 4t-30 19q7 106 10 144q32 477 35 534q21 317 39 652l24 387q-245 -7 -397 16q-418 52 -672 289q-49 49 -72 76q-173 213 -102 526zM194.5 1401.5q22.5 -110.5 96.5 -199.5 q38 -34 59 -61q119 -106 266 -162.5t338 -87.5q120 -17 383 -17q2 21 8 88.5t9 102.5q24 310 39 635q7 95 16 418q0 20 2 58t2 58q-192 -26 -393 -77q-372 -100 -578 -244q-187 -129 -239 -297q-31 -104 -8.5 -214.5zM1874 -967q-3 267 6 535q12 424 27 838q7 155 47 933 q3 91 8 255t9 298.5t7 253.5q0 13 31 18t62 0t30 -18q-5 -346 -26 -813q-3 -76 -19.5 -414t-23.5 -520q-22 -513 -29 -835q-11 -247 -8 -531q0 -20 -60.5 -20t-60.5 20z" />
<glyph unicode="&#xb7;" horiz-adv-x="638" d="M119 1167q-7 11 16.5 32t52 33t35.5 1q12 -25 27 -56.5t24.5 -51t10.5 -21.5q8 -9 -13 -32t-47.5 -39t-34.5 -7q-12 17 -37 67t-34 74z" />
<glyph unicode="&#xb8;" horiz-adv-x="792" d="M52 -679q-2 13 1 30t8.5 33.5t12.5 27t14 8.5q80 -26 173.5 -18t197.5 61q62 35 109 82.5t60 92t-28 73.5q-62 25 -158 0q-76 -18 -114 -49q-21 -15 -29.5 -18.5t-26.5 1.5t-47 27q-8 5 -10.5 14.5t-1.5 18.5t6 22t9 20.5t10.5 19.5t7.5 14q34 70 141 285q6 11 17.5 9.5 t26.5 -11.5t27.5 -21.5t22.5 -21t11 -9.5q-16 -34 -48.5 -98t-44.5 -88q60 20 143 18t134 -37q49 -36 61 -81.5t6 -108.5q-34 -163 -225 -256q-50 -25 -100 -41.5t-92.5 -23.5t-78.5 -9.5t-68.5 0.5t-53 6t-41 8t-23.5 5q-7 2 -9 15z" />
<glyph unicode="&#xb9;" horiz-adv-x="446" d="M55 2150q91 54 148 134q15 18 43.5 62.5t48.5 66.5q12 14 58 -25.5t34 -54.5q-30 -43 -33 -62q-6 -31 -21.5 -114t-22.5 -122t-19 -113t-17 -123.5t-9 -113.5t-3 -122q0 -17 6 -41l6 -25q-1 -4 0 -7t-2 -5.5t-3.5 -4t-5.5 -3t-7 -2t-8 -1.5l-9 -1.5t-9.5 -1.5t-10.5 -1 q-59 -4 -68.5 10t-7.5 87q0 84 11.5 191t20.5 161.5t32 189.5q-47 -40 -88 -65q-18 -9 -48 43t-16 63z" />
<glyph unicode="&#xba;" horiz-adv-x="1175" d="M61 1956q23 148 129 260q124 124 232 172q119 43 256 25q18 -5 14 -66q104 -8 177.5 -35t140.5 -94q143 -190 10 -387q-62 -88 -167 -157t-204 -95q-101 -30 -203.5 -17.5t-189.5 66.5q-98 70 -149.5 147t-45.5 181zM92.5 1326q0.5 28 11 58t21.5 29q213 -34 471 -24 q46 2 97.5 8.5t115.5 17t98 15.5q29 6 88.5 6.5t85.5 5.5q13 2 22.5 -27t8.5 -60t-14 -34q-29 -3 -88 -5t-88 -5q-18 -2 -137 -20t-183 -19q-251 -9 -498 18q-12 8 -11.5 36zM184 1937q-5 -111 140 -213q63 -34 123 -43.5t113 0t124 35.5q91 41 154 94.5t112 135.5 q41 107 -37 196q-46 47 -107 63.5t-151 22.5q-74 4 -229 -12q-8 0 -20 25q-59 -38 -132 -111q-81 -88 -90 -193z" />
<glyph unicode="&#xbb;" horiz-adv-x="1075" d="M66 381q80 96 205 243q173 203 213 263q52 78 41 133q-8 37 -62 119l-9 12q-30 46 -48 74q-160 270 -314 424q-9 8 8.5 32t42.5 41t33 9q176 -179 332 -441q8 -12 22 -35q88 -138 107 -189q30 -79 -5 -157q-32 -71 -166 -232q-27 -33 -93 -111q-134 -158 -219 -261 q-8 -9 -33 6t-44 38t-11 32zM530 381q79 94 203 239q175 206 215 266q52 79 42 133q-7 37 -61 119l-9 12q-30 47 -48 75q-167 276 -315 424q-9 8 8.5 32t43 41t34.5 9q175 -181 330 -441q7 -12 21 -34q89 -139 108 -190q30 -79 -5 -156q-32 -71 -165 -231q-28 -33 -94 -111 l-220 -263q-8 -9 -33 6t-44 38t-11 32z" />
<glyph unicode="&#xbc;" horiz-adv-x="2019" d="M16 94q45 36 105 103q60 68 171.5 191t202 225t167.5 194q131 154 369.5 451.5t279.5 347.5q354 420 606 665q9 8 33.5 -11t41 -44t7.5 -33q-101 -93 -220 -220t-178 -194t-204 -235q-467 -588 -647 -801q-104 -123 -307.5 -351.5t-233.5 -262.5q-55 -67 -117 -115 q-9 -8 -32 11.5t-38 45t-6 33.5zM590 2150q90 53 147 134q15 18 43.5 62.5t48.5 66.5q12 14 58.5 -25.5t34.5 -54.5q-29 -38 -33 -62q-6 -31 -21.5 -114t-22.5 -122t-19 -113t-17 -123.5t-9 -113.5t-3 -122q0 -17 6 -41l6 -25q1 -5 0 -8.5t-4.5 -6t-6.5 -4.5t-9.5 -3 t-10 -1.5t-12 -1.5t-12.5 -2q-59 -4 -68.5 10t-7.5 87q0 85 11 189t20.5 165t31.5 188q-43 -36 -90 -65q-17 -9 -46.5 43t-14.5 63zM1249.5 378q-2.5 18 0 37t8.5 38.5t11.5 34.5t10.5 26l4 10q8 21 27.5 71t29.5 77.5t23.5 69t21.5 77.5q30 164 31 235q0 34 -4 64 q-2 12 27.5 20t59.5 6.5t30 -14.5q19 -130 -27 -333q-18 -88 -84 -252q95 61 262 94q5 63 16.5 180t16.5 170q1 13 31 15t59 -6t27 -21q-15 -126 -33 -318q96 7 129 7q13 0 17 -30t-2 -60.5t-19 -30.5q-55 0 -133 -10q-37 -429 -31 -469q0 -13 -30.5 -20t-60.5 -3.5 t-30 16.5q-3 36 11 210.5t22 244.5q-141 -33 -209 -92q-3 -2 -31.5 -29.5t-49.5 -42.5t-38 -18q-32 -6 -51.5 -0.5t-29.5 17t-12.5 29.5z" />
<glyph unicode="&#xbd;" horiz-adv-x="2035" d="M23 94q42 33 104 103q60 68 172 191t202.5 225t166.5 194q100 117 205 246.5t244 303.5t200 249q364 428 606 665q9 8 33.5 -11t41 -44t7.5 -33q-100 -94 -216 -217t-184.5 -201t-201.5 -231q-474 -597 -645 -801q-105 -123 -305 -348t-236 -266q-60 -70 -119 -115 q-15 -12 -52 33t-23 57zM635 2150q90 53 147 134q16 19 45 63.5t47 65.5q12 14 58.5 -25.5t34.5 -54.5q-24 -34 -33 -62q-3 -18 -21 -112.5t-23 -125t-18 -110.5t-17.5 -125.5t-8.5 -111t-4 -123.5q0 -17 14 -66q0 -4 -0.5 -7t-2.5 -5.5t-4 -4t-6 -3t-7 -2.5t-8 -1.5t-9 -1 t-10 -1.5t-10 -1q-42 -3 -56.5 2t-18.5 27.5t1 67.5q0 30 1 59.5t3.5 62.5t4.5 58t7 63t7.5 57.5t9 62.5t9 58t10 62.5t9.5 58.5q-47 -40 -88 -65q-11 -6 -30 18t-30.5 52.5t-2.5 35.5zM1275.5 236.5q0.5 32.5 14.5 74.5q64 107 195 144q89 16 219 -45q148 178 158 364 q-5 88 -57 163.5t-130 78.5q-69 -4 -130 -35.5t-136 -89.5q-9 -8 -31.5 13t-38 48t-6.5 35q130 89 186.5 115t145.5 35q117 3 208.5 -95t104.5 -260q0 -109 -45 -222t-121 -210q114 -68 226 -94q8 -2 10 -15t-1 -30t-8 -33.5t-13 -27.5t-15 -9q-130 30 -280 117 q-64 -61 -109 -94q-29 -21 -56 -36t-47 -23.5t-41 -12t-33 -4.5t-28 2t-22.5 5t-19.5 7.5t-15 6.5q-45 26 -65 60.5t-19.5 67zM1403 266q-17 -20 6 -47q67 -44 209 98q-61 31 -116 20t-99 -71z" />
<glyph unicode="&#xbe;" horiz-adv-x="2035" d="M20 94q45 36 105 103q60 68 171.5 191t202 225t167.5 194q131 154 369.5 451.5t279.5 347.5q354 420 606 665q9 8 33 -11t41 -44t8 -33q-40 -37 -82 -78.5t-74.5 -74.5t-80 -84t-72 -77.5t-77.5 -86t-70 -79t-76.5 -87.5t-71.5 -82q-474 -597 -645 -801 q-104 -123 -307.5 -351.5t-233.5 -262.5q-60 -70 -119 -115q-9 -8 -31 11.5t-37 45t-6 33.5zM444 1433q8 26 27.5 51.5t30.5 18.5q62 -34 147 -28q80 9 152.5 43.5t116.5 74.5t69.5 73.5t28.5 49.5q3 20 -10.5 34t-39 22t-55 12t-65 4.5t-61.5 0t-52 -2.5 q-55 -20 -118.5 -24.5t-67.5 3.5q-20 19 -6 68t39 55q104 14 131 17q115 44 217.5 138.5t130.5 197.5q3 21 -5 32.5t-19.5 15t-32.5 7.5q-9 1 -13 2q-30 -1 -59.5 -4.5t-62.5 -11.5t-56 -14t-61.5 -20l-55 -20t-60 -23.5t-54.5 -21.5q-13 -5 -30 21.5t-23 53t3 36.5 q41 15 103 38.5t92 33.5t75 23t88 18.5t95 7.5q53 -1 90.5 -13.5t59 -37t32 -51.5t15.5 -64q-11 -94 -78.5 -186.5t-155.5 -157.5q20 -4 37 -9.5t30.5 -12t23 -11.5t18.5 -13t13.5 -11.5t11 -10.5t7.5 -8q54 -65 35.5 -139.5t-79 -141.5t-145.5 -117t-165 -67 q-155 -33 -287 33q-10 10 -2 36zM1311.5 364q-0.5 21 5.5 44.5t12.5 42t12.5 31.5l6 14q8 23 33.5 89.5t41 113t25.5 92.5q40 194 27 296q-2 13 27.5 21.5t60 7t30.5 -13.5q10 -45 5.5 -112t-11 -111.5t-20.5 -112.5q-20 -88 -86 -252q100 64 262 96q5 60 16.5 178t16.5 173 q3 20 61.5 12.5t56.5 -27.5q-5 -40 -32 -317q82 6 127 6q13 0 17 -30.5t-1.5 -60.5t-17.5 -30q-69 0 -136 -10q-37 -419 -28 -467q0 -13 -30.5 -19.5t-61.5 -3.5t-31 15q-1 38 12.5 217t20.5 239q-146 -39 -209 -92q-4 -4 -31.5 -30.5t-49 -42.5t-38.5 -19q-35 -6 -56.5 1.5 t-29 24t-8 37.5z" />
<glyph unicode="&#xbf;" horiz-adv-x="1615" d="M55 -239q0 51 13.5 93.5t40.5 96.5q24 41 53.5 77.5t75.5 79.5t64.5 59t78.5 66q213 163 369 324q165 162 292 420q45 92 84 225q8 18 65.5 -0.5t53.5 -38.5q-51 -155 -92 -239q-143 -283 -313 -453q-164 -167 -381 -334q-83 -68 -140 -123t-102 -118q-14 -24 -22 -43 t-15 -42.5t-6 -47.5t10 -48q41 -84 144 -114q145 -40 290 0q196 61 343 182q169 144 301 336q123 190 190 340q9 9 36.5 3.5t55.5 -22.5t23 -30q-58 -131 -203 -357q-125 -192 -326 -360q-152 -134 -383 -211q-163 -45 -354 -2q-82 26 -133 66.5t-92 113.5q-21 50 -21 101z M1176 1954q-1 12 28.5 20t60.5 6.5t33 -14.5q3 -27 6.5 -79.5t6.5 -78.5q0 -20 -61 -26t-64 14z" />
<glyph unicode="&#xc0;" d="M39 43q362 399 608 686.5t506 626.5q141 181 326 434q38 51 135 189t161.5 222t98.5 109q64 45 108 -10q12 -11 20.5 -26t13.5 -27.5t8 -34.5t4 -32t2.5 -35t1.5 -31q11 -167 61 -546.5t119 -752.5q3 -17 19 -107.5t28 -152t29 -148.5t34 -155.5t33 -114.5 q5 -11 -21.5 -29.5t-52.5 -26.5t-36 1q-15 43 -32 110.5t-30 126.5t-30.5 150.5t-26 137t-24.5 134t-17 95.5q-625 -29 -1288 -105q-287 -335 -639 -721q-2 -8 -15.5 -9.5t-31 2t-35 9.5t-28.5 14.5t-9 16.5zM905 862q594 65 1159 92q-58 322 -94 619q-19 163 -35.5 315.5 t-22.5 223.5l-7 71q-277 -377 -490 -665q-310 -414 -510 -656zM1616 2877q-9 8 10.5 31t46.5 38.5t35 6.5q19 -26 73 -98t83 -113q46 -62 114.5 -157t89.5 -123q6 -9 -16.5 -30.5t-49 -35t-32.5 -4.5q-10 14 -80.5 115t-120.5 168q-43 59 -153 202z" />
<glyph unicode="&#xc1;" d="M39 43q362 399 608 686.5t506 626.5q141 181 326 434q38 51 135 189t161.5 222t98.5 109q64 45 108 -10q12 -11 20.5 -26t13.5 -27.5t8 -34.5t4 -32t2.5 -35t1.5 -31q11 -167 61 -546.5t119 -752.5q3 -17 19 -107.5t28 -152t29 -148.5t34 -155.5t33 -114.5 q5 -11 -21.5 -29.5t-52.5 -26.5t-36 1q-15 43 -32 110.5t-30 126.5t-30.5 150.5t-26 137t-24.5 134t-17 95.5q-625 -29 -1288 -105q-287 -335 -639 -721q-2 -8 -15.5 -9.5t-31 2t-35 9.5t-28.5 14.5t-9 16.5zM905 862q594 65 1159 92q-58 322 -94 619q-19 163 -35.5 315.5 t-22.5 223.5l-7 71q-277 -377 -490 -665q-310 -414 -510 -656zM1786 2517q41 34 225 186q99 82 246 224q8 8 32.5 -10.5t41.5 -44t8 -33.5q2 0 -38.5 -38.5t-101.5 -94t-108 -95.5l-126 -105t-110 -91q-18 -9 -51 41t-18 61z" />
<glyph unicode="&#xc2;" d="M39 43q362 399 608 686.5t506 626.5q141 181 326 434q38 51 135 189t161.5 222t98.5 109q64 45 108 -10q12 -11 20.5 -26t13.5 -27.5t8 -34.5t4 -32t2.5 -35t1.5 -31q11 -167 61 -546.5t119 -752.5q3 -17 19 -107.5t28 -152t29 -148.5t34 -155.5t33 -114.5 q5 -11 -21.5 -29.5t-52.5 -26.5t-36 1q-15 43 -32 110.5t-30 126.5t-30.5 150.5t-26 137t-24.5 134t-17 95.5q-625 -29 -1288 -105q-287 -335 -639 -721q-2 -8 -15.5 -9.5t-31 2t-35 9.5t-28.5 14.5t-9 16.5zM905 862q594 65 1159 92q-58 322 -94 619q-19 163 -35.5 315.5 t-22.5 223.5l-7 71q-277 -377 -490 -665q-310 -414 -510 -656zM1534 2486q170 197 321 443q44 87 121 41q12 -13 24.5 -31.5t18.5 -29.5t19 -37.5t16 -32.5q118 -218 236 -365q7 -11 -14.5 -33.5t-48 -37t-32.5 -5.5q-20 26 -38.5 51t-33 45t-30.5 44.5t-26 39.5t-25 41 t-22.5 37.5t-23 40.5t-21 39t-23 42.5t-23.5 43.5q-40 -59 -135.5 -187t-171.5 -222q-8 -9 -33 5.5t-44 36.5t-11 31z" />
<glyph unicode="&#xc3;" d="M39 43q362 399 608 686.5t506 626.5q141 181 326 434q38 51 135 189t161.5 222t98.5 109q64 45 108 -10q12 -11 20.5 -26t13.5 -27.5t8 -34.5t4 -32t2.5 -35t1.5 -31q11 -167 61 -546.5t119 -752.5q3 -17 19 -107.5t28 -152t29 -148.5t34 -155.5t33 -114.5 q5 -11 -21.5 -29.5t-52.5 -26.5t-36 1q-15 43 -32 110.5t-30 126.5t-30.5 150.5t-26 137t-24.5 134t-17 95.5q-625 -29 -1288 -105q-287 -335 -639 -721q-2 -8 -15.5 -9.5t-31 2t-35 9.5t-28.5 14.5t-9 16.5zM905 862q594 65 1159 92q-58 322 -94 619q-19 163 -35.5 315.5 t-22.5 223.5l-7 71q-277 -377 -490 -665q-310 -414 -510 -656zM1376 2533q8 91 54 127q18 15 40.5 24.5t42 15t50 5t48 -1t53.5 -7t50 -9t53.5 -12t47.5 -11.5q58 -13 86.5 -18.5t90 -13.5t103 -0.5t64.5 28.5q31 25 43 70q2 8 15 11.5t29.5 1t33 -8.5t26.5 -16t8 -21 q-25 -84 -80 -125q-51 -41 -124 -52t-134 -3t-161 29q-16 3 -59 13t-75 16t-70.5 11t-66.5 1.5t-41 -15.5q-1 -3 -3 -8.5t-3.5 -13t-1.5 -17.5q-2 -19 -32.5 -28.5t-59.5 -2t-27 30.5z" />
<glyph unicode="&#xc4;" d="M39 43q362 399 608 686.5t506 626.5q141 181 326 434q38 51 135 189t161.5 222t98.5 109q64 45 108 -10q12 -11 20.5 -26t13.5 -27.5t8 -34.5t4 -32t2.5 -35t1.5 -31q11 -167 61 -546.5t119 -752.5q3 -17 19 -107.5t28 -152t29 -148.5t34 -155.5t33 -114.5 q5 -11 -21.5 -29.5t-52.5 -26.5t-36 1q-15 43 -32 110.5t-30 126.5t-30.5 150.5t-26 137t-24.5 134t-17 95.5q-625 -29 -1288 -105q-287 -335 -639 -721q-2 -8 -15.5 -9.5t-31 2t-35 9.5t-28.5 14.5t-9 16.5zM905 862q594 65 1159 92q-58 322 -94 619q-19 163 -35.5 315.5 t-22.5 223.5l-7 71q-277 -377 -490 -665q-310 -414 -510 -656zM1612 2628q-2 8 9 16t28.5 13.5t35 8.5t31 1t15.5 -9q4 -9 12.5 -40t14.5 -58l7 -27q5 -13 -23 -28t-55 -18.5t-36 7.5q-4 14 -11 41t-14 50.5t-14 42.5zM2044 2621q-4 13 24.5 29.5t55.5 20.5t35 -7 q8 -18 14.5 -46t34.5 -78q7 -11 -18.5 -30t-52 -27t-36.5 1q-14 26 -17 26l-9 22q-15 43 -31 89z" />
<glyph unicode="&#xc5;" d="M39 43q362 399 608 686.5t506 626.5q141 181 326 434q18 25 143.5 202t179.5 242q-26 6 -71 37q-60 37 -84 98t-15 127t43 136q44 96 123 156.5t174 78.5q106 15 196.5 -69t104.5 -199q22 -168 -147 -299q-54 -37 -111 -59q5 -19 8 -38.5t5.5 -51.5t3.5 -37 q11 -167 61 -546.5t119 -752.5q3 -17 19 -107.5t28 -152t29 -148.5t34 -155.5t33 -114.5q5 -11 -21.5 -29.5t-52.5 -26.5t-36 1q-15 43 -32 110.5t-30 126.5t-30.5 150.5t-26 137t-24.5 134t-17 95.5q-625 -29 -1288 -105q-287 -335 -639 -721q-2 -8 -15.5 -9.5t-31 2 t-35 9.5t-28.5 14.5t-9 16.5zM905 862q594 65 1159 92q-58 322 -94 619q-19 163 -35.5 315.5t-22.5 223.5l-7 71q-277 -377 -490 -665q-310 -414 -510 -656zM1782 2583q-71 -154 14 -211q45 -30 102 -31t105 24q167 93 149 218q-5 61 -54 115.5t-105 47.5q-60 -8 -118 -50.5 t-93 -112.5z" />
<glyph unicode="&#xc6;" horiz-adv-x="3588" d="M39 72q438 478 672 759q234 275 546 693q120 156 332 442q171 244 201 283q8 8 20.5 23.5t22.5 27t25.5 26t28 21t30.5 11t33 -4.5q2 -1 22 -14q487 57 1462 139q170 11 400 29q12 -6 12 -34t-10.5 -58.5t-22.5 -28.5q-83 -6 -133 -9.5t-64.5 -4t-60.5 -4.5t-143 -13 q-726 -55 -1391 -131q9 -47 15 -100q8 -125 41 -398q24 -223 90 -624q960 154 1163 180q12 -2 13 -33t-8 -61t-21 -29q-130 -15 -1129 -176q22 -124 66 -350q12 -73 43 -220t53 -223q688 142 1126 226q13 -1 14.5 -32t-6.5 -61t-20 -28q-288 -55 -831 -166t-635 -129 q-12 2 -13.5 33t6.5 60.5t21 27.5q36 8 109.5 23.5t109.5 23.5q-53 196 -92 422q-13 72 -37 205t-31 172q-281 -47 -403 -62q-387 -57 -868 -145q-266 -310 -639 -723q-2 -7 -15.5 -8.5t-31 2.5t-35 10t-28.5 14.5t-9 16.5zM913 901q447 79 764 125q20 3 70.5 10.5 t138.5 20.5t162 24q-67 386 -88 607q-5 44 -20.5 183.5t-22.5 215.5q0 3 -4 47t-8 66v8q-33 -37 -66 -81.5t-70.5 -98.5t-60.5 -84q-8 -11 -332 -449q-12 -16 -63 -83.5t-68.5 -90.5t-61.5 -81t-69 -90t-63 -80t-71 -88.5t-67 -80.5z" />
<glyph unicode="&#xc7;" horiz-adv-x="1748" d="M59 1038q3 572 275 1033q110 188 280.5 251t384.5 -6q404 -125 574 -313q12 -15 -35 -54.5t-59 -25.5q-19 21 -42.5 41t-44.5 36t-53 34.5t-52.5 30.5t-58.5 29t-56 25.5t-60.5 25t-56 21.5t-58.5 22t-53 20q-94 29 -172 23.5t-144 -39.5t-109 -74t-66 -80 q-123 -220 -196.5 -473.5t-80.5 -499.5q-2 -102 2 -189t16 -188t38.5 -184.5t66.5 -161.5t103 -137.5t145 -95.5q51 -22 113 -34.5t119.5 -16.5t131.5 2t130.5 13.5t138.5 26t132 31.5t133 38.5t121.5 38t116.5 38.5q13 0 17.5 -31t-1 -61.5t-18.5 -28.5 q-219 -73 -408.5 -121t-365.5 -59q-56 -114 -67 -142q46 13 92.5 17.5t97 -4t84.5 -33.5q49 -35 62 -81t8 -108q-36 -163 -228 -256q-36 -18 -72 -31.5t-66.5 -22t-62 -13.5t-55.5 -7t-50.5 -1.5t-43.5 1.5t-37 4.5t-29.5 5.5t-23 5.5t-14.5 3.5q-8 2 -10 15t0.5 30 t7.5 33.5t13 27.5t15 9q81 -26 172.5 -18t196.5 59q64 36 110.5 83.5t59.5 92.5t-29 74q-56 23 -157 0q-79 -19 -115 -49q-3 -2 -9.5 -6.5t-8 -6t-7 -4.5t-8 -3t-7.5 -1t-9 0.5t-9.5 3.5t-11.5 6l-13.5 9t-16.5 12t-12 17t1 24.5t7.5 23.5t12 25t9.5 18q15 31 44.5 92 t45.5 91q-176 7 -295 65q-90 43 -160 108.5t-115.5 147.5t-76 171t-45 195t-20 202t-3.5 208z" />
<glyph unicode="&#xc8;" horiz-adv-x="1818" d="M64.5 911q-1.5 31 6.5 62t21 31q8 1 22.5 4t22.5 4q28 144 113 424q150 464 301 831q-71 -8 -212 -22.5t-212 -22.5q-12 1 -13 32t8 61t21 28q76 8 228.5 24.5t228.5 24.5l68 158q0 13 31 16t61.5 -4t30.5 -18l-60 -140q359 36 934 82q95 7 143 10.5t62 5t64 5.5t134 10 q10 -6 9.5 -34t-11 -58.5t-22.5 -28.5q-120 -7 -402 -31q-794 -67 -964 -84q-166 -416 -307 -845q-84 -283 -109 -400q950 194 1294 262q20 -3 13.5 -63.5t-25.5 -60.5q-194 -37 -407.5 -80t-487 -99.5t-407.5 -83.5q-20 -141 -9 -256q2 -42 17 -118q16 -70 33 -105 q26 -58 63.5 -103t76 -73t96.5 -52t102.5 -37t115.5 -30q119 -16 242 -19t260 7.5t233 22t252 32.5q12 -2 13 -33t-8 -60.5t-21 -27.5q-206 -29 -345.5 -43t-327 -14.5t-347.5 25.5q-15 4 -64.5 14.5t-76.5 19.5q-165 56 -268 162.5t-148 272.5q-1 6 -9.5 54.5t-10.5 76.5 q-8 118 8 262l-41 -10q-12 1 -13.5 32zM791 3070q-9 9 10 32t45.5 38t34.5 6q139 -184 157 -209q106 -147 203 -283q10 -15 -38.5 -49t-59.5 -20q-137 197 -199 282q-37 53 -153 203z" />
<glyph unicode="&#xc9;" horiz-adv-x="1818" d="M64.5 911q-1.5 31 6.5 62t21 31q8 1 22.5 4t22.5 4q28 144 113 424q150 464 301 831q-71 -8 -212 -22.5t-212 -22.5q-12 1 -13 32t8 61t21 28q76 8 228.5 24.5t228.5 24.5l68 158q0 13 31 16t61.5 -4t30.5 -18l-60 -140q359 36 934 82q95 7 143 10.5t62 5t64 5.5t134 10 q10 -6 9.5 -34t-11 -58.5t-22.5 -28.5q-120 -7 -402 -31q-794 -67 -964 -84q-166 -416 -307 -845q-84 -283 -109 -400q950 194 1294 262q20 -3 13.5 -63.5t-25.5 -60.5q-194 -37 -407.5 -80t-487 -99.5t-407.5 -83.5q-20 -141 -9 -256q2 -42 17 -118q16 -70 33 -105 q26 -58 63.5 -103t76 -73t96.5 -52t102.5 -37t115.5 -30q119 -16 242 -19t260 7.5t233 22t252 32.5q12 -2 13 -33t-8 -60.5t-21 -27.5q-206 -29 -345.5 -43t-327 -14.5t-347.5 25.5q-15 4 -64.5 14.5t-76.5 19.5q-165 56 -268 162.5t-148 272.5q-1 6 -9.5 54.5t-10.5 76.5 q-8 118 8 262l-41 -10q-12 1 -13.5 32zM905 2642q31 24 225 186q114 96 246 224q8 8 32 -11t41.5 -45t8.5 -35q2 0 -38.5 -37.5t-102.5 -92.5t-109 -95q-30 -25 -125.5 -105t-109.5 -91q-17 -9 -50 41t-18 61z" />
<glyph unicode="&#xca;" horiz-adv-x="1818" d="M64.5 911q-1.5 31 6.5 62t21 31q8 1 22.5 4t22.5 4q28 144 113 424q150 464 301 831q-71 -8 -212 -22.5t-212 -22.5q-12 1 -13 32t8 61t21 28q76 8 228.5 24.5t228.5 24.5l68 158q0 13 31 16t61.5 -4t30.5 -18l-60 -140q359 36 934 82q95 7 143 10.5t62 5t64 5.5t134 10 q10 -6 9.5 -34t-11 -58.5t-22.5 -28.5q-120 -7 -402 -31q-794 -67 -964 -84q-166 -416 -307 -845q-84 -283 -109 -400q950 194 1294 262q20 -3 13.5 -63.5t-25.5 -60.5q-194 -37 -407.5 -80t-487 -99.5t-407.5 -83.5q-20 -141 -9 -256q2 -42 17 -118q16 -70 33 -105 q26 -58 63.5 -103t76 -73t96.5 -52t102.5 -37t115.5 -30q119 -16 242 -19t260 7.5t233 22t252 32.5q12 -2 13 -33t-8 -60.5t-21 -27.5q-206 -29 -345.5 -43t-327 -14.5t-347.5 25.5q-15 4 -64.5 14.5t-76.5 19.5q-165 56 -268 162.5t-148 272.5q-1 6 -9.5 54.5t-10.5 76.5 q-8 118 8 262l-41 -10q-12 1 -13.5 32zM840 2660q72 83 160 204.5t159 238.5q24 43 51.5 52.5t71.5 -13.5q10 -10 18.5 -21.5t18 -27.5t14 -24.5t14.5 -30.5t13 -27q123 -223 235 -363q7 -11 -14.5 -34t-47.5 -37.5t-32 -4.5q-25 32 -47.5 63t-39 54t-36.5 55t-29.5 47 t-29.5 50.5t-26 46.5t-29 53.5t-29 52.5q-115 -168 -307 -409q-8 -9 -33 6.5t-44 38t-11 30.5z" />
<glyph unicode="&#xcb;" horiz-adv-x="1818" d="M64.5 911q-1.5 31 6.5 62t21 31q8 1 22.5 4t22.5 4q28 144 113 424q150 464 301 831q-71 -8 -212 -22.5t-212 -22.5q-12 1 -13 32t8 61t21 28q76 8 228.5 24.5t228.5 24.5l68 158q0 13 31 16t61.5 -4t30.5 -18l-60 -140q359 36 934 82q95 7 143 10.5t62 5t64 5.5t134 10 q10 -6 9.5 -34t-11 -58.5t-22.5 -28.5q-120 -7 -402 -31q-794 -67 -964 -84q-166 -416 -307 -845q-84 -283 -109 -400q950 194 1294 262q20 -3 13.5 -63.5t-25.5 -60.5q-194 -37 -407.5 -80t-487 -99.5t-407.5 -83.5q-20 -141 -9 -256q2 -42 17 -118q16 -70 33 -105 q26 -58 63.5 -103t76 -73t96.5 -52t102.5 -37t115.5 -30q119 -16 242 -19t260 7.5t233 22t252 32.5q12 -2 13 -33t-8 -60.5t-21 -27.5q-206 -29 -345.5 -43t-327 -14.5t-347.5 25.5q-15 4 -64.5 14.5t-76.5 19.5q-165 56 -268 162.5t-148 272.5q-1 6 -9.5 54.5t-10.5 76.5 q-8 118 8 262l-41 -10q-12 1 -13.5 32zM895 2763q-2 8 9 16t28 13.5t34.5 8t30.5 0.5t15 -10q4 -8 13.5 -39.5t16.5 -58.5l7 -27q5 -12 -23 -27t-55.5 -18.5t-36.5 7.5q-34 121 -39 135zM1327 2757q-5 12 23 28t55.5 20t36.5 -7q9 -20 11.5 -34.5t9 -32t28.5 -56.5 q6 -12 -19.5 -31.5t-52 -27.5t-37.5 1q-13 27 -15 27l-5 12z" />
<glyph unicode="&#xcc;" horiz-adv-x="2031" d="M56 -60.5q-2 13.5 1 31t8 35t12.5 28.5t14.5 9q173 6 488.5 20t431.5 19q-2 39 -2 115q-2 81 -17 573q-6 217 -22 629q-27 495 -31 540q-1 38 -6 114t-6 114q-58 -15 -88 -17q-100 -21 -293 -53q-15 -3 -58.5 -11t-64.5 -12.5t-55 -12.5t-62 -17q-42 -10 -110 -39 q-13 -1 -21 29t-6 60.5t14 31.5q58 23 131 43q21 5 246 49q47 10 145.5 26.5t145.5 26.5q93 15 289 56q108 26 248 53q73 18 147 33q13 -2 15.5 -33t-4.5 -61t-19 -29q-26 -4 -77 -16.5t-75 -16.5q-41 -8 -125 -25.5t-125 -25.5q-14 -3 -42 -8.5t-40 -8.5q2 -36 7.5 -108.5 t7.5 -108.5q7 -103 16 -291.5t12 -248.5q22 -466 27 -633q12 -554 12 -574q4 -45 4 -137l105 6l737 31q7 -1 9 -14.5t-0.5 -31t-7 -35t-12 -29t-15.5 -9.5q-127 -5 -372 -16.5t-362 -16.5q-913 -43 -1146 -49q-8 2 -10 15.5zM600 2916q-9 9 10.5 31.5t46.5 38t35 6.5 q15 -21 71 -94.5t85 -116.5q46 -63 116 -158.5t89 -121.5q6 -9 -16.5 -30t-49.5 -35t-33 -5q-11 15 -80.5 115.5t-119.5 167.5q-29 40 -154 202z" />
<glyph unicode="&#xcd;" horiz-adv-x="2031" d="M56 -60.5q-2 13.5 1 31t8 35t12.5 28.5t14.5 9q173 6 488.5 20t431.5 19q-2 39 -2 115q-2 81 -17 573q-6 217 -22 629q-27 495 -31 540q-1 38 -6 114t-6 114q-58 -15 -88 -17q-100 -21 -293 -53q-15 -3 -58.5 -11t-64.5 -12.5t-55 -12.5t-62 -17q-42 -10 -110 -39 q-13 -1 -21 29t-6 60.5t14 31.5q58 23 131 43q21 5 246 49q47 10 145.5 26.5t145.5 26.5q93 15 289 56q108 26 248 53q73 18 147 33q13 -2 15.5 -33t-4.5 -61t-19 -29q-26 -4 -77 -16.5t-75 -16.5q-41 -8 -125 -25.5t-125 -25.5q-14 -3 -42 -8.5t-40 -8.5q2 -36 7.5 -108.5 t7.5 -108.5q7 -103 16 -291.5t12 -248.5q22 -466 27 -633q12 -554 12 -574q4 -45 4 -137l105 6l737 31q7 -1 9 -14.5t-0.5 -31t-7 -35t-12 -29t-15.5 -9.5q-127 -5 -372 -16.5t-362 -16.5q-913 -43 -1146 -49q-8 2 -10 15.5zM813 2523q19 16 118.5 98.5t106.5 88.5 q73 62 246 223q8 8 32.5 -10.5t41.5 -44t8 -33.5q2 0 -38.5 -38.5t-101.5 -94t-108 -95.5q-34 -27 -136 -111l-101 -85q-11 -6 -32 17.5t-33.5 51t-2.5 33.5z" />
<glyph unicode="&#xce;" horiz-adv-x="2031" d="M56 -60.5q-2 13.5 1 31t8 35t12.5 28.5t14.5 9q173 6 488.5 20t431.5 19q-2 39 -2 115q-2 81 -17 573q-6 217 -22 629q-27 495 -31 540q-1 38 -6 114t-6 114q-58 -15 -88 -17q-100 -21 -293 -53q-15 -3 -58.5 -11t-64.5 -12.5t-55 -12.5t-62 -17q-42 -10 -110 -39 q-13 -1 -21 29t-6 60.5t14 31.5q58 23 131 43q21 5 246 49q47 10 145.5 26.5t145.5 26.5q93 15 289 56q108 26 248 53q73 18 147 33q13 -2 15.5 -33t-4.5 -61t-19 -29q-26 -4 -77 -16.5t-75 -16.5q-41 -8 -125 -25.5t-125 -25.5q-14 -3 -42 -8.5t-40 -8.5q2 -36 7.5 -108.5 t7.5 -108.5q7 -103 16 -291.5t12 -248.5q22 -466 27 -633q12 -554 12 -574q4 -45 4 -137l105 6l737 31q7 -1 9 -14.5t-0.5 -31t-7 -35t-12 -29t-15.5 -9.5q-127 -5 -372 -16.5t-362 -16.5q-913 -43 -1146 -49q-8 2 -10 15.5zM541 2513q72 83 160.5 203.5t160.5 238.5 q45 85 121 39q13 -12 25.5 -30.5t18 -29t18.5 -38t16 -33.5q61 -110 114 -193t123 -169q6 -11 -15.5 -34t-47.5 -37t-33 -5q-24 32 -46.5 63t-38.5 54t-35.5 54.5t-30 47.5t-29.5 50.5t-26 46.5t-29 53t-29 53q-172 -241 -309 -410q-8 -8 -33 7.5t-44 38t-11 30.5z" />
<glyph unicode="&#xcf;" horiz-adv-x="2031" d="M56 -60.5q-2 13.5 1 31t8 35t12.5 28.5t14.5 9q173 6 488.5 20t431.5 19q-2 39 -2 115q-2 81 -17 573q-6 217 -22 629q-27 495 -31 540q-1 38 -6 114t-6 114q-58 -15 -88 -17q-100 -21 -293 -53q-15 -3 -58.5 -11t-64.5 -12.5t-55 -12.5t-62 -17q-42 -10 -110 -39 q-13 -1 -21 29t-6 60.5t14 31.5q58 23 131 43q21 5 246 49q47 10 145.5 26.5t145.5 26.5q93 15 289 56q108 26 248 53q73 18 147 33q13 -2 15.5 -33t-4.5 -61t-19 -29q-26 -4 -77 -16.5t-75 -16.5q-41 -8 -125 -25.5t-125 -25.5q-14 -3 -42 -8.5t-40 -8.5q2 -36 7.5 -108.5 t7.5 -108.5q7 -103 16 -291.5t12 -248.5q22 -466 27 -633q12 -554 12 -574q4 -45 4 -137l105 6l737 31q7 -1 9 -14.5t-0.5 -31t-7 -35t-12 -29t-15.5 -9.5q-127 -5 -372 -16.5t-362 -16.5q-913 -43 -1146 -49q-8 2 -10 15.5zM639 2664q-2 10 15 19.5t39 15t42 5t23 -10.5 l35 -125q5 -12 -23 -27.5t-55.5 -19t-36.5 7.5q-34 121 -39 135zM1071 2658q-5 12 23 28t55.5 20t36.5 -7q9 -20 11.5 -34.5t9 -32t28.5 -56.5q7 -12 -18.5 -31t-52.5 -27t-38 1q-13 27 -15 27l-6 16q-15 43 -34 96z" />
<glyph unicode="&#xd0;" horiz-adv-x="2621" d="M81.5 2257q10.5 26 32.5 53.5t29 28.5q42 13 112.5 25t199.5 25t281.5 12.5t357.5 -13.5q101 -7 194.5 -19t172 -28.5t144 -32t126.5 -37.5t102 -37t87 -38t66.5 -33.5t55.5 -31t39 -22.5q101 -56 184 -128t132 -135t85.5 -130t51 -109t22.5 -77q46 -226 -3.5 -404 t-219.5 -350q-360 -368 -936 -602q-72 -29 -151.5 -57t-138 -46.5t-134 -40.5t-109 -31t-96 -25.5t-63.5 -16.5q-13 2 -15 33t6 60.5t19 27.5q26 8 33 10q2 254 4 436.5t3 250.5t2 124t1 105q-2 77 -4 216t-4 210q-374 0 -560 2q-11 0 -14.5 28.5t1.5 57t16 28.5 q307 -10 555 -10q-3 100 -16.5 347.5t-20.5 397.5q-162 -8 -248 -14q-86 -8 -161 -19t-103.5 -18t-64.5 -11t-42 3q-21 9 -10.5 35zM829 2281q6 -127 14.5 -289t13 -266.5t7.5 -191.5q426 0 643 -4q18 -2 17 -58.5t-21 -56.5q-532 10 -635 10q1 -43 6 -393 q0 -79 -0.5 -155.5t-2 -279.5t-3.5 -476q309 84 525 178q323 131 505 249t318 261q28 29 53.5 59.5t55.5 73.5t53.5 87.5t43.5 99t30 109t9 118t-16 125.5q-13 51 -25.5 88.5t-44.5 99.5t-74.5 112.5t-117.5 112.5t-172 115q-229 127 -512 196.5t-670 75.5z" />
<glyph unicode="&#xd1;" horiz-adv-x="1683" d="M61 2359q-4 17 49.5 37t65.5 6q27 9 303 -458q40 -71 142 -255t159 -284q176 -322 252 -471q34 -61 201 -377q1 -2 14.5 -28.5t19 -37t20 -38t23 -42.5t23 -40t24.5 -40t22 -32.5t22.5 -29t19.5 -17.5q42 79 49 366q3 53 25 525q12 261 12 522q0 3 -6 432q-6 90 0 176 q-3 15 38 29q52 17 73 6q6 -3 6 -8v-174q8 -285 10 -434q0 -175 -12 -523q-3 -88 -11.5 -263t-11.5 -263q-18 -254 -30 -336q-8 -35 -17 -60t-24.5 -52t-41.5 -42.5t-61 -17.5q-75 7 -141 94q-70 104 -152 258q-161 316 -196 381q-207 390 -252 471q-263 469 -301 533 q-31 53 -93 156t-71 118l39 -323q50 -437 65 -606q46 -499 48 -525q13 -245 32 -456q11 -182 25 -295q5 -11 -23 -26.5t-55.5 -20.5t-36.5 4q-9 60 -17.5 172t-10.5 131q-5 79 -16.5 229.5t-16.5 224.5q-9 138 -45 525q-31 315 -64 606q-31 258 -76 573zM414 2529 q4 87 51 129q14 12 31.5 20.5t33.5 14t38.5 7.5t37.5 3t42.5 -2t40 -4.5t43 -8t40 -9t42 -10t38.5 -9.5q4 -1 32 -7t40 -8t41 -7.5t45.5 -7t43 -3.5t44 -0.5t37.5 4.5t35 10t26 17q31 24 43 68q2 9 15 12.5t30 0.5t33 -8.5t26 -16t7 -21.5q-21 -80 -78 -125 q-51 -40 -123.5 -51t-136 -3t-160.5 30q-16 3 -60 12.5t-75.5 15.5t-70 10.5t-65.5 1t-40 -15.5q-11 -22 -11 -39q-1 -19 -31 -28.5t-58.5 -2t-26.5 30.5z" />
<glyph unicode="&#xd2;" horiz-adv-x="2156" d="M66 1108q20 239 59 367q69 205 141 337q94 178 197 291q51 57 85 92t87 76.5t106 67.5q146 77 263 69q132 -11 215 -65q19 -14 -29 -70q169 7 285 -32q160 -47 268 -144q130 -120 196 -239q93 -165 129 -314q38 -174 29 -354q-17 -233 -72 -397q-75 -217 -194 -344 q-92 -95 -177 -165t-179 -120q-218 -121 -377 -148q-187 -31 -367 -4q-206 46 -321 123q-147 108 -220 258q-86 176 -108 340q-28 221 -16 375zM186 1126q-13 -149 15 -352q15 -140 94 -319q66 -132 192 -226q101 -64 289 -102q145 -21 334 10q161 35 348 148 q185 112 285 231.5t162 276.5q54 159 71 374q14 157 -22 334q-26 128 -115 289q-70 122 -180 215q-96 86 -238 129q-114 29 -297 18q-152 -3 -293 -75q-73 -40 -163 -133q-19 -4 -37.5 53t-1.5 63q39 35 63.5 55.5t60.5 45.5t72 41q145 56 267 69q-53 16 -125 23 q-93 -5 -213 -76q-7 -4 -21 -13t-16 -10q-169 -119 -330 -397q-87 -165 -137 -323q-46 -139 -64 -349zM848 2920q-8 8 11.5 30.5t46 37.5t34.5 6q75 -96 158 -209q114 -154 202 -282q7 -9 -15 -29.5t-49 -34t-34 -4.5q-16 22 -83.5 119t-114.5 162q-53 76 -156 204z" />
<glyph unicode="&#xd3;" horiz-adv-x="2156" d="M66 1108q20 239 59 367q69 205 141 337q94 178 197 291q51 57 85 92t87 76.5t106 67.5q146 77 263 69q132 -11 215 -65q19 -14 -29 -70q169 7 285 -32q160 -47 268 -144q130 -120 196 -239q93 -165 129 -314q38 -174 29 -354q-17 -233 -72 -397q-75 -217 -194 -344 q-92 -95 -177 -165t-179 -120q-218 -121 -377 -148q-187 -31 -367 -4q-206 46 -321 123q-147 108 -220 258q-86 176 -108 340q-28 221 -16 375zM186 1126q-13 -149 15 -352q15 -140 94 -319q66 -132 192 -226q101 -64 289 -102q145 -21 334 10q161 35 348 148 q185 112 285 231.5t162 276.5q54 159 71 374q14 157 -22 334q-26 128 -115 289q-70 122 -180 215q-96 86 -238 129q-114 29 -297 18q-152 -3 -293 -75q-73 -40 -163 -133q-19 -4 -37.5 53t-1.5 63q39 35 63.5 55.5t60.5 45.5t72 41q145 56 267 69q-53 16 -125 23 q-93 -5 -213 -76q-7 -4 -21 -13t-16 -10q-169 -119 -330 -397q-87 -165 -137 -323q-46 -139 -64 -349zM1042 2556q121 99 226 186q47 40 89.5 78.5t96.5 89.5t59 56q8 8 32.5 -11t41.5 -44.5t8 -33.5q2 0 -38 -38t-101 -93.5t-108 -95.5q-25 -20 -76 -62t-101.5 -84 t-60.5 -50q-11 -6 -32 17.5t-33.5 51t-2.5 33.5z" />
<glyph unicode="&#xd4;" horiz-adv-x="2156" d="M66 1108q20 239 59 367q69 205 141 337q94 178 197 291q51 57 85 92t87 76.5t106 67.5q146 77 263 69q132 -11 215 -65q19 -14 -29 -70q169 7 285 -32q160 -47 268 -144q130 -120 196 -239q93 -165 129 -314q38 -174 29 -354q-17 -233 -72 -397q-75 -217 -194 -344 q-92 -95 -177 -165t-179 -120q-218 -121 -377 -148q-187 -31 -367 -4q-206 46 -321 123q-147 108 -220 258q-86 176 -108 340q-28 221 -16 375zM186 1126q-13 -149 15 -352q15 -140 94 -319q66 -132 192 -226q101 -64 289 -102q145 -21 334 10q161 35 348 148 q185 112 285 231.5t162 276.5q54 159 71 374q14 157 -22 334q-26 128 -115 289q-70 122 -180 215q-96 86 -238 129q-114 29 -297 18q-152 -3 -293 -75q-73 -40 -163 -133q-19 -4 -37.5 53t-1.5 63q39 35 63.5 55.5t60.5 45.5t72 41q145 56 267 69q-53 16 -125 23 q-93 -5 -213 -76q-7 -4 -21 -13t-16 -10q-169 -119 -330 -397q-87 -165 -137 -323q-46 -139 -64 -349zM633 2593q71 81 159.5 202t161.5 240q45 85 121 39q12 -13 24.5 -31.5t18.5 -29.5t19 -37.5t16 -32.5q118 -218 236 -365q7 -11 -14.5 -33t-48 -36.5t-32.5 -5.5 q-20 26 -38.5 51t-33 45t-30.5 44.5t-26 39.5t-25 41t-22.5 37.5t-23 40.5t-21 39t-23 42.5t-23.5 43.5q-134 -196 -307 -410q-8 -9 -33 6t-44 38t-11 32z" />
<glyph unicode="&#xd5;" horiz-adv-x="2156" d="M66 1108q20 239 59 367q69 205 141 337q94 178 197 291q51 57 85 92t87 76.5t106 67.5q146 77 263 69q132 -11 215 -65q19 -14 -29 -70q169 7 285 -32q160 -47 268 -144q130 -120 196 -239q93 -165 129 -314q38 -174 29 -354q-17 -233 -72 -397q-75 -217 -194 -344 q-92 -95 -177 -165t-179 -120q-218 -121 -377 -148q-187 -31 -367 -4q-206 46 -321 123q-147 108 -220 258q-86 176 -108 340q-28 221 -16 375zM186 1126q-13 -149 15 -352q15 -140 94 -319q66 -132 192 -226q101 -64 289 -102q145 -21 334 10q161 35 348 148 q185 112 285 231.5t162 276.5q54 159 71 374q14 157 -22 334q-26 128 -115 289q-70 122 -180 215q-96 86 -238 129q-114 29 -297 18q-152 -3 -293 -75q-73 -40 -163 -133q-19 -4 -37.5 53t-1.5 63q39 35 63.5 55.5t60.5 45.5t72 41q145 56 267 69q-53 16 -125 23 q-93 -5 -213 -76q-7 -4 -21 -13t-16 -10q-169 -119 -330 -397q-87 -165 -137 -323q-46 -139 -64 -349zM602 2583q8 92 53 127q20 17 43.5 28t56 13.5t51.5 4t62.5 -5.5t55.5 -9t63 -14t55 -13q54 -12 85.5 -18t91 -14t102 -0.5t65.5 28.5q33 30 44 69q2 8 14.5 11.5t29.5 1 t33 -8.5t26 -16t7 -21q-21 -83 -78 -125q-51 -41 -124.5 -52t-134.5 -3t-161 29q-17 3 -60 12.5t-75 16t-70.5 11.5t-65.5 1.5t-40 -15.5q-10 -25 -10 -38q-2 -19 -32 -28.5t-59 -2t-28 30.5z" />
<glyph unicode="&#xd6;" horiz-adv-x="2156" d="M66 1108q20 239 59 367q69 205 141 337q94 178 197 291q51 57 85 92t87 76.5t106 67.5q146 77 263 69q132 -11 215 -65q19 -14 -29 -70q169 7 285 -32q160 -47 268 -144q130 -120 196 -239q93 -165 129 -314q38 -174 29 -354q-17 -233 -72 -397q-75 -217 -194 -344 q-92 -95 -177 -165t-179 -120q-218 -121 -377 -148q-187 -31 -367 -4q-206 46 -321 123q-147 108 -220 258q-86 176 -108 340q-28 221 -16 375zM186 1126q-13 -149 15 -352q15 -140 94 -319q66 -132 192 -226q101 -64 289 -102q145 -21 334 10q161 35 348 148 q185 112 285 231.5t162 276.5q54 159 71 374q14 157 -22 334q-26 128 -115 289q-70 122 -180 215q-96 86 -238 129q-114 29 -297 18q-152 -3 -293 -75q-73 -40 -163 -133q-19 -4 -37.5 53t-1.5 63q39 35 63.5 55.5t60.5 45.5t72 41q145 56 267 69q-53 16 -125 23 q-93 -5 -213 -76q-7 -4 -21 -13t-16 -10q-169 -119 -330 -397q-87 -165 -137 -323q-46 -139 -64 -349zM750 2746q-2 8 9 16t28 13.5t35 8.5t31 1t15 -10q4 -8 13.5 -39.5t16.5 -58.5l7 -27q4 -12 -24 -27.5t-55 -19t-35 7.5q-5 16 -18.5 63.5t-22.5 71.5zM1184 2740 q-5 12 23 28t55 20t36 -7q8 -20 11 -34.5t10 -32t29 -56.5q6 -12 -20 -31t-52.5 -27t-36.5 1q-15 28 -16 27l-2 4z" />
<glyph unicode="&#xd7;" horiz-adv-x="1497" d="M61 1491q-8 8 7.5 32.5t38 43t30.5 10.5q106 -97 303.5 -288t221.5 -214q25 34 72.5 104.5t72.5 104.5q37 51 107.5 143t97.5 129q58 75 131 148q12 12 55 -31t31 -55q-59 -54 -121 -137q-87 -110 -203 -264q-106 -152 -155 -224q199 -194 507 -506q19 -17 34.5 -32 t24.5 -23.5t16 -15t12.5 -12l8.5 -8.5t11 -9.5t14 -11t22 -17.5t30 -24q8 -8 -7.5 -33t-38 -44t-30.5 -11q-80 65 -100 85q-45 47 -78 79q-221 226 -488 487q-56 -79 -88 -131q-10 -15 -56 -80.5t-65 -91.5t-56.5 -77t-69 -90t-64.5 -77q-8 -8 -33 10t-43 43t-10 33 q118 131 299 400q82 122 100 147q-265 262 -541 508z" />
<glyph unicode="&#xd8;" horiz-adv-x="2156" d="M66 1108q20 239 59 367q69 205 141 337q94 178 197 291q51 57 85 92t87 76.5t106 67.5q146 77 263 69q132 -11 215 -65q19 -14 -29 -70q105 0 158 -6q13 46 80 274.5t102 352.5q2 7 15.5 8t31 -2t35 -9t28.5 -14t9 -16q-50 -176 -181 -620h7q160 -47 268 -144 q130 -120 196 -239q93 -165 129 -314q38 -174 29 -354q-17 -233 -72 -397q-75 -217 -194 -344q-92 -95 -177 -165t-179 -120q-218 -121 -377 -148q-153 -24 -301 -12q-20 -64 -78.5 -251.5t-89.5 -289.5q-9 -10 -36.5 -7t-56 18t-24.5 28q23 77 49.5 165t59.5 194.5 t51 165.5q-167 42 -262 108q-147 108 -220 258q-86 176 -108 340q-28 221 -16 375zM186 1126q-13 -149 15 -352q15 -140 94 -319q66 -132 192 -226q83 -57 222 -88q24 79 71 234.5t72 234.5l383 1278l80 264q-80 7 -191 0q-152 -3 -293 -75q-73 -40 -163 -133 q-19 -4 -37.5 53t-1.5 63q39 35 63.5 55.5t60.5 45.5t72 41q145 56 267 69q-53 16 -125 23q-93 -5 -213 -76q-7 -4 -21 -13t-16 -10q-169 -119 -330 -397q-87 -165 -137 -323q-46 -139 -64 -349zM829 121q115 -12 281 16q161 35 348 148q185 112 285 231.5t162 276.5 q54 159 71 374q14 157 -22 334q-26 128 -115 289q-70 122 -180 215q-91 82 -223 125q-1 -3 -82 -279l-383 -1278q-100 -311 -142 -452z" />
<glyph unicode="&#xd9;" horiz-adv-x="1779" d="M66 1544q7 281 26 459q30 215 55 336q0 13 30.5 19.5t60.5 3.5t30 -15q-23 -111 -55 -326q-18 -166 -29 -452q-6 -256 2 -482q7 -171 43 -419q25 -165 86 -314q43 -107 138 -178q86 -51 190 -45q89 12 199 92q38 28 68.5 56t42.5 42.5t40 49.5q91 117 166 288 q63 138 123 367q20 81 84 399q38 235 55 371q8 47 37 256q17 71 17 78q2 14 32 17t59 -9.5t29 -36.5q4 -80 4 -237q0 -151 7 -363q4 -160 16 -436q7 -171 29 -453q37 -363 43 -415q3 -24 11 -74t11 -74q5 -11 -22.5 -26.5t-55 -20.5t-36.5 4q-22 147 -23 154 q-27 206 -45 418q-16 175 -31 454q-12 276 -16 410q-52 -284 -84 -410q-57 -226 -121 -383q-91 -202 -168 -305q-111 -149 -250 -240q-139 -87 -248 -92q-136 0 -239 70q-120 87 -170 213q-70 178 -92 334q-37 224 -45 426q-13 255 -4 489zM594 2824q-9 9 10 32t45.5 38 t34.5 6q17 -23 50 -65.5t59 -77t49 -66.5q65 -89 202 -283q10 -15 -38.5 -49t-59.5 -20q-156 225 -198 282q-28 39 -154 203z" />
<glyph unicode="&#xda;" horiz-adv-x="1779" d="M66 1544q7 281 26 459q30 215 55 336q0 13 30.5 19.5t60.5 3.5t30 -15q-23 -111 -55 -326q-18 -166 -29 -452q-6 -256 2 -482q7 -171 43 -419q25 -165 86 -314q43 -107 138 -178q86 -51 190 -45q89 12 199 92q38 28 68.5 56t42.5 42.5t40 49.5q91 117 166 288 q63 138 123 367q20 81 84 399q38 235 55 371q8 47 37 256q17 71 17 78q2 14 32 17t59 -9.5t29 -36.5q4 -80 4 -237q0 -151 7 -363q4 -160 16 -436q7 -171 29 -453q37 -363 43 -415q3 -24 11 -74t11 -74q5 -11 -22.5 -26.5t-55 -20.5t-36.5 4q-22 147 -23 154 q-27 206 -45 418q-16 175 -31 454q-12 276 -16 410q-52 -284 -84 -410q-57 -226 -121 -383q-91 -202 -168 -305q-111 -149 -250 -240q-139 -87 -248 -92q-136 0 -239 70q-120 87 -170 213q-70 178 -92 334q-37 224 -45 426q-13 255 -4 489zM700 2486q103 84 228 189 q97 82 246 221q8 8 31.5 -10.5t40.5 -43.5t9 -34q1 0 -39 -37.5t-102 -93.5t-108 -94q-108 -92 -236 -197q-11 -7 -32 16t-34 50.5t-4 33.5z" />
<glyph unicode="&#xdb;" horiz-adv-x="1779" d="M66 1544q7 281 26 459q30 215 55 336q0 13 30.5 19.5t60.5 3.5t30 -15q-23 -111 -55 -326q-18 -166 -29 -452q-6 -256 2 -482q7 -171 43 -419q25 -165 86 -314q43 -107 138 -178q86 -51 190 -45q89 12 199 92q38 28 68.5 56t42.5 42.5t40 49.5q91 117 166 288 q63 138 123 367q20 81 84 399q38 235 55 371q8 47 37 256q17 71 17 78q2 14 32 17t59 -9.5t29 -36.5q4 -80 4 -237q0 -151 7 -363q4 -160 16 -436q7 -171 29 -453q37 -363 43 -415q3 -24 11 -74t11 -74q5 -11 -22.5 -26.5t-55 -20.5t-36.5 4q-22 147 -23 154 q-27 206 -45 418q-16 175 -31 454q-12 276 -16 410q-52 -284 -84 -410q-57 -226 -121 -383q-91 -202 -168 -305q-111 -149 -250 -240q-139 -87 -248 -92q-136 0 -239 70q-120 87 -170 213q-70 178 -92 334q-37 224 -45 426q-13 255 -4 489zM520 2437q73 83 162 203.5 t160 238.5q24 44 51.5 54.5t69.5 -13.5q13 -13 25.5 -31t18.5 -30t18.5 -37.5t16.5 -32.5q111 -211 236 -364q6 -11 -15.5 -33.5t-47 -37t-31.5 -5.5q-20 26 -38.5 51t-33 45t-30.5 44.5t-26 39.5t-25 41t-22.5 37.5t-23 40.5t-21 39t-23 42.5t-23.5 43.5 q-40 -59 -136 -187.5t-172 -222.5q-8 -9 -33.5 6t-45 37t-11.5 31z" />
<glyph unicode="&#xdc;" horiz-adv-x="1779" d="M66 1544q7 281 26 459q30 215 55 336q0 13 30.5 19.5t60.5 3.5t30 -15q-23 -111 -55 -326q-18 -166 -29 -452q-6 -256 2 -482q7 -171 43 -419q25 -165 86 -314q43 -107 138 -178q86 -51 190 -45q89 12 199 92q38 28 68.5 56t42.5 42.5t40 49.5q91 117 166 288 q63 138 123 367q20 81 84 399q38 235 55 371q8 47 37 256q17 71 17 78q2 14 32 17t59 -9.5t29 -36.5q4 -80 4 -237q0 -151 7 -363q4 -160 16 -436q7 -171 29 -453q37 -363 43 -415q3 -24 11 -74t11 -74q5 -11 -22.5 -26.5t-55 -20.5t-36.5 4q-22 147 -23 154 q-27 206 -45 418q-16 175 -31 454q-12 276 -16 410q-52 -284 -84 -410q-57 -226 -121 -383q-91 -202 -168 -305q-111 -149 -250 -240q-139 -87 -248 -92q-136 0 -239 70q-120 87 -170 213q-70 178 -92 334q-37 224 -45 426q-13 255 -4 489zM610 2519q-4 13 25.5 26t57 15 t34.5 -10q4 -9 13.5 -40t16.5 -58l7 -27q5 -13 -23 -28t-55.5 -18.5t-36.5 7.5q-5 16 -17.5 63t-21.5 70zM1042 2513q-5 13 23 29.5t55.5 20.5t36.5 -7q6 -15 13.5 -44.5t35.5 -80.5q6 -11 -20 -29.5t-52 -26.5t-36 1q-14 26 -17 26l-4 11z" />
<glyph unicode="&#xdd;" horiz-adv-x="1759" d="M59 2261q-9 9 7.5 34t41 43t33.5 9q296 -349 717 -770q150 -152 397 -381q102 323 207 567q143 345 285 602q5 12 33 11.5t59 -12.5t29 -25q-116 -209 -285 -592q-47 -111 -99.5 -255.5t-76 -216t-84.5 -259.5q-95 -310 -180 -676q-18 -72 -58 -270q1 -13 -29.5 -18 t-61.5 0t-31 18q12 65 57 274q115 471 182 678q13 49 17 63q-1 -3 -6 -3t-7 3q-239 213 -426 400q-418 421 -721 776zM776 2497q212 174 228 186q81 70 245 223q8 8 32 -10.5t41 -43.5t9 -34q1 0 -39 -37.5t-102.5 -93.5t-108.5 -94q-196 -167 -235 -197q-11 -7 -32 16 t-34 51t-4 34z" />
<glyph unicode="&#xde;" horiz-adv-x="1802" d="M62.5 68q-2.5 30 4.5 59t19 27q103 -5 123 -7v5q2 40 7 116t7 113q5 44 13.5 134t13.5 134q2 32 6.5 92.5t7.5 110.5t4 94q3 58 11.5 174.5t11.5 173.5q6 72 14.5 205.5t9.5 151.5q2 106 2 319q-2 94 -2 285q0 111 2 166q0 20 62.5 20t62.5 -20q-6 -55 -6 -166v-236 q223 -33 502 -123q274 -94 526 -303q186 -167 252 -358q9 -25 25 -78q41 -219 -92 -432q-9 -14 -19.5 -27.5t-25 -31t-19.5 -23.5q-99 -120 -229.5 -214.5t-300.5 -186.5q-248 -126 -617 -197q-2 0 -116 -12q-2 -15 -5.5 -50.5t-5.5 -54.5q-12 -130 -22 -194q-4 -18 -10 -35 q-2 -8 -15.5 -10t-31 1t-35 8.5t-28.5 13.5t-9 16q2 7 4 10.5t4 11.5q20 154 22 191l11 88q-21 2 -62.5 4t-62.5 4q-11 1 -13.5 31zM332 152q44 3 84 12q338 62 583 184q323 165 492 363q85 116 118.5 206t16.5 207q-4 13 -9 35.5t-7 30.5q-53 154 -221 311 q-219 186 -488 285q-275 89 -465 110q3 -110 -4 -247q-1 -54 -4 -114t-7.5 -133t-6.5 -114q-6 -68 -25 -350q-13 -209 -22 -299q-3 -44 -11.5 -134t-11.5 -134q-9 -108 -12 -219z" />
<glyph unicode="&#xdf;" horiz-adv-x="995" d="M59 -387l39 88q52 137 76 227q29 105 59 367q16 180 9 410q-7 163 -29 409q-6 69 -22.5 201t-22.5 196q-25 189 -10 369q17 157 67 256q42 71 85 117.5t106 73.5q108 51 243 12q76 -20 117 -75t45 -129.5t-11 -151t-46 -154.5q-52 -115 -158 -316q-85 -153 -119 -239 q-6 -15 -7 -26.5t3.5 -19t11 -12.5t19 -9t23.5 -6.5t27.5 -6.5t29.5 -8q104 -33 192.5 -118t126.5 -194q4 -5 6.5 -12.5t5.5 -17.5t5 -15q39 -139 -12 -284q-59 -177 -234 -352q-8 -8 -24.5 -23t-24.5 -23q-89 -81 -199 -143q-9 -7 -28.5 16t-31.5 50.5t-3 33.5 q116 69 184 129q156 142 229 295q11 30 21 52q37 102 12 213q-40 121 -110 186q-81 71 -156 96q-29 9 -43 13.5t-39 13.5t-37 15.5t-29.5 18.5t-24.5 23.5t-15 28.5t-8 36t4.5 43.5t15.5 53.5q27 60 125 248q120 230 149 303q22 53 33 81t22 73t11 83q-5 41 -18.5 64 t-47.5 43q-87 32 -155 12q-92 -29 -142 -108q-67 -111 -82 -248q-9 -182 11 -348q34 -280 45 -398q26 -306 28 -417q7 -248 -8 -424q-29 -269 -59 -387q-41 -145 -80 -238l-39 -98q-10 -10 -36.5 -3t-53 25t-21.5 29z" />
<glyph unicode="&#xe0;" horiz-adv-x="1015" d="M94 311.5q4 68.5 17.5 129t35.5 122.5q84 231 289 400q83 78 213 141q46 27 121 55q64 23 88 27q16 4 21 -43q7 -54 -8 -69q-3 -4 -7 -3q-19 -6 -57.5 -21t-46.5 -18q31 -13 31 -28q14 -240 -31 -418q-4 -319 31 -484q6 -12 -21.5 -29.5t-55 -23.5t-36.5 4 q-27 123 -33 246q-48 -78 -76 -109q-79 -103 -176 -145q-53 -23 -114 -15.5t-103 46.5q-45 43 -65.5 105t-16.5 130.5zM215 289.5q3 -34.5 10.5 -66.5t30 -54t55.5 -22q30 0 78 23q110 66 211 289q27 76 39 135q5 53 11.5 187.5t15.5 205.5q-253 -141 -371 -369 q-66 -126 -78 -268q-5 -26 -2 -60.5zM317 1757q-8 8 12 30.5t46.5 37.5t34.5 6q57 -73 157 -209q10 -14 203 -283q6 -9 -16.5 -29.5t-49 -33.5t-32.5 -4q-7 10 -78.5 111t-122.5 169q-72 103 -154 205z" />
<glyph unicode="&#xe1;" horiz-adv-x="1015" d="M94 311.5q4 68.5 17.5 129t35.5 122.5q84 231 289 400q83 78 213 141q46 27 121 55q64 23 88 27q16 4 21 -43q7 -54 -8 -69q-3 -4 -7 -3q-19 -6 -57.5 -21t-46.5 -18q31 -13 31 -28q14 -240 -31 -418q-4 -319 31 -484q6 -12 -21.5 -29.5t-55 -23.5t-36.5 4 q-27 123 -33 246q-48 -78 -76 -109q-79 -103 -176 -145q-53 -23 -114 -15.5t-103 46.5q-45 43 -65.5 105t-16.5 130.5zM215 289.5q3 -34.5 10.5 -66.5t30 -54t55.5 -22q30 0 78 23q110 66 211 289q27 76 39 135q5 53 11.5 187.5t15.5 205.5q-253 -141 -371 -369 q-66 -126 -78 -268q-5 -26 -2 -60.5zM438 1315q63 47 228 186q114 97 245 223q8 8 32 -11t41 -44.5t9 -34.5q1 0 -39 -37.5t-102.5 -93t-108.5 -94.5q-30 -25 -125.5 -105.5t-109.5 -91.5q-17 -9 -50.5 41.5t-19.5 61.5z" />
<glyph unicode="&#xe2;" horiz-adv-x="1015" d="M94 311.5q4 68.5 17.5 129t35.5 122.5q84 231 289 400q83 78 213 141q46 27 121 55q64 23 88 27q16 4 21 -43q7 -54 -8 -69q-3 -4 -7 -3q-19 -6 -57.5 -21t-46.5 -18q31 -13 31 -28q14 -240 -31 -418q-4 -319 31 -484q6 -12 -21.5 -29.5t-55 -23.5t-36.5 4 q-27 123 -33 246q-48 -78 -76 -109q-79 -103 -176 -145q-53 -23 -114 -15.5t-103 46.5q-45 43 -65.5 105t-16.5 130.5zM201 1327q180 209 319 442q24 43 51.5 52.5t71.5 -13.5q10 -10 18.5 -21.5t18 -27.5t14 -24.5t14.5 -30.5t13 -27q125 -227 235 -362q7 -12 -14.5 -34.5 t-47.5 -37t-32 -4.5q-25 32 -47.5 63t-39 54t-36.5 55t-29.5 47t-29.5 50.5t-26 46.5t-29 53.5t-29 52.5q-134 -196 -307 -410q-12 -14 -56 23.5t-32 52.5zM215 289.5q3 -34.5 10.5 -66.5t30 -54t55.5 -22q30 0 78 23q110 66 211 289q27 76 39 135q5 53 11.5 187.5 t15.5 205.5q-253 -141 -371 -369q-66 -126 -78 -268q-5 -26 -2 -60.5z" />
<glyph unicode="&#xe3;" horiz-adv-x="1015" d="M72 1307q8 91 53 129q16 13 34 22.5t40.5 14t39.5 7.5t46 0.5t44 -3.5t48 -8t44 -9t47.5 -11t43.5 -11q4 -1 32 -7t40 -8t41 -7.5t45.5 -7t43 -3.5t44 -0.5t37.5 4.5t35 10t26 17q32 29 41 67q2 9 15.5 12.5t30.5 1t33.5 -8t26.5 -16t7 -22.5q-26 -84 -80 -122 q-38 -31 -85 -46t-104 -13.5t-107.5 9t-121.5 23.5q-17 3 -60 12.5t-75 16t-70.5 11.5t-65.5 2t-40 -15l-3.5 -7t-3.5 -8t-2.5 -10t-1.5 -16q-1 -11 -14 -19.5t-30 -11.5t-34 -1.5t-29 10t-11 22.5zM94 311.5q4 68.5 17.5 129t35.5 122.5q84 231 289 400q83 78 213 141 q46 27 121 55q64 23 88 27q16 4 21 -43q7 -54 -8 -69q-3 -4 -7 -3q-19 -6 -57.5 -21t-46.5 -18q31 -13 31 -28q14 -240 -31 -418q-4 -319 31 -484q6 -12 -21.5 -29.5t-55 -23.5t-36.5 4q-27 123 -33 246q-48 -78 -76 -109q-79 -103 -176 -145q-53 -23 -114 -15.5t-103 46.5 q-45 43 -65.5 105t-16.5 130.5zM215 289.5q3 -34.5 10.5 -66.5t30 -54t55.5 -22q30 0 78 23q110 66 211 289q27 76 39 135q5 53 11.5 187.5t15.5 205.5q-253 -141 -371 -369q-66 -126 -78 -268q-5 -26 -2 -60.5z" />
<glyph unicode="&#xe4;" horiz-adv-x="1015" d="M94 311.5q4 68.5 17.5 129t35.5 122.5q84 231 289 400q83 78 213 141q46 27 121 55q64 23 88 27q16 4 21 -43q7 -54 -8 -69q-3 -4 -7 -3q-19 -6 -57.5 -21t-46.5 -18q31 -13 31 -28q14 -240 -31 -418q-4 -319 31 -484q6 -12 -21.5 -29.5t-55 -23.5t-36.5 4 q-27 123 -33 246q-48 -78 -76 -109q-79 -103 -176 -145q-53 -23 -114 -15.5t-103 46.5q-45 43 -65.5 105t-16.5 130.5zM215 289.5q3 -34.5 10.5 -66.5t30 -54t55.5 -22q30 0 78 23q110 66 211 289q27 76 39 135q5 53 11.5 187.5t15.5 205.5q-253 -141 -371 -369 q-66 -126 -78 -268q-5 -26 -2 -60.5zM252 1409q-2 8 9 16t28.5 13.5t35 8.5t31 1t15.5 -10q4 -8 13 -39t16 -57l6 -27q5 -13 -23 -28.5t-55.5 -19t-36.5 6.5q-34 121 -39 135zM684 1403q-4 13 24.5 29t55.5 20t35 -6q8 -18 14.5 -46.5t34.5 -78.5q7 -11 -18.5 -30t-52 -27 t-36.5 2q-14 26 -17 26l-9 22q-15 43 -31 89z" />
<glyph unicode="&#xe5;" horiz-adv-x="1015" d="M94 311.5q4 68.5 17.5 129t35.5 122.5q84 231 289 400q5 5 35 30q-49 15 -90 43q-60 37 -84.5 98t-15.5 127t43 136q46 97 125.5 157t173.5 78q105 13 196 -70t105 -198q14 -103 -50 -197q12 -44 2 -82q-5 -15 -12 -14q-19 -6 -57.5 -21t-46.5 -18q31 -13 31 -28 q14 -240 -31 -418q-4 -319 31 -484q6 -12 -21.5 -29.5t-55 -23.5t-36.5 4q-27 123 -33 246q-48 -78 -76 -109q-79 -103 -176 -145q-53 -23 -114 -15.5t-103 46.5q-45 43 -65.5 105t-16.5 130.5zM215 289.5q3 -34.5 10.5 -66.5t30 -54t55.5 -22q30 0 78 23q110 66 211 289 q27 76 39 135q5 53 11.5 187.5t15.5 205.5q-253 -141 -371 -369q-66 -126 -78 -268q-5 -26 -2 -60.5zM432 1348q-71 -154 14 -211q44 -31 100.5 -32t104.5 25q73 38 116.5 94t35.5 124q-5 59 -54.5 114t-105.5 49q-60 -8 -118 -50.5t-93 -112.5z" />
<glyph unicode="&#xe6;" horiz-adv-x="2064" d="M137 33q-36 103 6 229q50 133 146 240q118 134 239 223q173 120 285 164q40 14 71 23t69.5 16.5t74.5 6.5t70 -11q19 16 43 26q113 60 176 70q112 10 180 -33q77 -64 88 -156q12 -103 -41 -192q-68 -119 -155 -184q-130 -92 -238 -107q-51 -6 -102 0q6 -24 6 -49 q23 -33 47 -57q62 -62 188 -99q118 -28 295 -6q133 22 207 50t152 79q9 6 28.5 -17.5t31.5 -51t1 -33.5q-75 -52 -146 -81.5t-115 -38.5t-142 -24q-210 -26 -345 9q-54 17 -131 49l11 -19q7 -11 -19.5 -29t-53.5 -25.5t-36 1.5q-3 10 -12 23q-55 135 -70 200q0 12 -6 27 q-33 69 -39 104q-76 -128 -135 -192q-96 -111 -205 -168q-118 -59 -229 -70q-72 0 -118 22t-77 81zM252 76q5 -9 11 -14.5t15 -7t15 -2t18 0t17 0.5q76 7 176 56q93 46 174 141q68 77 145 219q49 96 90 213q22 59 27 82v10q6 25 10 29q-37 -7 -98 -29q-106 -42 -256 -147 q-108 -82 -215 -205q-81 -87 -125 -203q-26 -89 -4 -143zM1038 469q40 -7 99 0q92 17 180 84q75 58 121 145q36 56 26 125q-10 47 -43 66q-38 21 -88 8q-54 -7 -133 -51q-77 -48 -113 -96q-16 -18 -34 -58q-4 -4 -4 -10q-11 -77 -11 -213z" />
<glyph unicode="&#xe7;" horiz-adv-x="989" d="M53 438q5 124 39.5 223.5t75.5 153.5q147 205 352 266q186 58 391 -4q12 -10 10 -36t-15.5 -52.5t-26.5 -21.5q-175 54 -342 -6q-140 -54 -246 -179q-1 -1 -1 -2.5t-1 -3.5q-2 -3 -16 -23.5t-26.5 -44t-28 -59.5t-27.5 -88t-17 -112q-3 -87 10.5 -129.5t48.5 -83.5 q34 -32 80 -48.5t80.5 -20t87.5 -3.5q89 7 171 39t179 86q12 1 25.5 -30t16.5 -58.5t-9 -32.5q-159 -89 -286 -113q-4 -9 -35.5 -71t-46.5 -95q46 13 92.5 17.5t97 -4t84.5 -33.5q49 -36 62 -82t8 -109q-36 -163 -228 -256q-50 -25 -100 -41.5t-92 -23.5t-78 -9.5t-68.5 0.5 t-52.5 6t-40.5 8t-22.5 5q-8 2 -10 15t0.5 30t7.5 33.5t13 27.5t15 9q80 -25 172.5 -16.5t196.5 59.5q64 36 110.5 83t59.5 92.5t-29 74.5q-60 22 -157 0q-74 -18 -115 -49q-21 -16 -28.5 -20t-25 1t-46.5 27q-7 5 -10 12.5t-2.5 16.5t2 16.5t6 18.5t7.5 17t8.5 15.5 t6.5 11.5q62 132 102 203q-94 3 -162 28t-137 91q-1 1 -14 19t-20 28t-19.5 35.5t-19 50t-12 62t-5.5 79.5z" />
<glyph unicode="&#xe8;" horiz-adv-x="1060" d="M73 451.5q2 76.5 21 158.5q54 209 168 353q34 40 53.5 61.5t57.5 56.5t69 53t74 30.5t86 9.5q67 -7 109.5 -54.5t42.5 -113.5q0 -74 -33 -141t-92 -148q-17 -16 -50 -50t-49 -51q-75 -71 -166 -133t-171 -90q4 -27 8.5 -47t10 -35.5t7.5 -21.5q40 -75 97.5 -100.5 t158.5 -36.5q185 -6 365 71q63 28 139 76q13 1 21.5 -29t7.5 -61t-13 -33q-12 -6 -34.5 -18t-36.5 -19.5t-37 -17.5t-47 -19q-220 -84 -404 -65q-111 6 -195 54.5t-130 141.5q-19 39 -29.5 90.5t-8.5 128zM197 518q109 49 233 154q87 76 148.5 167t54.5 173q-7 66 -96 41 q-214 -78 -318 -441q-10 -30 -22 -94zM223 1710q-9 9 10.5 32t46.5 38t35 6q21 -29 74.5 -99t81.5 -110q27 -37 101 -139.5t104 -143.5q6 -9 -16.5 -30t-49 -34.5t-32.5 -4.5q-9 13 -80 114t-121 168q-28 39 -154 203z" />
<glyph unicode="&#xe9;" horiz-adv-x="1060" d="M73 451.5q2 76.5 21 158.5q54 209 168 353q34 40 53.5 61.5t57.5 56.5t69 53t74 30.5t86 9.5q67 -7 109.5 -54.5t42.5 -113.5q0 -74 -33 -141t-92 -148q-17 -16 -50 -50t-49 -51q-75 -71 -166 -133t-171 -90q4 -27 8.5 -47t10 -35.5t7.5 -21.5q40 -75 97.5 -100.5 t158.5 -36.5q185 -6 365 71q63 28 139 76q13 1 21.5 -29t7.5 -61t-13 -33q-12 -6 -34.5 -18t-36.5 -19.5t-37 -17.5t-47 -19q-220 -84 -404 -65q-111 6 -195 54.5t-130 141.5q-19 39 -29.5 90.5t-8.5 128zM197 518q109 49 233 154q87 76 148.5 167t54.5 173q-7 66 -96 41 q-214 -78 -318 -441q-10 -30 -22 -94zM252 1274q111 91 227 188q97 82 246 221q8 8 32 -10.5t41 -43.5t9 -34q1 0 -39 -37.5t-102.5 -93.5t-108.5 -94q-102 -88 -235 -196q-11 -7 -32 16t-34 50.5t-4 33.5z" />
<glyph unicode="&#xea;" horiz-adv-x="1060" d="M73 451.5q2 76.5 21 158.5q54 209 168 353q34 40 53.5 61.5t57.5 56.5t69 53t74 30.5t86 9.5q67 -7 109.5 -54.5t42.5 -113.5q0 -74 -33 -141t-92 -148q-17 -16 -50 -50t-49 -51q-75 -71 -166 -133t-171 -90q4 -27 8.5 -47t10 -35.5t7.5 -21.5q40 -75 97.5 -100.5 t158.5 -36.5q185 -6 365 71q63 28 139 76q13 1 21.5 -29t7.5 -61t-13 -33q-12 -6 -34.5 -18t-36.5 -19.5t-37 -17.5t-47 -19q-220 -84 -404 -65q-111 6 -195 54.5t-130 141.5q-19 39 -29.5 90.5t-8.5 128zM141 1282q173 197 322 442q45 85 121 39q12 -13 24.5 -31.5 t18.5 -29.5t19 -37.5t16 -32.5q118 -218 235 -364q7 -11 -14.5 -33.5t-47.5 -37t-32 -5.5q-20 26 -38.5 51t-33 45t-30.5 44.5t-26 39.5t-25 41t-22.5 37.5t-23 40.5t-21 39t-23 42.5t-23.5 43.5q-40 -59 -136 -187.5t-172 -222.5q-8 -9 -33 6t-44 38t-11 32zM197 518 q109 49 233 154q87 76 148.5 167t54.5 173q-7 66 -96 41q-214 -78 -318 -441q-10 -30 -22 -94z" />
<glyph unicode="&#xeb;" horiz-adv-x="1060" d="M73 451.5q2 76.5 21 158.5q54 209 168 353q34 40 53.5 61.5t57.5 56.5t69 53t74 30.5t86 9.5q67 -7 109.5 -54.5t42.5 -113.5q0 -74 -33 -141t-92 -148q-17 -16 -50 -50t-49 -51q-75 -71 -166 -133t-171 -90q4 -27 8.5 -47t10 -35.5t7.5 -21.5q40 -75 97.5 -100.5 t158.5 -36.5q185 -6 365 71q63 28 139 76q13 1 21.5 -29t7.5 -61t-13 -33q-12 -6 -34.5 -18t-36.5 -19.5t-37 -17.5t-47 -19q-220 -84 -404 -65q-111 6 -195 54.5t-130 141.5q-19 39 -29.5 90.5t-8.5 128zM193 1419q-2 8 9 16t28 13.5t35 8.5t31 1t15 -10q4 -8 13.5 -39 t16.5 -59l7 -27q4 -12 -24.5 -27.5t-55.5 -19t-35 7.5q-5 17 -18 64t-22 71zM197 518q109 49 233 154q87 76 148.5 167t54.5 173q-7 66 -96 41q-214 -78 -318 -441q-10 -30 -22 -94zM627 1413q-5 12 23 28t55 20t36 -7q8 -20 11 -34.5t10 -32t29 -56.5q6 -12 -20 -31 t-52.5 -27t-36.5 1q-15 28 -16 27l-2 4q-12 36 -37 108z" />
<glyph unicode="&#xec;" horiz-adv-x="397" d="M-266 1921q-8 8 11.5 30.5t46 37.5t34.5 6q75 -96 158 -209q104 -140 202 -283q7 -9 -15 -29.5t-49 -33.5t-34 -4q-16 22 -84 118.5t-115 161.5q-65 93 -155 205zM61 10v256q0 350 15 697q-2 8 9.5 15.5t29 12t35.5 7t31.5 0.5t15.5 -9q-8 -195 -17 -694q0 -170 4 -256 q2 -10 -15.5 -19.5t-40.5 -15t-43.5 -5t-23.5 10.5z" />
<glyph unicode="&#xed;" horiz-adv-x="397" d="M61 10v256q0 350 15 697q-2 8 9.5 15.5t29 12t35.5 7t31.5 0.5t15.5 -9q-8 -195 -17 -694q0 -170 4 -256q2 -10 -15.5 -19.5t-40.5 -15t-43.5 -5t-23.5 10.5zM66 1524q41 34 225 186q107 89 246 223q8 8 32 -10.5t41 -44t8 -33.5q2 0 -38 -38t-101 -93.5t-108 -95.5 q-30 -25 -126 -105.5t-110 -91.5q-12 -6 -33 17.5t-33.5 51.5t-2.5 34z" />
<glyph unicode="&#xee;" horiz-adv-x="397" d="M-223 1540q178 206 321 442q45 85 121 39q13 -12 25 -29.5t19 -30.5t18.5 -36.5t17.5 -34.5q117 -218 236 -362q6 -12 -15.5 -34.5t-48 -37t-33.5 -4.5q-24 32 -46.5 63t-38.5 54t-35.5 54.5t-30 47.5t-29.5 50.5t-26 46.5t-29 53t-29 53q-184 -259 -309 -410 q-12 -14 -56 23.5t-32 52.5zM94 10v256q0 350 15 697q-2 8 9.5 15.5t28.5 12t35 7t31.5 0.5t15.5 -9q-7 -156 -16 -694q0 -170 4 -256q2 -10 -15.5 -19.5t-40.5 -15t-43.5 -5t-23.5 10.5z" />
<glyph unicode="&#xef;" horiz-adv-x="397" d="M-174 1589q-2 8 9 16t28.5 13.5t35 8.5t31 1t15.5 -10q4 -8 13 -39t16 -57l6 -27q5 -13 -23 -28.5t-55.5 -19t-36.5 6.5q-34 121 -39 135zM61 10v256q0 350 15 697q-2 8 9.5 15.5t29 12t35.5 7t31.5 0.5t15.5 -9q-8 -195 -17 -694q0 -170 4 -256q2 -10 -15.5 -19.5 t-40.5 -15t-43.5 -5t-23.5 10.5zM258 1583q-4 13 24.5 29t55.5 20t35 -6q8 -18 14.5 -46.5t34.5 -78.5q7 -11 -18.5 -30t-52 -27t-36.5 2q-14 26 -17 26l-9 22z" />
<glyph unicode="&#xf0;" horiz-adv-x="1212" d="M72 1552q60 46 245 195q30 24 87.5 73t87.5 74q-196 257 -351 412q-10 3 -10.5 23t5 42t15 39t19.5 15q13 -12 39.5 -31t32.5 -24q14 -12 41 -40.5t61 -66.5t37 -41q48 -54 203 -252q5 4 16 12.5t16 12.5q35 29 248 211q164 119 207 153q9 8 31 -12.5t36 -47t5 -34.5 q-50 -40 -203 -156q-36 -29 -77 -63t-91.5 -76t-77.5 -65q-32 -27 -43 -33q159 -230 287 -496q111 -236 182 -536q35 -172 17 -303q-5 -31 -33 -134q-59 -158 -219 -311q-127 -119 -307 -164q-153 -27 -304 56q-69 43 -106 105t-57 151q-13 87 10.5 167.5t75.5 170.5 q50 79 119.5 143.5t168.5 134.5q145 99 346 170q105 28 107 29q-53 158 -107 268q-120 253 -268 473q-33 -27 -91.5 -76t-78.5 -65q-48 -41 -140 -113.5t-106 -83.5q-17 -12 -53 35t-22 59zM229 266q21 -123 105 -178q111 -59 217 -43q146 39 252 131q135 132 186 262 q32 96 34.5 186t-19.5 189l-31 127q-16 -5 -50 -14.5t-51 -14.5q-194 -67 -319 -151q-84 -61 -146.5 -118.5t-107.5 -127.5q-39 -70 -58.5 -128.5t-11.5 -119.5z" />
<glyph unicode="&#xf1;" horiz-adv-x="829" d="M10 1356q4 87 51 129q14 12 32 20.5t33 14.5t38.5 7.5t38 3t42.5 -2l40 -5t43 -8t40.5 -8.5t42.5 -10.5t38 -9.5q4 -1 32 -7t40 -8t41 -7.5t45.5 -7t43 -3.5t44 -0.5t37.5 4.5t35 10t26 17q31 25 43 67q2 9 14.5 12.5t29.5 1.5t33 -8t26 -16t7 -22q-22 -81 -78 -123 q-39 -31 -86.5 -46t-104.5 -13.5t-107 9t-121 23.5q-15 3 -58.5 12.5t-75.5 15.5t-70.5 11.5t-66.5 2.5t-41 -15q-1 -3 -3.5 -8.5t-4.5 -13.5t-2 -19q-1 -19 -31 -28.5t-59 -2t-27 30.5zM98 70l11 127q6 343 6 350q3 100 6 300.5t6 299.5q-1 13 28.5 26t57.5 15t37 -8 q-8 -78 -8 -230q17 65 43 119q30 48 59 78t66 37q31 6 64 -6t54 -27.5t52 -42.5q55 -63 89.5 -140t61.5 -175q54 -200 33 -492q-15 -177 -59 -330q2 -13 -28 -20.5t-60.5 -5t-30.5 15.5q42 151 59 313q19 295 -22 463q-18 67 -29.5 102.5t-37 88t-58.5 88.5q-44 51 -67 52 t-42 -40q-28 -57 -51 -170q-66 -268 -88 -455q-21 -134 -25 -196q0 -3 -1 -8.5t-1 -8.5q-3 -40 -4 -71.5t-1 -39.5t-1 -9q0 -18 -30.5 -26t-60.5 -0.5t-28 26.5z" />
<glyph unicode="&#xf2;" horiz-adv-x="1265" d="M53 381q3 148 68 281q108 232 250 350q117 95 218 134t138 17q10 -7 0 -33q139 -39 262 -143q90 -87 141 -176t46 -193q-1 -91 -46.5 -166t-125.5 -153q-84 -84 -228 -156q-194 -80 -334 -90q-93 -3 -160 14.5t-128 73.5l-14 15q-14 15 -25.5 32t-26 44t-24 66t-11.5 83z M174 403q-6 -103 68 -180q45 -37 98.5 -45.5t128.5 -3.5q147 17 297 92q112 56 195 144t94 192q9 80 -33 150t-117 145q-154 126 -303 131q-37 -15 -84 -44t-69 -46q-109 -95 -207 -283q-65 -138 -68 -252zM334 1769q-8 9 11.5 31.5t46 38t34.5 6.5q127 -168 158 -211 q45 -61 112.5 -155.5t89.5 -124.5q6 -9 -16.5 -30t-49 -35t-32.5 -5q-10 14 -80.5 115t-120.5 168q-81 112 -153 202z" />
<glyph unicode="&#xf3;" horiz-adv-x="1265" d="M53 381q3 148 68 281q108 232 250 350q117 95 218 134t138 17q10 -7 0 -33q139 -39 262 -143q90 -87 141 -176t46 -193q-1 -91 -46.5 -166t-125.5 -153q-84 -84 -228 -156q-194 -80 -334 -90q-93 -3 -160 14.5t-128 73.5l-14 15q-14 15 -25.5 32t-26 44t-24 66t-11.5 83z M174 403q-6 -103 68 -180q45 -37 98.5 -45.5t128.5 -3.5q147 17 297 92q112 56 195 144t94 192q9 80 -33 150t-117 145q-154 126 -303 131q-37 -15 -84 -44t-69 -46q-109 -95 -207 -283q-65 -138 -68 -252zM416 1300q10 9 62 51.5t100.5 82.5t64.5 53q95 82 246 223 q8 8 32 -10.5t41 -43.5t9 -34q1 0 -39 -37.5t-102.5 -93.5t-108.5 -94q-188 -160 -236 -197q-11 -7 -31.5 16t-33.5 50.5t-4 33.5z" />
<glyph unicode="&#xf4;" horiz-adv-x="1265" d="M53 381q3 148 68 281q108 232 250 350q117 95 218 134t138 17q10 -7 0 -33q139 -39 262 -143q90 -87 141 -176t46 -193q-1 -91 -46.5 -166t-125.5 -153q-84 -84 -228 -156q-194 -80 -334 -90q-93 -3 -160 14.5t-128 73.5l-14 15q-14 15 -25.5 32t-26 44t-24 66t-11.5 83z M174 403q-6 -103 68 -180q45 -37 98.5 -45.5t128.5 -3.5q147 17 297 92q112 56 195 144t94 192q9 80 -33 150t-117 145q-154 126 -303 131q-37 -15 -84 -44t-69 -46q-109 -95 -207 -283q-65 -138 -68 -252zM242 1290q72 81 161 202.5t160 240.5q24 44 51.5 54.5t69.5 -13.5 q13 -13 25.5 -31.5t19 -29.5t19.5 -38t16 -33q113 -215 235 -364q6 -11 -15.5 -33.5t-47 -37t-31.5 -5.5q-20 26 -38.5 51t-33 45t-30.5 44.5t-26 39.5t-25 41t-22.5 37.5t-23 40.5t-21 39t-23 42.5t-23.5 43.5q-40 -59 -135.5 -187t-171.5 -222q-8 -9 -33.5 5.5t-45 36.5 t-11.5 31z" />
<glyph unicode="&#xf5;" horiz-adv-x="1265" d="M53 381q3 148 68 281q108 232 250 350q117 95 218 134t138 17q10 -7 0 -33q139 -39 262 -143q90 -87 141 -176t46 -193q-1 -91 -46.5 -166t-125.5 -153q-84 -84 -228 -156q-194 -80 -334 -90q-93 -3 -160 14.5t-128 73.5l-14 15q-14 15 -25.5 32t-26 44t-24 66t-11.5 83z M121 1290q8 91 53 129q16 13 34 22.5t40.5 14t39.5 7.5t46 0.5t44 -3.5t48 -8t44 -9t47.5 -11t43.5 -11q4 -1 32 -7t40 -8t41 -7.5t45.5 -7t43 -3.5t44 -0.5t37.5 4.5t35 10t26 17q32 28 41 68q2 9 15.5 12.5t30.5 1t33.5 -8t26.5 -16t7 -22.5q-26 -85 -80 -123 q-50 -41 -122 -52.5t-135.5 -3.5t-160.5 30q-16 3 -59.5 12.5t-75.5 15.5t-70.5 11t-65.5 2t-40 -15q-10 -25 -10 -41q-2 -19 -32 -28.5t-59 -2t-28 30.5zM174 403q-6 -103 68 -180q45 -37 98.5 -45.5t128.5 -3.5q147 17 297 92q112 56 195 144t94 192q9 80 -33 150 t-117 145q-154 126 -303 131q-37 -15 -84 -44t-69 -46q-109 -95 -207 -283q-65 -138 -68 -252z" />
<glyph unicode="&#xf6;" horiz-adv-x="1265" d="M53 381q3 148 68 281q108 232 250 350q117 95 218 134t138 17q10 -7 0 -33q139 -39 262 -143q90 -87 141 -176t46 -193q-1 -91 -46.5 -166t-125.5 -153q-84 -84 -228 -156q-194 -80 -334 -90q-93 -3 -160 14.5t-128 73.5l-14 15q-14 15 -25.5 32t-26 44t-24 66t-11.5 83z M174 403q-6 -103 68 -180q45 -37 98.5 -45.5t128.5 -3.5q147 17 297 92q112 56 195 144t94 192q9 80 -33 150t-117 145q-154 126 -303 131q-37 -15 -84 -44t-69 -46q-109 -95 -207 -283q-65 -138 -68 -252zM324 1464q-2 8 9 16t28 13.5t35 9t31 1.5t15 -9q4 -9 13.5 -40 t16.5 -58l7 -27q2 -8 -8 -17t-26.5 -16t-33.5 -11.5t-30.5 -3.5t-15.5 9q-6 17 -19 63t-22 70zM758 1458q-5 13 22.5 29.5t55 20.5t36.5 -7q6 -14 13.5 -44t36.5 -81q6 -11 -20 -29.5t-52.5 -26.5t-36.5 1q-14 27 -16 26l-2 4q-11 35 -37 107z" />
<glyph unicode="&#xf7;" horiz-adv-x="1785" d="M85.5 1007.5q4.5 28.5 16.5 28.5q616 0 1225 6q129 -5 322 13q11 2 18 -27t5 -59t-13 -31q-176 -16 -332 -10q-174 -2 -587 -2.5t-636 -3.5q-13 0 -18 28.5t-0.5 57zM807 465q-7 11 16.5 31.5t52 32.5t35.5 1q12 -25 27 -56t24.5 -50l10.5 -21q12 -15 -35 -54t-59 -25 q-12 18 -37.5 68.5t-34.5 72.5zM815 1520q-6 12 18 33t53 32.5t36 -0.5q46 -104 61 -127q8 -9 -12.5 -32.5t-47 -39t-34.5 -6.5q-21 30 -74 140z" />
<glyph unicode="&#xf8;" horiz-adv-x="1265" d="M49 381q6 150 70 281q102 227 248 350q119 95 219.5 134t138.5 17q10 -7 0 -33q60 -16 133 -55q23 35 61.5 101.5t47.5 80.5q8 10 32.5 2t49 -27t20.5 -30q-69 -124 -113 -192q5 -3 15.5 -11.5t15.5 -11.5q89 -87 140 -176t47 -193q-3 -91 -48.5 -166.5t-126.5 -152.5 q-87 -87 -225 -156q-194 -80 -336 -90q-23 -3 -100 2q-16 -28 -50.5 -82.5t-51.5 -81.5q-12 -13 -60 18t-39 46q35 51 88 133q-45 25 -73 53l-9.5 9.5t-16 17.5t-19 24t-20 33.5t-17.5 41.5t-14.5 52.5t-6.5 61.5zM170 403q-3 -104 70 -180q24 -24 51 -33q299 459 502 781 q-93 52 -193 57q-37 -16 -84.5 -44.5t-69.5 -45.5q-65 -55 -112 -124.5t-94 -158.5q-65 -136 -70 -252zM414 170q33 0 51 4q145 17 299 92q112 56 195 144t94 192q8 80 -34.5 150t-117.5 145q-6 4 -12 10q-49 -77 -217 -336t-258 -401z" />
<glyph unicode="&#xf9;" horiz-adv-x="890" d="M59 350q0 158 19 334q38 266 86 518q0 18 61 24t64 -14q-52 -238 -88 -512q-18 -134 -25 -323q0 -65 8 -191q4 -29 11 -34.5t22 8.5q45 51 82 102q42 60 104 170q28 61 46 125q-3 213 43 442q2 10 20.5 22t40 19.5t41 3t22.5 -23.5q5 -25 6.5 -57t-1 -67.5t-5.5 -67 t-8.5 -68.5t-9 -58.5t-8.5 -51.5t-6 -34q-2 -10 -7.5 -31.5t-7.5 -31.5q3 -37 25 -154q32 -151 115 -231q15 -19 32 -31q5 -3 17 -9.5t16 -8.5q9 -8 -6 -35.5t-37 -49.5t-31 -14q-9 5 -25 15.5t-20 13.5q-25 21 -39 37q-85 87 -135 254q-31 -57 -61 -100q-87 -127 -164 -197 q-28 -22 -47.5 -32.5t-45 -9.5t-48.5 22q-41 37 -45 129q-11 91 -11 198zM154 1714q-8 8 11.5 31t46 38.5t34.5 6.5q61 -80 157 -211q45 -61 113 -156.5t90 -124.5q6 -9 -16.5 -30.5t-49 -34.5t-32.5 -4q-9 13 -80 114t-121 168q-88 121 -153 203z" />
<glyph unicode="&#xfa;" horiz-adv-x="890" d="M59 350q0 158 19 334q38 266 86 518q0 18 61 24t64 -14q-52 -238 -88 -512q-18 -134 -25 -323q0 -65 8 -191q4 -29 11 -34.5t22 8.5q45 51 82 102q42 60 104 170q28 61 46 125q-3 213 43 442q2 10 20.5 22t40 19.5t41 3t22.5 -23.5q5 -25 6.5 -57t-1 -67.5t-5.5 -67 t-8.5 -68.5t-9 -58.5t-8.5 -51.5t-6 -34q-2 -10 -7.5 -31.5t-7.5 -31.5q3 -37 25 -154q32 -151 115 -231q15 -19 32 -31q5 -3 17 -9.5t16 -8.5q9 -8 -6 -35.5t-37 -49.5t-31 -14q-9 5 -25 15.5t-20 13.5q-25 21 -39 37q-85 87 -135 254q-31 -57 -61 -100q-87 -127 -164 -197 q-28 -22 -47.5 -32.5t-45 -9.5t-48.5 22q-41 37 -45 129q-11 91 -11 198zM219 1468q10 9 62 51.5t100.5 82.5t64.5 53q73 62 246 223q8 8 32 -10.5t41 -44t9 -33.5q1 0 -39 -38t-102.5 -94t-108.5 -95q-30 -25 -125.5 -105.5t-109.5 -91.5q-17 -9 -50.5 41t-19.5 61z" />
<glyph unicode="&#xfb;" horiz-adv-x="890" d="M45 1415q73 82 162 203.5t160 239.5q24 43 51 52t69 -14q11 -10 20 -21t18.5 -28t13.5 -24t15 -31t13 -27q113 -212 236 -362q6 -11 -15.5 -34t-47 -37.5t-31.5 -4.5q-22 29 -41 54t-38 53.5t-31 45t-30.5 47.5t-25 40.5t-26.5 45.5t-23 41t-26.5 48t-25.5 47 q-38 -56 -134 -184.5t-173 -225.5q-8 -8 -33.5 7t-45 38t-11.5 31zM59 350q0 158 19 334q38 266 86 518q0 18 61 24t64 -14q-52 -238 -88 -512q-18 -134 -25 -323q0 -65 8 -191q4 -29 11 -34.5t22 8.5q45 51 82 102q42 60 104 170q28 61 46 125q-3 213 43 442q2 10 20.5 22 t40 19.5t41 3t22.5 -23.5q5 -25 6.5 -57t-1 -67.5t-5.5 -67t-8.5 -68.5t-9 -58.5t-8.5 -51.5t-6 -34q-2 -10 -7.5 -31.5t-7.5 -31.5q3 -37 25 -154q32 -151 115 -231q15 -19 32 -31q5 -3 17 -9.5t16 -8.5q9 -8 -6 -35.5t-37 -49.5t-31 -14q-9 5 -25 15.5t-20 13.5 q-25 21 -39 37q-85 87 -135 254q-31 -57 -61 -100q-87 -127 -164 -197q-28 -22 -47.5 -32.5t-45 -9.5t-48.5 22q-41 37 -45 129q-11 91 -11 198z" />
<glyph unicode="&#xfc;" horiz-adv-x="890" d="M59 350q0 158 19 334q38 266 86 518q0 18 61 24t64 -14q-52 -238 -88 -512q-18 -134 -25 -323q0 -65 8 -191q4 -29 11 -34.5t22 8.5q45 51 82 102q42 60 104 170q28 61 46 125q-3 213 43 442q2 10 20.5 22t40 19.5t41 3t22.5 -23.5q5 -25 6.5 -57t-1 -67.5t-5.5 -67 t-8.5 -68.5t-9 -58.5t-8.5 -51.5t-6 -34q-2 -10 -7.5 -31.5t-7.5 -31.5q3 -37 25 -154q32 -151 115 -231q15 -19 32 -31q5 -3 17 -9.5t16 -8.5q9 -8 -6 -35.5t-37 -49.5t-31 -14q-9 5 -25 15.5t-20 13.5q-25 21 -39 37q-85 87 -135 254q-31 -57 -61 -100q-87 -127 -164 -197 q-28 -22 -47.5 -32.5t-45 -9.5t-48.5 22q-41 37 -45 129q-11 91 -11 198zM115 1518q-2 10 15 19.5t39 15t41.5 4.5t22.5 -11l35 -125q5 -12 -23 -27.5t-55 -19t-36 7.5q-35 125 -39 136zM547 1511q-5 12 23 28t55.5 20t36.5 -7q6 -14 13 -42.5t36 -79.5q7 -12 -18.5 -31.5 t-52.5 -27.5t-38 1q-13 27 -15 27l-6 16q-15 43 -34 96z" />
<glyph unicode="&#xfd;" horiz-adv-x="2084" d="M59 1028q-10 18 44 48t65 16q147 -348 238 -551q11 -25 41.5 -95.5t54.5 -118.5t51 -91q0 -3 4 -3q12 62 102 435q23 96 43.5 176.5t29.5 112.5l9 32q1 11 50 13q62 1 67 -22q1 -3 0 -7q-1 -25 -6 -47t-37 -162q-57 -264 -172 -703q-37 -132 -217 -831q-62 -241 -88 -315 q0 -19 -60.5 -19t-60.5 19q23 65 88 305q140 565 225 868q-12 6 -23.5 15.5t-18 17t-18.5 21.5t-15 18q-23 36 -46 80.5t-37 75.5t-38 86t-35 79q-156 351 -240 547zM217 1262q4 3 103.5 86t121.5 100q73 62 246 223q8 8 32.5 -10.5t41.5 -44t8 -33.5q2 0 -38.5 -38 t-102.5 -93.5t-109 -95.5q-30 -25 -125.5 -105.5t-109.5 -91.5q-11 -6 -32 17.5t-33.5 51.5t-2.5 34z" />
<glyph unicode="&#xfe;" horiz-adv-x="1245" d="M59 -1169q0 1 1 4.5t1 5.5q23 139 27 182q5 49 15.5 146.5t15.5 146.5q19 178 33 344q21 219 34 377q2 28 14 172.5t17 222.5q12 238 16 365l9 362q8 235 4 352q4 106 4 320q0 41 1 123t1 123q-5 100 -10 129q-2 20 59 26t64 -14l8 -137q0 -41 -1 -125t-1 -125 q0 -53 -2 -160t-2 -160q0 -222 -2 -335q164 -61 393 -193q197 -122 350 -324q111 -167 111 -342q0 -4 -3.5 -29.5t-3.5 -41.5q-16 -83 -56.5 -157t-87.5 -126.5t-122 -120.5q-146 -125 -422 -268q-99 -54 -229 -92q-19 -3 -37 53q-11 -143 -22 -233q-5 -50 -14.5 -147.5 t-14.5 -141.5q-9 -97 -27 -197q0 -8 -4 -16q-2 -7 -15 -9t-30.5 1.5t-34.5 9t-28 13.5t-9 16zM266 -406q107 28 199 78q246 126 399 252q93 80 151 159t77 173q9 101 -8.5 178t-71.5 160q-133 182 -318 291q-154 93 -334 170q-6 -126 -6 -258q-7 -208 -20 -375 q-7 -157 -29 -395q-5 -63 -16.5 -189t-16.5 -188q-2 -9 -3 -18.5t-1.5 -20.5t-1.5 -17z" />
<glyph unicode="&#xff;" horiz-adv-x="2084" d="M59 1028q-10 18 44 48t65 16q147 -348 238 -551q11 -25 41.5 -95.5t54.5 -118.5t51 -91q0 -3 4 -3q12 62 102 435q23 96 43.5 176.5t29.5 112.5l9 32q1 11 50 13q62 1 67 -22q1 -3 0 -7q-1 -25 -6 -47t-37 -162q-57 -264 -172 -703q-37 -132 -217 -831q-62 -241 -88 -315 q0 -19 -60.5 -19t-60.5 19q23 65 88 305q140 565 225 868q-12 6 -23.5 15.5t-18 17t-18.5 21.5t-15 18q-23 36 -46 80.5t-37 75.5t-38 86t-35 79q-156 351 -240 547zM164 1317q-4 20 54.5 35t64.5 -4l34 -125q5 -13 -23 -28t-55 -18.5t-36 7.5q-4 13 -11 40.5t-14 50.5 t-14 42zM596 1311q-5 13 23 29.5t55.5 20.5t36.5 -7q6 -15 13.5 -44.5t35.5 -80.5q7 -11 -18.5 -29.5t-52.5 -26.5t-38 1q-13 26 -15 26l-6 14q-15 43 -34 97z" />
<glyph unicode="&#x152;" horiz-adv-x="3260" d="M66 1108q19 236 59 367q70 206 141 340q93 172 197 292q55 59 86 90.5t85 74.5t107 71q152 72 263 70q136 -18 215 -70q19 -14 -29 -70q169 7 285 -32q29 -6 81 -29q-3 28 7 60t22 32q657 77 1522 143q121 9 160.5 12t89 7t149.5 12q12 -6 12.5 -34t-10 -59t-22.5 -30 q-251 -15 -402 -28q-860 -68 -1472 -142q67 -33 131 -88q130 -120 196 -239q95 -169 129 -312q38 -177 29 -356q-11 -112 -12 -115q182 38 440 87.5t473 94.5q13 -1 15 -32.5t-6 -61.5t-19 -28q-210 -44 -470.5 -93.5t-453.5 -91.5q-14 -74 -39 -157q-75 -217 -194 -344 q-158 -158 -268 -232q291 38 764 88q572 52 890 98q13 -2 18 -32.5t0 -60t-18 -27.5q-395 -57 -895 -99q-729 -81 -1103 -135q-96 -29 -121 -33q-35 -6 -174 -16h-6q-96 0 -187 12q-206 46 -321 123q-152 119 -220 258q-86 176 -108 340q-28 221 -16 375zM186 1130 q-13 -154 15 -356q15 -140 94 -319q66 -132 192 -226q101 -64 289 -102q139 -21 320.5 16.5t361.5 141.5q185 112 285 232.5t162 279.5q54 153 71 370q14 157 -22 334q-27 133 -115 289q-66 119 -180 215q-96 86 -238 129q-114 29 -297 18q-152 -3 -293 -75 q-73 -40 -163 -133q-12 -3 -26.5 26t-18 56t5.5 34q42 38 64 57t59 44.5t73 40.5q124 53 267 69q-53 16 -125 23q-93 -5 -213 -76q-28 -14 -37 -23q-169 -119 -330 -397q-82 -150 -137 -323q-46 -138 -64 -345z" />
<glyph unicode="&#x153;" horiz-adv-x="2093" d="M86 449q27 151 98 245q88 115 203 180q107 60 203 82q20 26 39 39q73 58 153 41q91 -25 148 -80q79 -72 108 -147q18 36 29 57t32 49t44 46q86 64 147 88q106 41 185 26q94 -34 143 -96q62 -86 65 -172q-3 -124 -51 -207q-59 -92 -134.5 -139.5t-213.5 -100.5 q-66 -23 -125 -32q43 -69 125 -131q55 -37 168 -56q107 -8 252 33q72 17 113.5 33.5t109.5 54.5q8 5 22.5 13.5t22.5 13.5q15 9 46.5 -43.5t17.5 -61.5l-49 -30q-86 -43 -132.5 -61.5t-123.5 -37.5q-168 -47 -295 -32q-140 17 -224 75q-91 66 -147 154q-17 22 -29 47 q-37 -79 -80 -125q-86 -103 -198 -162q-129 -57 -256 -71q-166 -4 -260 49q-109 85 -140 200q-37 125 -16 259zM203 426q-13 -93 16 -207q26 -84 96 -131q59 -31 181 -27q100 11 213 64q75 36 159 127q36 49 50 82q-78 24 -125 47q-115 61 -175 131q-78 85 -94 172 q-11 78 0 123q-33 -12 -78 -41q-91 -48 -167 -148q-51 -65 -76 -192zM645 705q13 -54 66 -115q50 -55 141 -105q37 -19 109 -36q12 56 12 145q-8 70 -43 164q-25 57 -78 110q-45 36 -98 50q-21 4 -49 -17q-13 -11 -24 -27.5t-15 -23.5t-15 -31q-22 -53 -6 -114zM1098 600 q-11 -100 10 -158q91 13 149 39q201 70 271 181q36 62 33 145q0 47 -41 98q-33 42 -82 51q-39 4 -101 -18q-60 -22 -114 -70q-8 -7 -14.5 -14t-13.5 -16.5t-11 -15t-10.5 -18t-8.5 -16t-9.5 -18t-8.5 -16.5q-26 -55 -49 -154z" />
<glyph unicode="&#x178;" horiz-adv-x="1759" d="M59 2261q-9 9 7.5 34t41 43t33.5 9q296 -349 717 -770q150 -152 397 -381q102 323 207 567q143 345 285 602q5 12 33 11.5t59 -12.5t29 -25q-116 -209 -285 -592q-47 -111 -99.5 -255.5t-76 -216t-84.5 -259.5q-95 -310 -180 -676q-18 -72 -58 -270q1 -13 -29.5 -18 t-61.5 0t-31 18q12 65 57 274q115 471 182 678q13 49 17 63q-1 -3 -6 -3t-7 3q-239 213 -426 400q-418 421 -721 776zM676 2535q-4 13 25.5 26t57 15t34.5 -10q4 -9 13 -40t16 -58l7 -27q5 -13 -23 -28t-55 -18.5t-36 7.5q-5 16 -17.5 63t-21.5 70zM1108 2529q-5 13 23 29.5 t55.5 20.5t36.5 -7q6 -15 13.5 -44.5t35.5 -80.5q6 -11 -20 -29.5t-52.5 -26.5t-36.5 1q-14 27 -16 26l-2 4z" />
<glyph unicode="&#x2c6;" horiz-adv-x="874" d="M59 1923q175 203 322 442q45 85 121 39q10 -10 18.5 -21.5t18 -27.5t14 -24.5t14.5 -30.5t13 -27q121 -219 235 -362q7 -11 -14.5 -34t-47.5 -37.5t-32 -4.5q-25 32 -47.5 63t-39 54t-36.5 55t-29.5 47t-29.5 50.5t-26 46.5t-29 53.5t-29 52.5q-37 -55 -133.5 -183.5 t-174.5 -226.5q-8 -9 -33 7t-44 38.5t-11 30.5z" />
<glyph unicode="&#x2dc;" horiz-adv-x="1052" d="M53 2212q4 88 51 127q18 15 41 24.5t42 15t50.5 5t48.5 -0.5t54.5 -7t49.5 -9.5t54 -12.5t48 -11q54 -12 85.5 -18t91 -14t102 -0.5t65.5 28.5q31 25 43 69q2 8 14.5 11.5t29.5 1t33 -8t26 -15.5t7 -21q-21 -80 -78 -125q-51 -40 -123.5 -51.5t-135 -4t-160.5 28.5 q-17 3 -60 13t-75.5 16t-70.5 11.5t-65.5 2t-40.5 -15.5q-10 -25 -10 -39q-1 -19 -31 -28.5t-59 -2t-27 30.5z" />
<glyph unicode="&#x2000;" horiz-adv-x="1660" />
<glyph unicode="&#x2001;" horiz-adv-x="3321" />
<glyph unicode="&#x2002;" horiz-adv-x="1660" />
<glyph unicode="&#x2003;" horiz-adv-x="3321" />
<glyph unicode="&#x2004;" horiz-adv-x="1107" />
<glyph unicode="&#x2005;" horiz-adv-x="830" />
<glyph unicode="&#x2006;" horiz-adv-x="553" />
<glyph unicode="&#x2007;" horiz-adv-x="553" />
<glyph unicode="&#x2008;" horiz-adv-x="415" />
<glyph unicode="&#x2009;" horiz-adv-x="664" />
<glyph unicode="&#x200a;" horiz-adv-x="184" />
<glyph unicode="&#x2010;" horiz-adv-x="1720" d="M66.5 1007.5q4.5 28.5 15.5 28.5q616 0 1225 6q128 -5 321 13q11 2 18 -27t5 -59t-13 -31q-173 -16 -331 -10q-174 -2 -587 -2.5t-634 -3.5q-13 0 -18.5 28.5t-1 57z" />
<glyph unicode="&#x2011;" horiz-adv-x="1720" d="M66.5 1007.5q4.5 28.5 15.5 28.5q616 0 1225 6q128 -5 321 13q11 2 18 -27t5 -59t-13 -31q-173 -16 -331 -10q-174 -2 -587 -2.5t-634 -3.5q-13 0 -18.5 28.5t-1 57z" />
<glyph unicode="&#x2012;" horiz-adv-x="1720" d="M66.5 1007.5q4.5 28.5 15.5 28.5q616 0 1225 6q128 -5 321 13q11 2 18 -27t5 -59t-13 -31q-173 -16 -331 -10q-174 -2 -587 -2.5t-634 -3.5q-13 0 -18.5 28.5t-1 57z" />
<glyph unicode="&#x2013;" horiz-adv-x="1732" d="M76.5 1007.5q4.5 28.5 15.5 28.5q616 0 1225 6q128 -5 321 13q11 2 18 -27t5.5 -59t-12.5 -31q-176 -16 -332 -10q-174 -2 -587 -2.5t-636 -3.5q-12 0 -17 28.5t-0.5 57z" />
<glyph unicode="&#x2014;" horiz-adv-x="2480" d="M66.5 1010.5q1.5 13.5 9.5 15.5q78 22 282.5 35t449 17t529 4t504 -3.5t393.5 -6.5t179 -3q12 0 17.5 -30.5t1.5 -61.5t-17 -31h-16q-1420 28 -2017 -8q-203 -12 -273 -31q-8 -2 -16.5 9t-14.5 28.5t-9.5 35t-2 31z" />
<glyph unicode="&#x2018;" horiz-adv-x="421" d="M45 1982q0 165 59 334q62 154 158 250q12 12 72 -10q48 -18 45 -30q0 -2 -2 -3q-52 -40 -87 -100.5t-71 -149.5q-59 -169 -59 -336q0 -27 -49 -8q-46 18 -62 43q-4 5 -4 10z" />
<glyph unicode="&#x2019;" horiz-adv-x="452" d="M45 2533q-14 10 30 33q53 28 78 22q5 -2 7 -5q61 -50 97.5 -100t74.5 -128q29 -70 51.5 -160t22.5 -157q0 -21 -46 -45q-47 -24 -62 -13q-3 2 -3 7q0 67 -22.5 158t-53.5 161q-39 83 -72.5 130t-101.5 97z" />
<glyph unicode="&#x201c;" horiz-adv-x="917" d="M53 2077q53 116 140 256q148 223 266 344q9 9 33.5 -9.5t41 -44.5t7.5 -34q-122 -127 -246 -322q-65 -104 -131 -242q-10 -11 -36.5 -3.5t-53 26t-21.5 29.5zM305 1743q85 200 182 375q124 223 277 428q8 9 35.5 -6t49 -38t13.5 -32q-120 -154 -268 -416 q-74 -131 -178 -360q-10 -9 -37.5 -2.5t-54 23.5t-19.5 28z" />
<glyph unicode="&#x201d;" horiz-adv-x="901" d="M55 2503q-12 15 36.5 54.5t60.5 25.5q138 -190 258 -400q28 -48 82 -143.5t81 -143.5q6 -11 -18.5 -30.5t-52.5 -30.5t-33 0q-28 47 -82 142.5t-82 142.5q-168 275 -250 383zM387 2716q-12 15 35 54.5t59 25.5q91 -113 219 -326q29 -48 79 -142t73 -133 q5 -11 -20.5 -29.5t-51.5 -26.5t-37 1q-13 23 -64.5 120t-82.5 148q-142 224 -209 308z" />
<glyph unicode="&#x2022;" horiz-adv-x="618" d="M68 992q-7 53 20 116q31 72 110 121t162 39q77 -13 139.5 -77.5t63.5 -154.5q3 -74 -39.5 -148t-117.5 -114q-105 -59 -209 -4q-31 17 -55 52t-33 73q-34 44 -41 97z" />
<glyph unicode="&#x2026;" horiz-adv-x="1822" d="M127 143q-6 12 18 33.5t52.5 33t35.5 -0.5q44 -99 62 -127q8 -9 -12.5 -32.5t-47 -39t-34.5 -6.5q-23 32 -74 139zM872 143q-7 12 16.5 33.5t52.5 33t36 -0.5q11 -23 26.5 -55t24.5 -50.5t10 -21.5q8 -9 -12.5 -32.5t-47 -39t-34.5 -6.5q-11 16 -36.5 66t-35.5 73z M1528 143q-7 12 16.5 33.5t52 33t35.5 -0.5q11 -24 26.5 -55.5t25 -50.5l10.5 -21q8 -9 -13 -32.5t-47.5 -39t-34.5 -6.5q-11 16 -36 65.5t-35 73.5z" />
<glyph unicode="&#x202f;" horiz-adv-x="664" />
<glyph unicode="&#x2039;" horiz-adv-x="765" d="M123 1002q15 91 128 230q17 22 38 46q46 55 101 116t122.5 133.5t105.5 114.5q8 8 32 -10t41.5 -42.5t8.5 -33.5q-221 -229 -323 -354q-39 -46 -61.5 -75t-42 -60.5t-26.5 -52.5t-9 -48t5.5 -50t22.5 -56t35.5 -68t50.5 -84q33 -54 51 -85q8 -13 79 -140.5t120 -183.5 q8 -9 -11.5 -32.5t-45 -40t-33.5 -7.5q-38 46 -73 102.5t-75.5 130t-62.5 109.5q-115 198 -136 241q-56 117 -42 200z" />
<glyph unicode="&#x203a;" horiz-adv-x="780" d="M66 381q80 96 205 243q173 203 213 263q52 78 41 133q-8 37 -62 119l-9 12q-30 46 -48 74q-160 270 -314 424q-9 8 8.5 32t42.5 41t33 9q176 -179 332 -441q8 -12 22 -35q88 -138 107 -189q30 -79 -5 -157q-32 -71 -166 -232q-27 -33 -93 -111q-134 -158 -219 -261 q-8 -9 -33 6t-44 38t-11 32z" />
<glyph unicode="&#x205f;" horiz-adv-x="830" />
<glyph unicode="&#x20ac;" horiz-adv-x="1847" d="M55.5 1030q0.5 26 10.5 31q184 30 290 43q-4 102 5.5 214.5t32.5 230t63.5 225.5t93.5 196.5t127.5 148.5t161.5 76q71 14 166 -14.5t174 -71.5q147 -83 272 -206t252 -287q7 -9 -14 -28.5t-47.5 -32t-32.5 -3.5q-126 159 -242.5 273t-253.5 190q-38 20 -72.5 34 t-62 22.5t-54 11t-44.5 3t-38 -5t-30.5 -9t-25.5 -13t-20.5 -13.5t-17 -14.5t-12.5 -11.5q-77 -63 -140 -210t-96.5 -330t-29.5 -355q379 50 655 109q12 1 23 -28.5t11.5 -56.5t-9.5 -34q-100 -19 -207 -36t-259 -38.5t-206 -29.5q3 -88 25 -203q432 51 626 84q18 3 35 5.5 t23 3.5t12.5 2t11.5 2.5t10.5 3t18 6t27.5 8.5q17 2 32 -56.5t-2 -62.5t-35.5 -9t-20.5 -5.5t-13 -2.5t-14.5 -2.5t-23 -3.5t-40.5 -6q-214 -34 -623 -80q70 -312 248 -487q34 -34 89.5 -71t95.5 -50q53 -18 112.5 -19.5t110.5 7t116.5 34.5t110 47.5t112 64t102 66 t99.5 68.5q14 9 46.5 -38.5t19.5 -59.5q-91 -63 -162 -108t-160.5 -91t-163.5 -70t-158.5 -35t-159 4.5t-152.5 58.5t-150 116q-192 198 -270 551q-65 -10 -271 -33q-11 -2 -19.5 27t-7 59t14.5 31q44 5 130 13.5t128 13.5q-24 132 -24 196q-139 -18 -279 -43 q-12 -1 -21.5 28.5t-9 55.5z" />
<glyph unicode="&#x2122;" horiz-adv-x="3371" d="M55.5 2204q3.5 30 16.5 30q1125 15 1675 56q13 2 20.5 -27.5t5 -59.5t-13.5 -30q-325 -14 -885 -47l44 -1247q0 -13 -30 -20t-60.5 -3.5t-30.5 16.5q-43 1215 -43 1248q-86 -2 -333.5 -0.5t-344.5 -5.5q-11 0 -17.5 30t-3 60zM1593 954q0 27 148 658.5t180 718.5 q16 37 39 52t42 14.5t46 -9.5q42 -31 78 -117q166 -397 242 -566.5t110 -207.5q52 7 124.5 152.5t236.5 534.5q11 25 16 38q29 77 72 111q93 45 116 -82q18 -76 46.5 -272t54.5 -382t69 -386.5t90 -305.5q5 -13 -22 -30.5t-54 -23t-36 4.5q-57 136 -101.5 357t-88.5 531.5 t-56 381.5q-207 -505 -334 -664q-67 -81 -125 -82t-116 82q-38 57 -171 348.5t-184 411.5q-20 -64 -142 -578.5t-159 -713.5q-4 -19 -64 -7t-57 31z" />
<glyph unicode="&#x25fc;" horiz-adv-x="1064" d="M0 0v1065h1065v-1065h-1065z" />
<glyph unicode="&#xfb01;" horiz-adv-x="1087" d="M58 1006q-1 31 7.5 60.5t20.5 27.5q24 5 61 15t62 15q-1 41 -4 124.5t-4 127.5q-14 333 -4 455q14 165 22 211q22 114 43 158q49 100 135 116q62 10 115 -16q42 -22 100 -76q121 -124 267 -350q34 -52 65 -109v-12l2 -4q0 -45 -2 -131q2 -7 -9 -14t-28.5 -12t-35 -7.5 t-31 -0.5t-15.5 9q2 41 2 62.5t2 64.5q-1 2 -21.5 33.5t-27.5 48.5q-140 218 -256 334q-34 40 -78 64q-9 2 -19 2.5t-22.5 -9.5t-24 -25t-22.5 -45t-18 -69q-22 -180 -23 -199q-8 -120 0 -450l11 -254q31 6 69 12.5t62.5 12t54.5 14.5q13 0 16.5 -30t-3 -60.5t-19.5 -30.5 q-101 -24 -174 -37q2 -51 7 -156t7 -159q3 -57 9.5 -172.5t9.5 -173.5q2 -69 8 -198t8 -179q3 -13 -26 -26.5t-56.5 -16t-34.5 9.5q-14 267 -16 377q-12 182 -21 346q-4 100 -16 322q-105 -28 -141 -33q-13 2 -14 33zM793 16v256q0 373 14 699q-2 7 9 14.5t28.5 12t36 7 t32 0t15.5 -9.5q-14 -318 -17 -694q0 -170 2 -256q2 -7 -9 -15t-28.5 -13.5t-35.5 -9t-31.5 -1.5t-15.5 10z" />
<glyph unicode="&#xfb02;" horiz-adv-x="1093" d="M58 1006q-1 31 7.5 60.5t20.5 27.5q24 5 61 15t62 15q-1 41 -4 124.5t-4 127.5q-14 333 -4 455q14 165 22 211q22 114 43 158q49 100 135 116q62 10 115 -16q42 -22 100 -76q102 -105 236 -307q6 431 14 797q-2 7 9.5 14t29 12t35.5 8t31.5 1t15.5 -9q-3 -120 -6 -327 t-6 -446.5t-4 -324.5q0 -117 -2 -349.5t-2 -346.5q0 -334 -2 -500v-423q2 -8 -9 -16t-28.5 -13.5t-35 -8.5t-31 -1t-15.5 10v426q0 330 4 498q0 463 2 694v80q-6 0 -6 6q-8 16 -30.5 50t-31.5 54q-140 218 -256 334q-34 40 -78 64q-9 2 -19 2.5t-22.5 -9.5t-24 -25 t-22.5 -45t-18 -69q-22 -180 -23 -199q-8 -120 0 -450l11 -254q31 6 69 12.5t62.5 12t54.5 14.5q13 0 16.5 -30t-3 -60.5t-19.5 -30.5q-101 -24 -174 -37q2 -51 7 -156t7 -159q3 -57 9.5 -172.5t9.5 -173.5q2 -69 8 -198t8 -179q3 -13 -26 -26.5t-56.5 -16t-34.5 9.5 q-14 267 -16 377q-12 182 -21 346q-4 100 -16 322q-105 -28 -141 -33q-13 2 -14 33z" />
</font>
</defs>
</svg>
